<?xml version="1.0" encoding="utf-8"?>
<!-- Generator: Adobe Illustrator 16.0.4, SVG Export Plug-In . SVG Version: 6.00 Build 0)  -->
<!DOCTYPE svg PUBLIC "-//W3C//DTD SVG 1.1//EN" "http://www.w3.org/Graphics/SVG/1.1/DTD/svg11.dtd">
<svg version="1.1" id="Layer_1" xmlns="http://www.w3.org/2000/svg" xmlns:xlink="http://www.w3.org/1999/xlink" x="0px" y="0px"
	 width="150px" height="150px" viewBox="-74.635 137.8 150 150" enable-background="new -74.635 137.8 150 150"
	 xml:space="preserve">
<ellipse fill="none" cx="0.365" cy="209.999" rx="75" ry="72.199"/>
<ellipse fill="#002A5B" cx="0.944" cy="209.999" rx="67.763" ry="65.231"/>
<g>
	<path fill="#47B5F1" d="M0.365,144.767v65.231l-64.168-20.161c-2.143,6.35-3.16,13.124-3.16,20.162
		c0,36.027,30.41,65.231,67.835,65.231c37.424,0,67.509-29.204,67.509-65.231S38.365,144.767,0.365,144.767z"/>
</g>
<ellipse fill="#000E1E" cx="0.365" cy="209.999" rx="39.383" ry="37.912"/>
<g>
	<path fill="#47B5F1" d="M-19.445,201.451c1.782,0,3.218,0.391,4.308,1.17c1.091,0.781,1.636,1.832,1.636,3.155
		c0,0.914-0.264,1.729-0.789,2.443c-0.526,0.715-1.375,1.354-2.546,1.917c1.392,0.72,2.391,1.469,2.997,2.249
		c0.607,0.779,0.91,1.635,0.91,2.566c0,1.47-0.599,2.652-1.794,3.546c-1.196,0.896-2.771,1.342-4.722,1.342
		c-2.036,0-3.636-0.417-4.797-1.25c-1.163-0.832-1.744-2.014-1.744-3.54c0-1.021,0.282-1.927,0.847-2.72
		c0.563-0.792,1.47-1.491,2.717-2.096c-1.061-0.644-1.824-1.335-2.291-2.069s-0.699-1.539-0.699-2.413
		c0-1.283,0.551-2.319,1.653-3.112C-22.656,201.849-21.218,201.451-19.445,201.451z M-22.347,214.829
		c0,0.702,0.255,1.25,0.764,1.643c0.509,0.392,1.205,0.587,2.087,0.587c0.976,0,1.705-0.202,2.188-0.606
		c0.484-0.404,0.726-0.937,0.726-1.599c0-0.547-0.24-1.06-0.719-1.537c-0.479-0.478-1.258-0.986-2.336-1.524
		C-21.442,212.592-22.347,213.605-22.347,214.829z M-19.471,204.22c-0.67,0-1.211,0.166-1.622,0.497
		c-0.412,0.33-0.617,0.774-0.617,1.329c0,0.49,0.163,0.929,0.489,1.316c0.326,0.389,0.919,0.786,1.775,1.194
		c0.832-0.375,1.413-0.76,1.743-1.151c0.332-0.393,0.497-0.846,0.497-1.359c0-0.564-0.212-1.009-0.637-1.335
		C-18.266,204.384-18.809,204.22-19.471,204.22z"/>
	<path fill="#47B5F1" d="M2.17,210.64c0,3.128-0.533,5.443-1.598,6.945c-1.065,1.504-2.705,2.255-4.918,2.255
		c-2.147,0-3.766-0.775-4.855-2.328c-1.091-1.551-1.636-3.842-1.636-6.872c0-3.16,0.53-5.49,1.591-6.989
		c1.061-1.498,2.694-2.248,4.9-2.248c2.146,0,3.769,0.784,4.867,2.353S2.17,207.617,2.17,210.64z M-6.93,210.64
		c0,2.197,0.196,3.771,0.592,4.723c0.395,0.951,1.059,1.427,1.992,1.427c0.916,0,1.577-0.481,1.984-1.445
		c0.407-0.963,0.611-2.531,0.611-4.704c0-2.196-0.206-3.775-0.618-4.735c-0.411-0.959-1.07-1.438-1.978-1.438
		c-0.926,0-1.588,0.479-1.985,1.438C-6.73,206.865-6.93,208.444-6.93,210.64z"/>
	<path fill="#47B5F1" d="M13.044,207.027c0,1.878-0.378,3.288-1.133,4.232c-0.755,0.942-1.862,1.415-3.321,1.415
		c-1.4,0-2.481-0.483-3.245-1.452c-0.764-0.968-1.146-2.366-1.146-4.195c0-3.733,1.463-5.6,4.391-5.6
		c1.434,0,2.534,0.484,3.302,1.453C12.66,203.846,13.044,205.23,13.044,207.027z M7.406,207.05c0,1.038,0.096,1.812,0.287,2.322
		c0.189,0.51,0.497,0.765,0.922,0.765c0.814,0,1.222-1.029,1.222-3.087c0-2.042-0.407-3.062-1.222-3.062
		c-0.425,0-0.732,0.25-0.922,0.754C7.502,205.244,7.406,206.014,7.406,207.05z M21.799,201.685l-10.32,17.91H8.425l10.32-17.91
		H21.799z M26.074,214.181c0,1.869-0.377,3.275-1.132,4.219c-0.755,0.945-1.862,1.416-3.321,1.416c-1.4,0-2.481-0.484-3.245-1.452
		c-0.764-0.967-1.146-2.362-1.146-4.183c0-3.733,1.463-5.6,4.391-5.6c1.434,0,2.534,0.484,3.302,1.452
		C25.691,211.001,26.074,212.384,26.074,214.181z M20.438,214.204c0,1.037,0.096,1.812,0.287,2.321
		c0.189,0.511,0.497,0.766,0.922,0.766c0.814,0,1.222-1.028,1.222-3.087c0-2.041-0.407-3.062-1.222-3.062
		c-0.425,0-0.732,0.251-0.922,0.754C20.533,212.398,20.438,213.168,20.438,214.204z"/>
</g>
</svg>
