<?xml version="1.0" encoding="utf-8"?>
<!-- Generator: Adobe Illustrator 16.0.4, SVG Export Plug-In . SVG Version: 6.00 Build 0)  -->
<!DOCTYPE svg PUBLIC "-//W3C//DTD SVG 1.1//EN" "http://www.w3.org/Graphics/SVG/1.1/DTD/svg11.dtd">
<svg version="1.1" xmlns="http://www.w3.org/2000/svg" xmlns:xlink="http://www.w3.org/1999/xlink" x="0px" y="0px" width="150px"
	 height="150px" viewBox="-74.635 137.8 150 150" enable-background="new -74.635 137.8 150 150" xml:space="preserve">
<g id="Layer_1">
	<circle fill="none" cx="0.365" cy="212.8" r="75"/>
	<circle fill="#002A5B" cx="0.365" cy="212.8" r="67.763"/>
	<path fill="#47B5F1" d="M0.365,145.037v67.799l-39.847-54.845C-56.4,170.312-67.397,190.27-67.397,212.8
		c0,37.425,30.338,67.763,67.763,67.763s67.762-30.338,67.762-67.763S37.365,145.037,0.365,145.037z"/>
	<circle fill="#000E1E" cx="0.365" cy="212.8" r="39.383"/>
	<g>
		<path fill="#47B5F1" d="M-13.606,212.105c0,3.665-0.772,6.4-2.316,8.207c-1.544,1.808-3.881,2.711-7.012,2.711
			c-1.104,0-1.938-0.059-2.507-0.178v-3.156c0.713,0.178,1.459,0.268,2.239,0.268c1.315,0,2.397-0.193,3.246-0.579
			c0.848-0.386,1.497-0.992,1.946-1.82c0.45-0.827,0.708-1.966,0.776-3.416h-0.153c-0.492,0.797-1.06,1.357-1.704,1.68
			s-1.451,0.482-2.419,0.482c-1.619,0-2.896-0.519-3.83-1.559c-0.933-1.039-1.399-2.483-1.399-4.333
			c0-1.993,0.565-3.569,1.699-4.728c1.132-1.158,2.674-1.737,4.626-1.737c1.374,0,2.576,0.322,3.606,0.968
			c1.031,0.645,1.822,1.58,2.374,2.806C-13.882,208.947-13.606,210.407-13.606,212.105z M-20.339,207.103
			c-0.814,0-1.45,0.28-1.908,0.84c-0.458,0.561-0.688,1.366-0.688,2.418c0,0.899,0.208,1.612,0.624,2.138
			c0.415,0.526,1.048,0.789,1.896,0.789c0.797,0,1.479-0.261,2.048-0.782s0.854-1.122,0.854-1.801c0-1.01-0.267-1.862-0.796-2.558
			C-18.839,207.45-19.516,207.103-20.339,207.103z"/>
		<path fill="#47B5F1" d="M1.688,213.466c0,3.249-0.532,5.654-1.597,7.215c-1.064,1.562-2.704,2.342-4.919,2.342
			c-2.146,0-3.765-0.806-4.854-2.418c-1.091-1.611-1.636-3.991-1.636-7.139c0-3.283,0.53-5.703,1.591-7.261
			c1.061-1.557,2.693-2.335,4.899-2.335c2.146,0,3.77,0.814,4.867,2.443C1.138,207.943,1.688,210.326,1.688,213.466z
			 M-7.411,213.466c0,2.282,0.197,3.918,0.592,4.905c0.395,0.988,1.059,1.482,1.991,1.482c0.916,0,1.578-0.5,1.985-1.501
			s0.61-2.63,0.61-4.887c0-2.282-0.205-3.922-0.616-4.919c-0.412-0.997-1.071-1.495-1.979-1.495c-0.925,0-1.586,0.498-1.985,1.495
			C-7.212,209.544-7.411,211.184-7.411,213.466z"/>
		<path fill="#47B5F1" d="M12.562,209.712c0,1.951-0.378,3.416-1.133,4.396c-0.755,0.979-1.862,1.47-3.321,1.47
			c-1.399,0-2.481-0.502-3.245-1.508s-1.146-2.458-1.146-4.358c0-3.878,1.464-5.816,4.391-5.816c1.434,0,2.535,0.503,3.303,1.509
			C12.178,206.408,12.562,207.846,12.562,209.712z M6.925,209.737c0,1.078,0.095,1.882,0.286,2.412s0.499,0.795,0.923,0.795
			c0.814,0,1.222-1.069,1.222-3.207c0-2.121-0.407-3.181-1.222-3.181c-0.424,0-0.731,0.26-0.923,0.783
			C7.02,207.861,6.925,208.66,6.925,209.737z M21.318,204.163l-10.321,18.604H7.943l10.32-18.604H21.318z M25.594,217.144
			c0,1.942-0.378,3.403-1.133,4.383c-0.755,0.981-1.862,1.471-3.321,1.471c-1.399,0-2.481-0.503-3.245-1.508
			s-1.146-2.454-1.146-4.346c0-3.878,1.464-5.816,4.391-5.816c1.434,0,2.535,0.503,3.303,1.509
			C25.209,213.841,25.594,215.278,25.594,217.144z M19.956,217.168c0,1.078,0.095,1.882,0.286,2.412s0.499,0.795,0.923,0.795
			c0.814,0,1.222-1.068,1.222-3.207c0-2.12-0.407-3.181-1.222-3.181c-0.424,0-0.731,0.261-0.923,0.783
			C20.051,215.292,19.956,216.092,19.956,217.168z"/>
	</g>
</g>
<g id="work">
</g>
</svg>
