<?xml version="1.0" encoding="utf-8"?>
<!-- Generator: Adobe Illustrator 16.0.4, SVG Export Plug-In . SVG Version: 6.00 Build 0)  -->
<!DOCTYPE svg PUBLIC "-//W3C//DTD SVG 1.1//EN" "http://www.w3.org/Graphics/SVG/1.1/DTD/svg11.dtd">
<svg version="1.1" xmlns="http://www.w3.org/2000/svg" xmlns:xlink="http://www.w3.org/1999/xlink" x="0px" y="0px" width="150px"
	 height="150px" viewBox="-74.635 137.8 150 150" enable-background="new -74.635 137.8 150 150" xml:space="preserve">
<g id="Layer_1">
</g>
<g id="work">
	<circle fill="none" cx="0.365" cy="212.8" r="75"/>
	<circle fill="#002A5B" cx="0.365" cy="212.8" r="67.763"/>
	<g>
		<path fill="#47B5F1" d="M0.365,145.037v67.742l0.001,0.001l28.864,61.34c22.987-10.84,38.897-34.22,38.897-61.32
			C68.128,175.376,37.79,145.037,0.365,145.037z"/>
	</g>
	<circle fill="#000E1E" cx="0.365" cy="212.8" r="39.383"/>
	<g>
		<path fill="#FFFFFF" d="M-22.622,206.9h-2.63v-10.215h-3.368v-2.188h9.366v2.188h-3.368V206.9z"/>
		<path fill="#FFFFFF" d="M-6.513,200.681c0,2.053-0.509,3.631-1.526,4.733c-1.019,1.104-2.478,1.654-4.378,1.654
			s-3.359-0.551-4.378-1.654c-1.018-1.103-1.527-2.687-1.527-4.751s0.511-3.641,1.531-4.729c1.021-1.089,2.485-1.633,4.391-1.633
			c1.906,0,3.364,0.549,4.373,1.646C-7.018,197.044-6.513,198.622-6.513,200.681z M-15.565,200.681c0,1.386,0.264,2.429,0.79,3.13
			c0.525,0.702,1.312,1.053,2.358,1.053c2.099,0,3.146-1.395,3.146-4.183c0-2.794-1.043-4.191-3.13-4.191
			c-1.046,0-1.836,0.352-2.367,1.057C-15.3,198.249-15.565,199.295-15.565,200.681z"/>
		<path fill="#FFFFFF" d="M5.951,200.578c0,2.042-0.582,3.606-1.743,4.692c-1.163,1.086-2.841,1.629-5.035,1.629H-4.34v-12.403
			h3.894c2.025,0,3.598,0.534,4.718,1.603C5.391,197.168,5.951,198.661,5.951,200.578z M3.219,200.647
			c0-2.664-1.176-3.996-3.529-3.996H-1.71v8.077h1.128C1.952,204.728,3.219,203.367,3.219,200.647z"/>
		<path fill="#FFFFFF" d="M15.447,206.9l-0.899-2.953h-4.521L9.127,206.9H6.293l4.378-12.455h3.215l4.396,12.455H15.447z
			 M13.92,201.741c-0.831-2.676-1.3-4.188-1.403-4.539c-0.105-0.351-0.18-0.628-0.226-0.832c-0.187,0.725-0.721,2.515-1.604,5.371
			H13.92z"/>
		<path fill="#FFFFFF" d="M22.362,199.603l2.588-5.106h2.834l-4.115,7.575v4.828h-2.613v-4.743l-4.114-7.66h2.851L22.362,199.603z"
			/>
		<path fill="#47B5F1" d="M-13.035,229.106h-2.239v3.855h-3.843v-3.855h-7.941v-2.736l8.157-12.013h3.627v11.695h2.239V229.106z
			 M-19.117,226.052v-3.156c0-0.526,0.021-1.289,0.063-2.291c0.042-1.001,0.076-1.582,0.102-1.743h-0.102
			c-0.314,0.695-0.691,1.374-1.133,2.036l-3.41,5.154H-19.117z"/>
		<path fill="#47B5F1" d="M1.246,218.518c0,1.162-0.352,2.15-1.057,2.965c-0.703,0.814-1.691,1.375-2.965,1.68v0.077
			c1.502,0.187,2.639,0.643,3.411,1.368c0.771,0.725,1.158,1.702,1.158,2.933c0,1.79-0.649,3.184-1.947,4.181
			s-3.152,1.495-5.562,1.495c-2.02,0-3.809-0.335-5.37-1.005v-3.348c0.721,0.365,1.515,0.662,2.38,0.892
			c0.865,0.229,1.722,0.343,2.57,0.343c1.298,0,2.257-0.221,2.876-0.661c0.619-0.441,0.93-1.149,0.93-2.125
			c0-0.874-0.356-1.493-1.069-1.858c-0.712-0.365-1.85-0.548-3.41-0.548h-1.413v-3.016h1.438c1.442,0,2.497-0.188,3.163-0.565
			c0.666-0.378,0.999-1.024,0.999-1.941c0-1.408-0.883-2.112-2.647-2.112c-0.61,0-1.232,0.102-1.864,0.305
			c-0.632,0.204-1.334,0.557-2.105,1.057l-1.82-2.71c1.696-1.222,3.721-1.833,6.07-1.833c1.926,0,3.446,0.391,4.562,1.171
			C0.688,216.041,1.246,217.127,1.246,218.518z"/>
		<path fill="#47B5F1" d="M12.487,219.905c0,1.952-0.378,3.417-1.133,4.397c-0.756,0.979-1.863,1.47-3.322,1.47
			c-1.399,0-2.481-0.503-3.245-1.509c-0.763-1.005-1.145-2.458-1.145-4.358c0-3.877,1.464-5.815,4.39-5.815
			c1.435,0,2.535,0.503,3.303,1.509C12.103,216.603,12.487,218.038,12.487,219.905z M6.85,219.931c0,1.077,0.095,1.881,0.286,2.411
			c0.19,0.53,0.498,0.795,0.923,0.795c0.814,0,1.222-1.068,1.222-3.206c0-2.121-0.407-3.182-1.222-3.182
			c-0.425,0-0.732,0.261-0.923,0.782C6.944,218.053,6.85,218.853,6.85,219.931z M21.242,214.357l-10.32,18.604H7.867l10.321-18.604
			H21.242z M25.519,227.337c0,1.942-0.378,3.404-1.133,4.384c-0.756,0.979-1.863,1.47-3.322,1.47c-1.399,0-2.481-0.503-3.245-1.508
			c-0.763-1.006-1.145-2.454-1.145-4.346c0-3.878,1.464-5.815,4.39-5.815c1.435,0,2.535,0.502,3.303,1.508
			C25.134,224.034,25.519,225.47,25.519,227.337z M19.88,227.363c0,1.077,0.096,1.882,0.287,2.411
			c0.19,0.53,0.498,0.796,0.923,0.796c0.814,0,1.222-1.069,1.222-3.207c0-2.121-0.407-3.182-1.222-3.182
			c-0.425,0-0.732,0.261-0.923,0.782C19.976,225.485,19.88,226.284,19.88,227.363z"/>
	</g>
</g>
</svg>
