<?xml version="1.0" encoding="utf-8"?>
<!-- Generator: Adobe Illustrator 16.0.4, SVG Export Plug-In . SVG Version: 6.00 Build 0)  -->
<!DOCTYPE svg PUBLIC "-//W3C//DTD SVG 1.1//EN" "http://www.w3.org/Graphics/SVG/1.1/DTD/svg11.dtd">
<svg version="1.1" xmlns="http://www.w3.org/2000/svg" xmlns:xlink="http://www.w3.org/1999/xlink" x="0px" y="0px" width="150px"
	 height="150px" viewBox="-74.635 137.8 150 150" enable-background="new -74.635 137.8 150 150" xml:space="preserve">
<g id="Layer_1">
</g>
<g id="work">
	<circle fill="none" cx="0.365" cy="212.8" r="75"/>
	<circle fill="#002A5B" cx="0.365" cy="212.8" r="67.763"/>
	<g>
		<path fill="#47B5F1" d="M0.365,145.037v67.799l-0.075-0.104l-46.383,49.393c12.131,11.43,28.475,18.438,46.458,18.438
			c37.425,0,67.763-30.338,67.763-67.763C68.128,175.376,37.79,145.037,0.365,145.037z"/>
	</g>
	<circle fill="#000E1E" cx="0.365" cy="212.8" r="39.383"/>
	<g>
		<path fill="#FFFFFF" d="M-11.107,206.9h-8.67v-1.824l3.112-3.147c0.922-0.944,1.525-1.6,1.808-1.965
			c0.283-0.364,0.487-0.702,0.611-1.014c0.124-0.311,0.187-0.633,0.187-0.967c0-0.498-0.138-0.868-0.412-1.111
			c-0.273-0.243-0.64-0.365-1.098-0.365c-0.481,0-0.948,0.11-1.4,0.331c-0.453,0.221-0.925,0.535-1.417,0.942l-1.425-1.688
			c0.61-0.521,1.116-0.889,1.518-1.104c0.402-0.215,0.841-0.38,1.316-0.496c0.475-0.116,1.006-0.174,1.595-0.174
			c0.774,0,1.459,0.142,2.053,0.424c0.594,0.283,1.055,0.679,1.383,1.188c0.327,0.509,0.491,1.091,0.491,1.747
			c0,0.571-0.1,1.107-0.301,1.607c-0.2,0.501-0.512,1.015-0.933,1.54c-0.422,0.526-1.164,1.275-2.228,2.249l-1.595,1.501v0.119
			h5.404V206.9z"/>
		<path fill="#FFFFFF" d="M-0.812,200.698c0,2.166-0.354,3.77-1.065,4.811c-0.709,1.041-1.803,1.561-3.278,1.561
			c-1.432,0-2.51-0.537-3.237-1.611c-0.727-1.075-1.09-2.661-1.09-4.76c0-2.188,0.354-3.802,1.061-4.84s1.796-1.557,3.267-1.557
			c1.431,0,2.513,0.543,3.244,1.629C-1.179,197.016-0.812,198.605-0.812,200.698z M-6.879,200.698c0,1.521,0.131,2.612,0.395,3.271
			c0.263,0.659,0.706,0.988,1.328,0.988c0.61,0,1.052-0.334,1.323-1.001s0.407-1.753,0.407-3.258c0-1.521-0.138-2.614-0.411-3.279
			c-0.275-0.664-0.715-0.996-1.319-0.996c-0.617,0-1.058,0.332-1.324,0.996C-6.746,198.083-6.879,199.176-6.879,200.698z"/>
		<path fill="#FFFFFF" d="M9.021,197.27c0,0.775-0.234,1.435-0.704,1.977c-0.47,0.543-1.128,0.917-1.977,1.12v0.051
			c1.001,0.125,1.759,0.429,2.274,0.913c0.515,0.482,0.771,1.135,0.771,1.955c0,1.193-0.433,2.122-1.298,2.786
			c-0.865,0.665-2.102,0.997-3.708,0.997c-1.346,0-2.54-0.223-3.58-0.67v-2.231c0.48,0.243,1.01,0.441,1.587,0.594
			c0.577,0.153,1.148,0.229,1.714,0.229c0.865,0,1.504-0.147,1.917-0.441s0.619-0.767,0.619-1.417c0-0.582-0.237-0.995-0.713-1.238
			s-1.233-0.365-2.273-0.365H2.709v-2.011h0.958c0.962,0,1.665-0.126,2.108-0.377c0.444-0.252,0.667-0.683,0.667-1.294
			c0-0.938-0.589-1.408-1.766-1.408c-0.406,0-0.821,0.067-1.242,0.203c-0.422,0.136-0.89,0.371-1.404,0.705l-1.214-1.808
			c1.132-0.814,2.48-1.222,4.048-1.222c1.283,0,2.297,0.261,3.041,0.78C8.648,195.618,9.021,196.342,9.021,197.27z"/>
		<path fill="#FFFFFF" d="M19.828,200.698c0,2.166-0.354,3.77-1.064,4.811s-1.803,1.561-3.279,1.561
			c-1.431,0-2.51-0.537-3.236-1.611c-0.727-1.075-1.09-2.661-1.09-4.76c0-2.188,0.354-3.802,1.061-4.84s1.795-1.557,3.266-1.557
			c1.431,0,2.513,0.543,3.245,1.629S19.828,198.605,19.828,200.698z M13.763,200.698c0,1.521,0.132,2.612,0.395,3.271
			c0.263,0.659,0.705,0.988,1.327,0.988c0.611,0,1.052-0.334,1.323-1.001s0.407-1.753,0.407-3.258c0-1.521-0.137-2.614-0.411-3.279
			c-0.273-0.664-0.714-0.996-1.319-0.996c-0.616,0-1.058,0.332-1.323,0.996C13.896,198.083,13.763,199.176,13.763,200.698z"/>
		<path fill="#47B5F1" d="M-25.788,225.059c0-3.683,0.778-6.422,2.335-8.221s3.888-2.697,6.993-2.697c1.06,0,1.892,0.062,2.494,0.19
			v3.143c-0.756-0.17-1.502-0.254-2.239-0.254c-1.35,0-2.45,0.203-3.303,0.61s-1.491,1.01-1.916,1.808
			c-0.424,0.798-0.674,1.93-0.75,3.397h0.165c0.84-1.442,2.185-2.163,4.034-2.163c1.663,0,2.965,0.521,3.907,1.565
			c0.941,1.043,1.412,2.485,1.412,4.327c0,1.984-0.56,3.556-1.68,4.714s-2.673,1.737-4.658,1.737c-1.374,0-2.572-0.318-3.595-0.954
			c-1.022-0.637-1.812-1.565-2.366-2.787C-25.511,228.253-25.788,226.781-25.788,225.059z M-19.069,230.073
			c0.84,0,1.485-0.282,1.935-0.847c0.45-0.564,0.675-1.368,0.675-2.411c0-0.908-0.21-1.623-0.63-2.146
			c-0.421-0.521-1.055-0.782-1.903-0.782c-0.797,0-1.478,0.259-2.042,0.776s-0.847,1.12-0.847,1.808
			c0,1.009,0.266,1.861,0.796,2.558C-20.556,229.725-19.884,230.073-19.069,230.073z"/>
		<path fill="#47B5F1" d="M2.206,232.961H-10.8v-2.735l4.67-4.722c1.383-1.417,2.286-2.398,2.711-2.946
			c0.424-0.547,0.729-1.054,0.916-1.521c0.187-0.466,0.28-0.95,0.28-1.45c0-0.747-0.206-1.303-0.617-1.667
			c-0.412-0.365-0.961-0.548-1.648-0.548c-0.721,0-1.421,0.166-2.1,0.496c-0.679,0.331-1.387,0.803-2.125,1.413l-2.138-2.532
			c0.916-0.781,1.676-1.332,2.277-1.654c0.603-0.322,1.26-0.571,1.973-0.745c0.713-0.173,1.51-0.261,2.393-0.261
			c1.162,0,2.188,0.212,3.079,0.636c0.892,0.425,1.582,1.019,2.074,1.782s0.739,1.638,0.739,2.622c0,0.856-0.151,1.66-0.452,2.411
			c-0.302,0.751-0.769,1.521-1.4,2.31s-1.745,1.913-3.34,3.373l-2.393,2.252v0.178h8.106V232.961z"/>
		<path fill="#47B5F1" d="M12.846,219.905c0,1.952-0.378,3.417-1.133,4.397c-0.755,0.979-1.861,1.47-3.321,1.47
			c-1.4,0-2.481-0.503-3.245-1.509c-0.764-1.005-1.146-2.458-1.146-4.358c0-3.877,1.464-5.815,4.391-5.815
			c1.434,0,2.534,0.503,3.303,1.509C12.462,216.603,12.846,218.038,12.846,219.905z M7.208,219.931c0,1.077,0.096,1.881,0.287,2.411
			c0.189,0.53,0.498,0.795,0.922,0.795c0.814,0,1.222-1.068,1.222-3.206c0-2.121-0.407-3.182-1.222-3.182
			c-0.424,0-0.732,0.261-0.922,0.782C7.304,218.053,7.208,218.853,7.208,219.931z M21.601,214.357l-10.32,18.604H8.227l10.32-18.604
			H21.601z M25.877,227.337c0,1.942-0.378,3.404-1.133,4.384s-1.861,1.47-3.321,1.47c-1.4,0-2.481-0.503-3.245-1.508
			c-0.764-1.006-1.146-2.454-1.146-4.346c0-3.878,1.464-5.815,4.391-5.815c1.434,0,2.534,0.502,3.303,1.508
			C25.493,224.034,25.877,225.47,25.877,227.337z M20.239,227.363c0,1.077,0.096,1.882,0.287,2.411
			c0.189,0.53,0.498,0.796,0.922,0.796c0.814,0,1.222-1.069,1.222-3.207c0-2.121-0.407-3.182-1.222-3.182
			c-0.424,0-0.732,0.261-0.922,0.782C20.335,225.485,20.239,226.284,20.239,227.363z"/>
	</g>
</g>
</svg>
