<?xml version="1.0" encoding="utf-8"?>
<!-- Generator: Adobe Illustrator 16.0.4, SVG Export Plug-In . SVG Version: 6.00 Build 0)  -->
<!DOCTYPE svg PUBLIC "-//W3C//DTD SVG 1.1//EN" "http://www.w3.org/Graphics/SVG/1.1/DTD/svg11.dtd">
<svg version="1.1" xmlns="http://www.w3.org/2000/svg" xmlns:xlink="http://www.w3.org/1999/xlink" x="0px" y="0px" width="150px"
	 height="150px" viewBox="285.365 137.8 150 150" style="enable-background:new 285.365 137.8 150 150;" xml:space="preserve">
<g id="Layer_3">
</g>
<g id="photos">
</g>
<g id="Layer_1">
</g>
<g id="work">
	<g>
		<circle style="fill:#002A5B;" cx="360.365" cy="212.8" r="75"/>
		<g>
			<path style="fill:#000E1E;" d="M321.478,207.978c5.294,0,9.588-4.294,9.588-9.591c0-5.307-4.294-9.605-9.588-9.605
				c-5.313,0-9.606,4.299-9.606,9.605C311.871,203.684,316.164,207.978,321.478,207.978z"/>
			<path style="fill:#000E1E;" d="M398.965,207.952c5.294,0,9.582-4.29,9.582-9.596c0-5.304-4.288-9.592-9.582-9.592
				c-5.317,0-9.605,4.288-9.605,9.592C389.359,203.662,393.647,207.952,398.965,207.952z"/>
			<path style="fill:#000E1E;" d="M360.213,258.889c3.254,0,5.885-2.637,5.885-5.891c0-3.255-2.631-5.883-5.885-5.883
				c-3.249,0-5.89,2.628-5.89,5.883C354.323,256.252,356.964,258.889,360.213,258.889z"/>
			<g>
				<path style="fill:#000E1E;" d="M296.144,251.552c0.017,0.008,0.03,0.02,0.048,0.027c1.151,0.479,2.479-0.064,2.959-1.207
					l13.029-25.958l-6.471,39.703h6.258l0.341,6.253c2.342,1.957,4.811,3.764,7.382,5.428l0.634-11.681h2.16l0.807,13.868
					c2.182,1.244,4.431,2.382,6.743,3.406l0.937-17.274h6.258l-6.462-39.703l13.021,25.958c0.48,1.143,1.808,1.687,2.957,1.207
					c1.136-0.494,1.678-1.815,1.191-2.965c0,0-9.552-25.839-11.911-30.658c-2.349-4.803-4.676-7.735-13.638-7.735h-1.834
					c-8.94,0-11.272,2.933-13.63,7.735c-2.358,4.819-11.915,30.658-11.915,30.658c-0.095,0.224-0.141,0.452-0.161,0.681
					C295.27,250.053,295.695,250.811,296.144,251.552z"/>
				<path style="fill:#000E1E;" d="M399.872,210.201h-1.832c-8.948,0-12.589,2.924-14.948,7.737
					c-2.359,4.811-10.601,30.652-10.601,30.652c-0.483,1.152,0.052,2.479,1.198,2.963c1.152,0.483,2.462-0.061,2.956-1.203
					l11.707-25.963l0.653,20.877l-1.313,37.377c3.139-1.229,6.175-2.655,9.091-4.278l2.17-20.664l1.916,18.208
					c3.125-2.01,6.091-4.244,8.875-6.682l-0.851-23.961h0.017l0.654-20.877l11.709,25.963c0.49,1.143,1.802,1.687,2.955,1.203
					c0.211-0.09,0.395-0.215,0.562-0.355c0.264-0.443,0.517-0.895,0.771-1.345c0.069-0.412,0.03-0.848-0.147-1.263
					c0,0-8.244-25.842-10.589-30.652C412.468,213.125,408.828,210.201,399.872,210.201z"/>
				<path style="fill:#000E1E;" d="M354.679,260.933c-4.497-0.771-10.512-8.771-10.898-9.195c-0.399-0.423-0.927-0.754-1.526-0.641
					c-0.815,0.156-1.341,0.931-1.187,1.739c0.089,0.453,0.571,1.171,0.813,1.574c0.254,0.399,5.472,8.484,8.544,10.325
					c2.994,1.794,3.059,1.006,3.362,3.652l0.327,7.771l-0.538,11.321c1.906,0.171,3.832,0.269,5.776,0.295
					c0.477-3.307,0.86-5.977,0.86-5.977s0.384,2.675,0.859,5.984c1.946-0.019,3.872-0.116,5.779-0.279l-0.535-11.345l0.325-7.771
					c0.299-2.646,0.362-1.858,3.355-3.652c3.072-1.841,8.298-9.926,8.544-10.325c0.249-0.403,0.73-1.121,0.812-1.574
					c0.156-0.809-0.368-1.583-1.188-1.739c-0.598-0.113-1.122,0.218-1.52,0.641c-0.391,0.425-6.396,8.425-10.902,9.195
					c-1.017-0.138-2.104-0.675-4.972-0.675h-1.124C356.782,260.258,355.695,260.795,354.679,260.933z"/>
			</g>
		</g>
	</g>
	<g>
		<g>
			<path style="fill:#47B5F1;" d="M378,193.484c0,3.791-1.149,7.015-3.445,9.671c-2.297,2.656-5.52,4.482-9.67,5.479v0.249
				c4.896,0.609,8.604,2.096,11.123,4.462c2.517,2.365,3.776,5.555,3.776,9.566c0,5.839-2.116,10.384-6.351,13.634
				c-4.232,3.252-10.279,4.877-18.137,4.877c-6.586,0-12.424-1.093-17.515-3.279v-10.915c2.352,1.19,4.938,2.158,7.761,2.905
				s5.617,1.121,8.385,1.121c4.232,0,7.359-0.72,9.379-2.158c2.02-1.439,3.03-3.75,3.03-6.932c0-2.85-1.162-4.869-3.486-6.06
				c-2.324-1.189-6.032-1.784-11.123-1.784h-4.606v-9.837h4.689c4.703,0,8.141-0.615,10.313-1.847
				c2.172-1.23,3.259-3.342,3.259-6.33c0-4.592-2.879-6.889-8.633-6.889c-1.992,0-4.02,0.332-6.081,0.996s-4.351,1.812-6.868,3.444
				l-5.936-8.841c5.533-3.984,12.133-5.977,19.797-5.977c6.281,0,11.241,1.273,14.88,3.818C376.18,185.406,378,188.947,378,193.484z
				"/>
		</g>
	</g>
</g>
</svg>
