<?xml version="1.0" encoding="utf-8"?>
<!-- Generator: Adobe Illustrator 16.0.4, SVG Export Plug-In . SVG Version: 6.00 Build 0)  -->
<!DOCTYPE svg PUBLIC "-//W3C//DTD SVG 1.1//EN" "http://www.w3.org/Graphics/SVG/1.1/DTD/svg11.dtd">
<svg version="1.1" xmlns="http://www.w3.org/2000/svg" xmlns:xlink="http://www.w3.org/1999/xlink" x="0px" y="0px" width="150px"
	 height="150px" viewBox="-74.635 137.8 150 150" style="enable-background:new -74.635 137.8 150 150;" xml:space="preserve">
<g id="Layer_3">
</g>
<g id="photos">
	<g>
		<path style="fill:#000E1E;" d="M-74.635,212.799c0-41.423,33.569-74.999,74.986-74.999c41.414,0,74.983,33.576,74.983,74.999
			c0,41.42-33.569,75.001-74.983,75.001C-41.066,287.8-74.635,254.219-74.635,212.799z"/>
		<g>
			<path style="fill:#002A5B;" d="M37.369,188.55c0.466,1.477,1.088,5.245,1.013,6.372c-0.081,1.135,2.28,1.09,2.882,1.012
				c0.604-0.076,2.767-0.774,2.848-1.553c0.081-0.78-0.231-4.433-0.697-4.589c-0.465-0.156-1.628-1.167-1.318-2.879
				c0.309-1.707,0.156-4.428-0.154-4.662c-0.306-0.23-1.782-0.896-2.019-0.388c0,0-1.466,2.253-2.16,2.642
				C37.063,184.897,36.907,187.074,37.369,188.55z"/>
			<path style="fill:#002A5B;" d="M71.061,214.835l-5.035,5.747l-2.096,4.903c0,0-1.7,0.31-3.485-1.637
				c-1.268-1.385-0.925-5.367-1.622-8.163c-0.7-2.799-4.885-5.597-6.274-7.232c-1.395-1.63-5.812-1.161-7.438-1.161
				c-1.625,0-5.114-4.201-5.114-4.201l-0.952,0.344l3.272,5.646l4.189-0.158c0,0,4.804,2.334,3.644,4.9
				c-0.615,1.357-4.245,1.554-7.667,4.194c-5.034,3.893-8.059,3.734-8.059,3.734s-2.248-4.195-4.257-10.025
				c-0.945-2.721-3.23-5.325-3.643-6.07c-0.118-0.202-0.267-0.417-0.415-0.631c-0.357,1.318-0.237,3.343,0.526,5.064
				c0.932,2.1,3.841,8.048,4.421,9.561c0.58,1.516-0.352,5.856-0.352,5.856s2.445,0.561,3.023,0
				c0.579-0.564,3.488-0.607,3.948-1.305c0.469-0.702,3.14-1.867,3.489-1.633c0.346,0.233-0.232,1.633-1.974,6.527
				c-1.74,4.9-4.18,4.9-5.343,6.416c-1.163,1.515-2.788,2.683-3.955,3.496c-1.166,0.821,0.115,5.833,0,8.05
				c-0.117,2.217-1.742,3.729-3.365,5.483c-1.628,1.748-4.886,4.313-6.394,5.828c-1.509,1.519-2.667,4.314-3.482,5.247
				c-0.814,0.933-6.277,2.449-7.557,1.986c-1.274-0.471-2.206-0.12-2.088-1.165c0.117-1.055-3.251-4.317-3.783-5.368
				c-0.523-1.046-2.028-4.199-2.263-6.528c-0.231-2.333,1.284-4.316,2.095-6.295c0.814-1.989-1.508-3.97-2.095-5.021
				c-0.58-1.052-1.277-3.969-1.974-5.713c-0.697-1.75-1.63-3.383-2.44-4.081c-0.812-0.698-3.6-0.815-4.88-0.815
				c-1.276,0-3.602,0.932-4.296,1.399c-0.697,0.466-6.395-0.352-7.437-1.399c-1.048-1.054-3.836-3.964-5.929-5.109
				c-2.088-1.145-2.088-6.201-2.206-8.306c-0.116-2.097,0.466-6.995,1.164-9.908c0.697-2.917,3.371-3.152,4.299-4.779
				c0.931-1.637,2.671-3.383,3.137-4.317c0.463-0.937,2.206-0.818,3.365-1.401c1.163-0.583,1.98,0,1.98,0
				c0-0.697,2.902-1.983,2.902-1.983s8.831-0.814,10.108-0.93c1.28-0.118,1.512,1.982,1.512,1.982s0.468,4.431,2.331,4.897
				c1.852,0.466,5.225-0.699,5.459-1.049c0.229-0.352,10.336,1.4,11.268,1.049c0.929-0.35,4.387-0.536,5.562-0.87l1.021-0.297
				l-0.385-4.041c0,0-2.148,0.231-3.882-0.157c-1.61-0.364-3.479-0.232-3.479-0.232s-0.686-2.308-1.38-4.64
				c-0.7-2.328,7.497-1.036,7.497-1.036s3.095,0.416,5.188,0.185c2.086-0.234,1.782-1.891,1.088-3.525
				c-0.7-1.629-7.049-3.811-7.049-3.811s-0.312-0.148-3.254,0c-2.944,0.157-2.803,5.906-2.803,5.906l-2.618,0.378
				c0,0-0.123,1.378-0.931,2.91c-0.926,1.766-3.023,1.382-3.023,1.382s-2.326-0.933-1.319-4.279c0.61-2.02-3.02-3.729-3.25-4.43
				c-0.231-0.698-3.405-0.777-3.405-0.777l-0.55,0.309l3.996,4.395l1.197,2.836l-2.17-0.077c0,0-1.899,2.101-2.322,1.867
				c-0.7-0.393-0.378-2.439-0.7-3.651c-1.082-4.123-5.264-4.668-5.264-4.668s-1.554,1.264-2.482,1.321
				c-0.409,0.023-1.677-0.359-2.557,0.077c-1.427,0.712-2.231,2.906-3.097,4.043c-0.199,0.264-0.364,0.832-0.463,1.088
				c-1.238,3.341-3.832,1.897-5.651,2.331c-1.32,0.314-3.739-0.853-3.739-0.853s-0.107-4.009,0.063-6.89
				c0.042-0.746,1.793-0.176,3.597-0.189c1.396-0.006,2.803,0.076,3.407,0.076c1.397,0,0.153-0.466,0.853-1.866
				c0.694-1.396-1.166-2.175-1.166-2.175s-3.016-0.231-3.016-1.163c0-0.685-0.785-1.117,0.846-1.326
				c0.604-0.071,3.284-0.324,3.72-0.388c0.73-0.101,1.274-1.336,2.016-1.632c0.901-0.356,2.477-0.447,2.477-1.087
				c0-1.164,3.999-1.866,3.999-1.866s1.094-1.765,0.649-3.261c-0.652-2.181,1.859-3.267,1.859-3.267l2.479,3.654l7.593-0.179
				c0,0,0.85-0.913,1.316-2.597c0.465-1.685,4.101-1.917,4.339-3.059c0.582-2.839-1.837-1.627-3.023-2.331
				c-0.592-0.352,0.309-1.199-0.156-1.138c-0.764,0.103-2.055-0.711-2.708,0.358c-0.535,0.873-0.403,3.534-1.241,4.586
				c-1.86,2.333-5.346,1.866-5.577,0c-0.234-1.865,0.55-6.415,0-3.965c-0.928,4.124-6.505,2.721-6.505,2.721
				s-2.061-1.866-0.622-3.496c1.44-1.635,1.936-2.414,2.867-2.645c0.928-0.234,0.463-2.177,4.186-3.579
				c3.714-1.397,13.9-3.146,15.995-2.68c1.82,0.405,11.424-4.952,20.804-4.578c-11.138-6.643-24.13-10.469-38-10.469
				c-17.472,0-33.563,6.065-46.288,16.201c0.327,0.429,0.757,0.734,1.319,0.827c2.791,0.465,4.417,7.094,2.557,9.894
				c-1.857,2.799-6.736,8.069-7.202,9.469c-0.469,1.397-2.792,5.83-5.111,4.433c-2.325-1.404-0.469-11.198-0.469-11.198
				l-4.414,3.265c0,0-8.131,5.597-2.536,14.926c5.592,9.332,2.308,9.798,2.308,9.798s-9.993,4.426-13.713,9.093
				c-0.159,0.2-0.395,0.478-0.686,0.815c-0.231,2.42-0.357,4.867-0.357,7.35c0,4.205,0.351,8.326,1.022,12.341
				c1.36,2.934,2.202,4.893,3.516,5.385c3.716,1.398,8.831,5.599,8.831,5.599l4.654,11.196l6.98,2.331l6.061,3.965l-2.518,10.029
				l-3.425,4.995c13.196,11.825,30.744,19.03,49.782,19.03c41.132,0,74.903-33.586,74.903-74.871c0-0.058,0-0.104,0-0.162
				L71.061,214.835z M-18.128,162.735c0.388-0.388,1.049-1.788,1.049-1.788v-3.42c0-2.409,4.064-2.565,3.993-2.45
				c-0.076,0.111,1.19,1.829,1.036,2.766c-0.156,0.933,1.32,3.887,1.32,3.887l2.325,1.988c0,0-1.009,2.287-0.85,2.906
				c0.15,0.625,0.697,0.546-0.159,0.625c-0.85,0.075-1.469,1.788-2.636,2.408c-1.16,0.62-3.87-0.079-4.179-0.388
				c-0.31-0.312-1.391-0.934-1.391-0.934s-0.061-2.175-0.292-2.879C-18.146,164.759-18.516,163.123-18.128,162.735z
				 M-21.574,164.598c0.234-0.622,0.208-1.398,0.646-1.633c0.442-0.232,1.135-1.397,1.373-0.932l0.379,1.478
				c0,0,0.039,0.123,0.094,0.322c0.234,0.821,0.795,2.957,0.606,3.335c-0.229,0.467-2.452,0.776-2.448,0.771l-1.422-0.386
				C-22.347,167.553-21.803,165.221-21.574,164.598z"/>
		</g>
	</g>
	<g>
		<g>
			<path style="fill:#47B5F1;" d="M7.291,240.591H-5.534v-35.112l0.125-5.769l0.208-6.309c-2.131,2.131-3.611,3.527-4.441,4.191
				l-6.973,5.604l-6.184-7.721l19.548-15.563H7.291V240.591z"/>
		</g>
	</g>
</g>
<g id="Layer_1">
</g>
<g id="work">
</g>
</svg>
