<?xml version="1.0" encoding="utf-8"?>
<!-- Generator: Adobe Illustrator 16.0.4, SVG Export Plug-In . SVG Version: 6.00 Build 0)  -->
<!DOCTYPE svg PUBLIC "-//W3C//DTD SVG 1.1//EN" "http://www.w3.org/Graphics/SVG/1.1/DTD/svg11.dtd">
<svg version="1.1" xmlns="http://www.w3.org/2000/svg" xmlns:xlink="http://www.w3.org/1999/xlink" x="0px" y="0px" width="150px"
	 height="150px" viewBox="105.365 137.8 150 150" style="enable-background:new 105.365 137.8 150 150;" xml:space="preserve">
<g id="Layer_3">
</g>
<g id="photos">
	<g>
		<circle style="fill:#002A5B;" cx="180.365" cy="212.8" r="75"/>
		<g>
			<path style="fill:#000E1E;" d="M220.796,171.195c0,8.099-6.558,14.665-14.665,14.665c-8.091,0-14.664-6.566-14.664-14.665
				c0-8.115,6.573-14.665,14.664-14.665C214.238,156.53,220.796,163.079,220.796,171.195z"/>
			<path style="fill:#000E1E;" d="M230.503,200.429c5.224-3.127,12.928-13.478,17.502-20.066c-1.329-2.767-2.839-5.428-4.484-7.992
				c-5.294,6.259-15.437,17.191-23.608,18.585c-2.533-0.343-5.241-1.68-12.383-1.68h-2.803c-7.138,0-9.842,1.337-12.379,1.68
				c-11.199-1.914-26.186-21.85-27.154-22.907c-0.992-1.056-2.299-1.88-3.801-1.599c-2.027,0.393-3.336,2.322-2.951,4.335
				c0.219,1.132,1.421,2.916,2.028,3.924c0.629,0.992,13.627,21.133,21.278,25.721c7.455,4.471,7.621,2.507,8.384,9.102
				l0.812,19.358l-2.687,56.377c-0.074,0.274-0.062,1.287-0.022,2.122c4.045-0.422,7.99-1.178,11.817-2.218
				c1.575-10.911,6.078-42.235,6.078-42.235s3.583,24.915,5.477,38.046c4.176-1.917,8.145-4.205,11.865-6.824l-2.137-45.268
				l0.814-19.358C222.898,202.936,223.061,204.9,230.503,200.429z"/>
		</g>
	</g>
	<g>
		<g>
			<path style="fill:#47B5F1;" d="M200.183,241.591h-42.417v-8.924l15.232-15.397c4.51-4.62,7.456-7.823,8.84-9.608
				c1.383-1.784,2.379-3.438,2.988-4.959c0.608-1.521,0.913-3.1,0.913-4.732c0-2.434-0.671-4.246-2.013-5.437
				c-1.343-1.189-3.134-1.784-5.375-1.784c-2.352,0-4.635,0.539-6.848,1.618c-2.215,1.079-4.524,2.614-6.932,4.606l-6.973-8.259
				c2.988-2.546,5.465-4.344,7.43-5.396c1.964-1.051,4.108-1.86,6.433-2.428c2.324-0.566,4.925-0.852,7.803-0.852
				c3.79,0,7.139,0.692,10.044,2.076c2.905,1.383,5.16,3.32,6.766,5.811c1.604,2.49,2.406,5.34,2.406,8.549
				c0,2.795-0.491,5.417-1.473,7.865c-0.982,2.449-2.505,4.96-4.565,7.533c-2.062,2.573-5.693,6.24-10.896,10.998l-7.803,7.347
				v0.581h26.438V241.591z"/>
		</g>
	</g>
</g>
<g id="Layer_1">
</g>
<g id="work">
</g>
</svg>
