<?xml version="1.0" encoding="utf-8"?>
<!DOCTYPE svg PUBLIC "-//W3C//DTD SVG 1.1//EN" "http://www.w3.org/Graphics/SVG/1.1/DTD/svg11.dtd">
<svg version="1.1" id="Layer_1" xmlns="http://www.w3.org/2000/svg" xmlns:xlink="http://www.w3.org/1999/xlink" x="0px" y="0px"
	  viewBox="0 0 36 36" enable-background="new 0 0 36 36" xml:space="preserve">

	<path fill="#fff" d="M34.037,35.999h-9.176v-13.94h4.658v-0.002h0.021l0.7-5.433h-5.383v-3.469c0-1.375,0.334-2.366,1.925-2.595
		c0.225-0.031,0.473-0.048,0.749-0.048l2.876-0.002h0.021V5.651c-0.5-0.113-2.214-0.213-4.201-0.213h-0.002
		c-0.004,0-0.006,0-0.011,0c-4.149,0-6.989,2.532-6.989,7.181v4.007h-4.678h-0.013v5.433h0.013h4.678V36H36v-1.754
		C35.884,35.23,35.055,35.999,34.037,35.999z"/>
	<path fill="#fff" d="M36,1.794V0h-2C35.033,0,35.881,0.797,36,1.794z"/>
	<path fill="#fff" d="M1.987,0H0v1.987C0,0.9,0.89,0,1.987,0z"/>
	<path fill="#fff" d="M0,34.016V36h1.989C0.894,36.009,0,35.111,0,34.016z"/>

</svg>
