<?xml version="1.0" encoding="utf-8"?>
<!-- Generator: Adobe Illustrator 16.0.4, SVG Export Plug-In . SVG Version: 6.00 Build 0)  -->
<!DOCTYPE svg PUBLIC "-//W3C//DTD SVG 1.1//EN" "http://www.w3.org/Graphics/SVG/1.1/DTD/svg11.dtd">
<svg version="1.1" xmlns="http://www.w3.org/2000/svg" xmlns:xlink="http://www.w3.org/1999/xlink" x="0px" y="0px" width="150px"
	 height="150px" viewBox="645.365 137.8 150 150" style="enable-background:new 645.365 137.8 150 150;" xml:space="preserve">
<g id="Layer_3">
</g>
<g id="photos">
	<circle style="fill:#002A5B;" cx="720.365" cy="212.8" r="75"/>
</g>
<g id="Layer_1">
	<g>
		<polygon style="fill:#000E1E;" points="726.418,165.608 726.418,158.774 714.738,158.774 714.738,165.608 676.749,165.608 
			676.749,173.215 714.738,173.215 714.738,260.329 697.202,260.329 697.202,267.938 743.951,267.938 743.951,260.329 
			726.418,260.329 726.418,173.215 764.407,173.215 764.407,165.608 		"/>
		<path style="fill:#000E1E;" d="M676.749,231.511c11.043,0,19.992-5.2,19.992-11.601l-19.992-46.693l-19.984,46.693
			C656.765,226.311,665.711,231.511,676.749,231.511 M676.749,180.962l16.676,38.948h-33.346L676.749,180.962z"/>
		<path style="fill:#000E1E;" d="M764.407,173.215l-19.992,46.697c0,6.398,8.949,11.599,19.992,11.599
			c11.033,0,19.983-5.2,19.983-11.599L764.407,173.215z M747.731,219.912l16.676-38.95l16.666,38.95H747.731z"/>
		<path style="fill:#000E1E;" d="M678.336,216.859l-2.861-7.868c-3.167,0.355-5.687,0.072-7.564-0.849
			c-1.877-0.932-3.181-2.411-3.921-4.438c-0.748-2.058-0.606-4.062,0.42-6.015c1.032-1.956,2.782-3.504,5.264-4.646l-0.683-1.858
			l3.23-1.176l0.679,1.86c2.444-0.627,4.57-0.629,6.375-0.014c1.805,0.61,3.241,1.787,4.312,3.522l-5.409,2.673
			c-0.878-1.355-2.138-2.032-3.769-2.032l2.674,7.342c3.863-0.484,6.673-0.312,8.441,0.518c1.759,0.825,3.014,2.252,3.751,4.28
			c0.824,2.266,0.707,4.477-0.358,6.618c-1.059,2.146-2.975,3.918-5.741,5.324l1.278,3.514l-3.228,1.177l-1.244-3.421
			c-2.666,0.669-5.047,0.624-7.147-0.146c-2.092-0.769-3.81-2.308-5.152-4.609l5.619-2.644c0.604,0.913,1.364,1.619,2.282,2.105
			C676.501,216.569,677.421,216.83,678.336,216.859 M671.157,197.134c-0.781,0.57-1.326,1.254-1.624,2.042
			c-0.302,0.788-0.321,1.547-0.057,2.275c0.242,0.662,0.703,1.194,1.384,1.589c0.686,0.399,1.568,0.596,2.664,0.594L671.157,197.134
			z M681.664,215.948c1.049-0.579,1.796-1.347,2.241-2.294c0.442-0.95,0.496-1.893,0.152-2.831c-0.303-0.837-0.86-1.461-1.665-1.852
			c-0.809-0.395-1.937-0.513-3.396-0.345L681.664,215.948z"/>
		<path style="fill:#000E1E;" d="M759.044,217.879l-1.146-3.146c-1.265,0.143-2.275,0.029-3.026-0.341
			c-0.748-0.372-1.271-0.963-1.566-1.774c-0.3-0.825-0.243-1.623,0.168-2.406c0.411-0.781,1.113-1.401,2.104-1.86l-0.271-0.739
			l1.293-0.472l0.269,0.742c0.978-0.248,1.832-0.251,2.551-0.005c0.723,0.246,1.299,0.716,1.725,1.409l-2.162,1.069
			c-0.354-0.543-0.854-0.812-1.508-0.812l1.069,2.938c1.545-0.193,2.67-0.127,3.374,0.207c0.705,0.328,1.208,0.899,1.502,1.712
			c0.331,0.904,0.282,1.789-0.142,2.646s-1.19,1.568-2.298,2.13l0.512,1.406l-1.294,0.467l-0.495-1.366
			c-1.067,0.269-2.021,0.251-2.858-0.056c-0.839-0.311-1.524-0.923-2.061-1.847l2.247-1.058c0.24,0.367,0.544,0.648,0.914,0.843
			C758.311,217.763,758.677,217.868,759.044,217.879 M756.17,209.99c-0.311,0.227-0.528,0.502-0.649,0.813
			c-0.12,0.317-0.126,0.622-0.021,0.912c0.097,0.265,0.282,0.479,0.554,0.636c0.276,0.16,0.627,0.238,1.063,0.238L756.17,209.99z
			 M760.374,217.515c0.423-0.23,0.72-0.537,0.899-0.917c0.174-0.381,0.195-0.756,0.059-1.133c-0.12-0.337-0.344-0.583-0.669-0.741
			c-0.321-0.154-0.772-0.203-1.357-0.137L760.374,217.515z"/>
		<path style="fill:#000E1E;" d="M768.688,217.423l1.146-3.146c-1.062-0.705-1.76-1.439-2.101-2.204
			c-0.333-0.77-0.353-1.557-0.058-2.368c0.301-0.823,0.856-1.4,1.675-1.734s1.753-0.36,2.806-0.072l0.273-0.744l1.29,0.472
			l-0.271,0.741c0.91,0.439,1.563,0.986,1.96,1.637c0.394,0.651,0.529,1.382,0.413,2.188l-2.342-0.574
			c0.076-0.639-0.137-1.168-0.635-1.59l-1.067,2.938c1.307,0.845,2.124,1.62,2.449,2.328c0.33,0.705,0.348,1.466,0.052,2.276
			c-0.331,0.906-0.934,1.555-1.81,1.938c-0.878,0.384-1.922,0.436-3.132,0.153l-0.509,1.405l-1.294-0.47l0.501-1.366
			c-0.991-0.48-1.707-1.11-2.154-1.885c-0.444-0.775-0.575-1.684-0.395-2.735l2.402,0.633c-0.05,0.438,0.002,0.848,0.158,1.234
			C768.199,216.862,768.417,217.182,768.688,217.423 M771.563,209.534c-0.392-0.027-0.73,0.045-1.025,0.208
			c-0.295,0.162-0.494,0.391-0.603,0.683c-0.095,0.266-0.09,0.545,0.017,0.844c0.107,0.298,0.327,0.586,0.664,0.866L771.563,209.534
			z M769.943,218c0.472,0.091,0.896,0.051,1.277-0.126c0.38-0.179,0.639-0.453,0.775-0.828c0.12-0.335,0.108-0.671-0.036-0.996
			c-0.148-0.329-0.462-0.655-0.949-0.98L769.943,218z"/>
		<path style="fill:#000E1E;" d="M763.739,207.096v-3.351c-1.239-0.3-2.149-0.751-2.729-1.354c-0.578-0.608-0.867-1.34-0.867-2.203
			c0-0.876,0.325-1.61,0.98-2.205c0.656-0.595,1.525-0.937,2.615-1.026v-0.788h1.373v0.788c1.002,0.102,1.805,0.39,2.396,0.867
			c0.595,0.477,0.975,1.116,1.14,1.915l-2.398,0.264c-0.147-0.631-0.526-1.055-1.138-1.278v3.125
			c1.519,0.347,2.552,0.794,3.101,1.349c0.551,0.553,0.824,1.259,0.824,2.122c0,0.966-0.346,1.779-1.039,2.439
			c-0.692,0.661-1.651,1.064-2.886,1.214v1.497h-1.373v-1.456c-1.096-0.112-1.982-0.458-2.669-1.03
			c-0.68-0.577-1.115-1.39-1.308-2.438l2.475-0.227c0.103,0.427,0.292,0.796,0.57,1.104
			C763.087,206.733,763.397,206.957,763.739,207.096 M763.739,198.699c-0.374,0.107-0.672,0.291-0.894,0.543
			c-0.222,0.254-0.33,0.538-0.33,0.85c0,0.282,0.101,0.544,0.302,0.786c0.203,0.242,0.508,0.437,0.922,0.587V198.699z
			 M765.112,207.207c0.473-0.074,0.857-0.258,1.156-0.558c0.297-0.296,0.445-0.642,0.445-1.044c0-0.354-0.126-0.664-0.373-0.922
			c-0.254-0.259-0.659-0.457-1.229-0.595V207.207z"/>
	</g>
</g>
<g id="work">
	<g>
		<g>
			<path style="fill:#47B5F1;" d="M721.396,201.826c5.865,0,10.535,1.646,14.008,4.938c3.472,3.293,5.208,7.803,5.208,13.531
				c0,6.779-2.089,11.994-6.267,15.646c-4.179,3.652-10.155,5.479-17.93,5.479c-6.752,0-12.202-1.093-16.353-3.279v-11.081
				c2.186,1.162,4.731,2.11,7.637,2.843c2.905,0.734,5.658,1.1,8.26,1.1c7.829,0,11.745-3.209,11.745-9.629
				c0-6.114-4.054-9.172-12.161-9.172c-1.467,0-3.085,0.146-4.855,0.436c-1.771,0.291-3.21,0.602-4.316,0.934l-5.105-2.738
				l2.283-30.921h32.912v10.874h-21.664l-1.121,11.912l1.453-0.291C716.815,202.021,718.905,201.826,721.396,201.826z"/>
		</g>
	</g>
</g>
</svg>
