<?xml version="1.0" encoding="utf-8"?>
<!-- Generator: Adobe Illustrator 16.0.4, SVG Export Plug-In . SVG Version: 6.00 Build 0)  -->
<!DOCTYPE svg PUBLIC "-//W3C//DTD SVG 1.1//EN" "http://www.w3.org/Graphics/SVG/1.1/DTD/svg11.dtd">
<svg version="1.1" xmlns="http://www.w3.org/2000/svg" xmlns:xlink="http://www.w3.org/1999/xlink" x="0px" y="0px" width="150px"
	 height="150px" viewBox="105.365 137.8 150 150" style="enable-background:new 105.365 137.8 150 150;" xml:space="preserve">
<style type="text/css">
<![CDATA[
	.st0{fill:#47B5F1;}
]]>
</style>
<g id="Layer_3">
</g>
<g id="photos">
</g>
<g id="work">
	<g>
		<path class="st0" d="M145.459,228.249l-4.852,8.908c-0.234,0.525-0.895,1.398-2.54,1.398c-2.016,0-5.396-1.271-7.573-2.201
			l-0.424,0.922l-3.295-1.521l0.428-0.921c-2.898-1.449-6.482-3.555-7.145-5.369l-0.266-1l0.266-0.709l3.705-9.556
			c-3.809,2.413-7.102,7.675-11.246,16.106l-4.705,9.906c-0.398,0.875-0.793,1.76-1.234,2.665l28.135,13.017
			c0.428-0.914,0.822-1.805,1.235-2.662l4.516-9.985C144.211,238.624,146.092,232.722,145.459,228.249 M136.438,249.972
			l-3.504,7.587l-23.428-10.844l3.511-7.587c0.999-2.129,3.591-3.234,6.833-3.234c2.428,0,5.234,0.629,8.012,1.904
			C134.331,240.796,138.184,246.239,136.438,249.972 M134.582,246.579c0.354,0.98,0.369,1.84,0.043,2.555l-2.658,5.766
			l-19.805-9.162l2.676-5.766c0.604-1.299,2.473-2.08,5.012-2.08c2.223,0,4.766,0.609,7.176,1.732
			C130.745,241.341,133.643,244.003,134.582,246.579 M139.921,218.887c0.687,0.294,1.406,0.483,2.157,0.542
			c0.121,0.713,0.162,1.439,0.09,2.183c2.074,1.282,3.322,2.349,3.1,2.8l-6.466,11.891c-0.367,0.783-4.425-0.327-9.101-2.475
			c-4.644-2.166-8.146-4.547-7.775-5.349l4.881-12.615c0.219-0.455,1.821-0.196,4.114,0.545c1.427-1.462,3.31-2.24,5.161-2.24
			c0.131,0.653,0.338,1.329,0.75,2.036c-1.266-0.229-2.572,0.152-3.703,0.984c1.131,0.433,2.336,0.942,3.57,1.521
			c1.248,0.582,2.411,1.16,3.457,1.733c-0.031-0.522-0.044-1.045-0.22-1.528C139.937,218.904,139.937,218.896,139.921,218.887
			 M187.99,220.935c-0.279,1.523,0.072,4.406,0.72,5.809l16.536,35.885c0.839,1.826,1.812,3.91,0.375,6.178
			c-0.857,1.316-2.344,2.135-3.916,2.135c-2.779,0-4.029-2.109-5.041-3.795l-20.438-34.348l-5.536,11.248
			c-1.294,2.629-3.87,6.375-5.856,8.5l-11.142,12.016c-1.452,1.557-2.583,2.777-4.719,2.777c-1.778,0-3.395-1.019-4.173-2.623
			c-1.296-2.715,0.28-4.676,1.674-6.402l10.996-13.631c1.178-1.461,2.732-4.445,3.248-6.264l4.088-14.264
			c0.588-2.093,1.281-5.822,1.457-7.98l1.808-21.922c-8.896,2.941-17.612,14.566-20.567,19.436
			c-1.252,2.034-2.311,3.797-4.953,3.802h-0.014c-1.617,0-3.146-0.87-3.972-2.277c-1.368-2.32-0.364-4.14,0.793-6.233
			c0.677-1.217,17.127-30.222,39.313-28.477c9.586,0.822,12.643,8.027,14.669,12.79c0.472,1.109,0.927,2.189,1.456,3.151
			l12.659,22.884c1.206,2.188,0.481,5.024-1.665,6.29c-2.162,1.273-4.877,0.676-6.199-1.44l-9.426-15.04L187.99,220.935z
			 M193.489,166.963c0.954,5.799-2.986,11.272-8.779,12.224c-5.804,0.955-11.272-2.988-12.214-8.781
			c-0.957-5.803,2.968-11.279,8.764-12.227C187.063,157.224,192.533,161.165,193.489,166.963"/>
		<path class="st0" d="M208.74,247.592h22.726v6.757l22.597-13.051l-22.597-13.04v6.749H208.74V247.592z"/>
	</g>
</g>
</svg>
