<?xml version="1.0" encoding="utf-8"?>
<!-- Generator: Adobe Illustrator 16.0.4, SVG Export Plug-In . SVG Version: 6.00 Build 0)  -->
<!DOCTYPE svg PUBLIC "-//W3C//DTD SVG 1.1//EN" "http://www.w3.org/Graphics/SVG/1.1/DTD/svg11.dtd">
<svg version="1.1" xmlns="http://www.w3.org/2000/svg" xmlns:xlink="http://www.w3.org/1999/xlink" x="0px" y="0px" width="150px"
	 height="150px" viewBox="-74.635 137.8 150 150" style="enable-background:new -74.635 137.8 150 150;" xml:space="preserve">
<style type="text/css">
<![CDATA[
	.st0{fill:#47B5F1;}
]]>
</style>

		<g>
			<path class="st0" d="M-29.486,166.346c0,5.256-4.261,9.517-9.514,9.517c-5.271,0-9.532-4.261-9.532-9.517
				c0-5.265,4.261-9.53,9.532-9.53C-33.747,156.816-29.486,161.081-29.486,166.346z"/>
			<path class="st0" d="M-38.001,231.563l2.041,35.137c0,1.235,1.009,2.232,2.241,2.232c1.235,0,2.233-0.997,2.233-2.232
				l1.906-35.137h6.209l-6.412-39.393l12.918,25.753c0.478,1.137,1.794,1.674,2.935,1.199c1.125-0.488,1.664-1.801,1.181-2.939
				c0,0-9.478-25.637-11.817-30.42c-2.332-4.766-4.64-7.675-13.532-7.675h-1.819c-8.87,0-11.184,2.909-13.524,7.675
				c-2.34,4.783-11.822,30.42-11.822,30.42c-0.487,1.139,0.052,2.451,1.176,2.939c1.141,0.475,2.458-0.062,2.936-1.199
				l12.927-25.753l-6.421,39.393h6.209l1.917,35.137c0,1.235,1.005,2.232,2.238,2.232c1.242,0,2.229-0.997,2.229-2.232l1.908-35.137
				H-38.001z"/>
		</g>
		<g>
			<path class="st0" d="M47.389,166.318c0,5.262-4.254,9.52-9.507,9.52c-5.275,0-9.529-4.258-9.529-9.52
				c0-5.263,4.254-9.518,9.529-9.518C43.134,156.8,47.389,161.055,47.389,166.318z"/>
			<path class="st0" d="M47.734,212.858l1.846,52.069c0.131,2.066-1.416,3.854-3.477,3.995c-0.081,0.01-0.168,0.01-0.257,0.01
				c-1.966,0-3.602-1.501-3.738-3.47l-4.238-40.266l-4.229,40.266c-0.144,1.969-1.79,3.47-3.734,3.47c-0.09,0-0.18,0-0.271-0.01
				c-2.06-0.142-3.607-1.929-3.465-3.995l1.829-52.069l-0.649-20.714l-11.615,25.76c-0.49,1.134-1.791,1.676-2.934,1.194
				c-1.136-0.479-1.668-1.796-1.188-2.938c0,0,8.176-25.642,10.517-30.414c2.342-4.775,5.954-7.676,14.831-7.676h1.818
				c8.886,0,12.498,2.9,14.838,7.676c2.327,4.772,10.505,30.414,10.505,30.414c0.489,1.143-0.043,2.459-1.176,2.938
				c-1.146,0.481-2.446-0.061-2.934-1.194l-11.617-25.76l-0.649,20.714H47.734z"/>
		</g>
		<g>
			<path class="st0" d="M5.272,220.532c0,3.226-2.611,5.84-5.839,5.84c-3.224,0-5.844-2.614-5.844-5.84c0-3.23,2.62-5.84,5.844-5.84
				C2.662,214.693,5.272,217.302,5.272,220.532z"/>
			<path class="st0" d="M-0.566,249.106c0,0-2.628,18.279-2.638,18.292c-0.343,0.894-1.195,1.534-2.216,1.534
				c-1.052,0-1.923-0.695-2.23-1.65c-0.036-0.052-0.088-1.127-0.036-1.317l1.068-22.453l-0.325-7.711
				c-0.302-2.625-0.365-1.844-3.336-3.624c-3.048-1.826-8.224-9.847-8.477-10.245c-0.241-0.4-0.719-1.11-0.807-1.562
				c-0.153-0.801,0.367-1.57,1.176-1.725c0.596-0.111,1.118,0.218,1.515,0.637c0.383,0.418,6.351,8.359,10.812,9.121
				c1.009-0.135,2.087-0.668,4.93-0.668h1.116c2.845,0,3.923,0.533,4.933,0.668c4.471-0.762,10.429-8.703,10.816-9.121
				c0.395-0.419,0.915-0.748,1.507-0.637c0.814,0.154,1.335,0.924,1.18,1.725c-0.082,0.452-0.56,1.162-0.808,1.562
				c-0.244,0.398-5.429,8.419-8.476,10.245c-2.97,1.78-3.033,0.999-3.331,3.624l-0.322,7.711l1.06,22.453
				c0.054,0.19,0,1.266-0.027,1.317c-0.316,0.955-1.188,1.65-2.241,1.65c-1.015,0-1.872-0.641-2.215-1.534
				C2.06,267.385-0.566,249.106-0.566,249.106"/>
		</g>


</svg>
