<?xml version="1.0" encoding="utf-8"?>
<!-- Generator: Adobe Illustrator 16.0.4, SVG Export Plug-In . SVG Version: 6.00 Build 0)  -->
<!DOCTYPE svg PUBLIC "-//W3C//DTD SVG 1.1//EN" "http://www.w3.org/Graphics/SVG/1.1/DTD/svg11.dtd">
<svg version="1.1" xmlns="http://www.w3.org/2000/svg" xmlns:xlink="http://www.w3.org/1999/xlink" x="0px" y="0px" width="150px"
	 height="150px" viewBox="465.365 137.8 150 150" style="enable-background:new 465.365 137.8 150 150;" xml:space="preserve">
<style type="text/css">
<![CDATA[
	.st0{fill:#47B5F1;}
]]>
</style>
<g id="Layer_3">
</g>
<g id="photos">
	<path class="st0" d="M540.009,156.892c-31.286,0-56.644,25.357-56.644,56.639s25.357,56.641,56.644,56.641
		c31.278,0,56.637-25.359,56.637-56.641S571.287,156.892,540.009,156.892z M567.041,230.374c0,12.483-8.672,19.97-21.473,21.203
		v9.689h-12.1v-10.275c-7.61-1.421-14.936-4.826-21.033-10.27l8.969-10.742c6.211,5.125,12.719,8.379,20.604,8.379
		c6.209,0,9.954-2.465,9.954-6.508v-0.197c0-3.842-2.366-5.816-13.897-8.773c-13.9-3.545-22.869-7.391-22.869-21.092v-0.196
		c0-10.697,7.343-18.292,18.273-20.277v-12.089h12.1v12.002c7.411,1.034,13.899,3.92,19.406,8.34l-7.887,11.434
		c-6.111-4.238-12.12-6.801-17.938-6.801c-5.818,0-8.875,2.66-8.875,6.014v0.195c0,4.533,2.957,6.012,14.884,9.068
		c13.999,3.646,21.882,8.671,21.882,20.696V230.374z"/>
</g>
<g id="work">
</g>
</svg>
