<?xml version="1.0" encoding="utf-8"?>
<!-- Generator: Adobe Illustrator 16.0.4, SVG Export Plug-In . SVG Version: 6.00 Build 0)  -->
<!DOCTYPE svg PUBLIC "-//W3C//DTD SVG 1.1//EN" "http://www.w3.org/Graphics/SVG/1.1/DTD/svg11.dtd">
<svg version="1.1" xmlns="http://www.w3.org/2000/svg" xmlns:xlink="http://www.w3.org/1999/xlink" x="0px" y="0px" width="150px"
	 height="150px" viewBox="285.365 137.8 150 150" style="enable-background:new 285.365 137.8 150 150;" xml:space="preserve">
<style type="text/css">
<![CDATA[
	.st0{fill:#47B5F1;}
]]>
</style>
<g id="Layer_3">
</g>
<g id="photos">
	<g>
		<path class="st0" d="M388.227,194.521c0.35,1.107,0.815,3.935,0.76,4.779c-0.061,0.851,1.711,0.816,2.162,0.76
			c0.453-0.059,2.077-0.582,2.137-1.166c0.062-0.586-0.173-3.324-0.523-3.441c-0.348-0.118-1.221-0.877-0.989-2.16
			c0.233-1.28,0.117-3.322-0.114-3.497c-0.23-0.174-1.338-0.673-1.516-0.29c0,0-1.101,1.689-1.62,1.98
			C387.996,191.781,387.88,193.413,388.227,194.521z"/>
		<path class="st0" d="M413.506,214.238l-3.779,4.312l-1.571,3.677c0,0-1.274,0.231-2.614-1.228
			c-0.952-1.037-0.695-4.027-1.219-6.123c-0.524-2.102-3.664-4.199-4.707-5.426c-1.046-1.223-4.359-0.871-5.58-0.871
			c-1.219,0-3.836-3.152-3.836-3.152l-0.715,0.258l2.455,4.236l3.143-0.119c0,0,3.605,1.752,2.734,3.676
			c-0.462,1.02-3.185,1.166-5.753,3.146c-3.776,2.92-6.046,2.801-6.046,2.801s-1.687-3.146-3.195-7.52
			c-0.708-2.041-2.424-3.994-2.73-4.555c-0.09-0.151-0.202-0.312-0.312-0.473c-0.268,0.988-0.178,2.508,0.395,3.799
			c0.699,1.576,2.881,6.039,3.316,7.173c0.435,1.138-0.264,4.394-0.264,4.394s1.835,0.418,2.268,0
			c0.436-0.424,2.617-0.456,2.963-0.979c0.352-0.529,2.355-1.402,2.617-1.227c0.258,0.176-0.174,1.227-1.481,4.896
			c-1.306,3.678-3.137,3.678-4.009,4.815c-0.871,1.136-2.092,2.011-2.967,2.621c-0.873,0.616,0.086,4.377,0,6.038
			c-0.088,1.662-1.307,2.797-2.524,4.114c-1.222,1.312-3.666,3.235-4.797,4.372c-1.132,1.138-2.003,3.236-2.614,3.936
			c-0.609,0.7-4.709,1.838-5.668,1.489c-0.957-0.352-1.656-0.089-1.568-0.874c0.09-0.789-2.438-3.237-2.838-4.027
			c-0.393-0.783-1.521-3.148-1.697-4.896c-0.174-1.75,0.963-3.237,1.571-4.723c0.612-1.493-1.132-2.979-1.571-3.768
			c-0.435-0.788-0.959-2.976-1.481-4.283c-0.522-1.315-1.222-2.538-1.831-3.062c-0.607-0.525-2.699-0.613-3.66-0.613
			c-0.959,0-2.703,0.699-3.224,1.051c-0.522,0.347-4.798-0.264-5.581-1.051c-0.786-0.789-2.879-2.973-4.447-3.832
			c-1.565-0.86-1.565-4.654-1.655-6.232c-0.087-1.572,0.351-5.246,0.874-7.432c0.522-2.188,2.529-2.365,3.225-3.586
			c0.7-1.227,2.004-2.537,2.354-3.237c0.349-0.702,1.655-0.614,2.524-1.052c0.873-0.438,1.486,0,1.486,0
			c0-0.521,2.177-1.488,2.177-1.488s6.627-0.611,7.585-0.697c0.959-0.088,1.134,1.486,1.134,1.486s0.352,3.324,1.749,3.674
			c1.389,0.35,3.921-0.524,4.096-0.785c0.172-0.264,7.756,1.049,8.455,0.785c0.695-0.262,3.291-0.401,4.173-0.65l0.767-0.224
			l-0.289-3.031c0,0-1.611,0.173-2.913-0.118c-1.208-0.273-2.61-0.175-2.61-0.175s-0.514-1.73-1.034-3.481
			c-0.526-1.746,5.625-0.775,5.625-0.775s2.321,0.311,3.894,0.138c1.563-0.175,1.336-1.418,0.815-2.646
			c-0.525-1.221-5.289-2.857-5.289-2.857s-0.233-0.113-2.442,0c-2.208,0.117-2.102,4.431-2.102,4.431l-1.965,0.284
			c0,0-0.092,1.033-0.698,2.183c-0.694,1.323-2.268,1.036-2.268,1.036s-1.745-0.699-0.991-3.211
			c0.459-1.514-2.264-2.798-2.438-3.324c-0.174-0.521-2.554-0.581-2.554-0.581l-0.414,0.231l3,3.297l0.896,2.127l-1.627-0.059
			c0,0-1.426,1.576-1.743,1.4c-0.526-0.293-0.283-1.829-0.526-2.738c-0.81-3.092-3.949-3.502-3.949-3.502s-1.166,0.948-1.861,0.992
			c-0.307,0.018-1.258-0.271-1.92,0.059c-1.069,0.531-1.674,2.18-2.322,3.032c-0.148,0.197-0.273,0.624-0.348,0.815
			c-0.929,2.507-2.875,1.426-4.242,1.748c-0.988,0.236-2.803-0.639-2.803-0.639s-0.081-3.006,0.047-5.168
			c0.031-0.56,1.346-0.133,2.699-0.143c1.049-0.005,2.103,0.058,2.557,0.058c1.047,0,0.115-0.351,0.641-1.4
			c0.52-1.046-0.876-1.632-0.876-1.632s-2.265-0.174-2.265-0.873c0-0.512-0.586-0.838,0.637-0.994
			c0.453-0.055,2.465-0.243,2.791-0.291c0.547-0.074,0.956-1.002,1.514-1.225c0.676-0.268,1.857-0.335,1.857-0.814
			c0-0.874,3-1.4,3-1.4s0.82-1.324,0.486-2.446c-0.488-1.635,1.396-2.449,1.396-2.449l1.859,2.74l5.697-0.133
			c0,0,0.639-0.686,0.988-1.949c0.348-1.265,3.076-1.438,3.255-2.294c0.438-2.131-1.378-1.221-2.268-1.749
			c-0.444-0.264,0.231-0.899-0.118-0.854c-0.572,0.077-1.543-0.534-2.031,0.269c-0.4,0.655-0.302,2.652-0.932,3.441
			c-1.395,1.749-4.01,1.4-4.184,0c-0.176-1.4,0.412-4.814,0-2.975c-0.696,3.094-4.88,2.041-4.88,2.041s-1.548-1.4-0.468-2.623
			c1.08-1.227,1.452-1.812,2.152-1.984c0.695-0.176,0.346-1.632,3.139-2.684c2.787-1.048,10.43-2.361,12-2.012
			c1.367,0.305,8.572-3.713,15.609-3.434c-8.355-4.982-18.105-7.854-28.512-7.854c-13.109,0-25.18,4.551-34.729,12.154
			c0.246,0.322,0.57,0.551,0.99,0.621c2.095,0.35,3.312,5.319,1.918,7.421c-1.393,2.099-5.054,6.052-5.403,7.103
			c-0.352,1.049-2.095,4.373-3.835,3.324c-1.744-1.053-0.352-8.398-0.352-8.398l-3.312,2.447c0,0-6.101,4.199-1.903,11.199
			c4.195,6.999,1.732,7.35,1.732,7.35s-7.498,3.32-10.289,6.82c-0.12,0.148-0.296,0.357-0.515,0.611
			c-0.173,1.815-0.269,3.652-0.269,5.512c0,3.156,0.264,6.248,0.767,9.259c1.021,2.202,1.652,3.671,2.638,4.04
			c2.789,1.048,6.626,4.199,6.626,4.199l3.493,8.4l5.236,1.747l4.547,2.973l-1.889,7.526l-2.57,3.746
			c9.902,8.872,23.066,14.275,37.351,14.275c30.86,0,56.196-25.195,56.196-56.166c0-0.041,0-0.076,0-0.121L413.506,214.238z
			 M346.588,175.155c0.291-0.292,0.787-1.343,0.787-1.343v-2.564c0-1.807,3.049-1.924,2.995-1.838
			c-0.056,0.084,0.894,1.373,0.778,2.074c-0.117,0.699,0.99,2.915,0.99,2.915l1.744,1.491c0,0-0.756,1.717-0.637,2.181
			c0.112,0.47,0.521,0.411-0.119,0.47c-0.639,0.055-1.104,1.34-1.979,1.806c-0.869,0.466-2.904-0.059-3.136-0.29
			c-0.231-0.234-1.044-0.7-1.044-0.7s-0.045-1.634-0.219-2.159C346.574,176.672,346.297,175.445,346.588,175.155z M344.002,176.55
			c0.178-0.464,0.156-1.047,0.484-1.223c0.332-0.176,0.854-1.049,1.03-0.7l0.284,1.11c0,0,0.031,0.09,0.07,0.24
			c0.176,0.616,0.598,2.218,0.456,2.502c-0.173,0.35-1.841,0.582-1.839,0.578l-1.064-0.289
			C343.424,178.769,343.831,177.019,344.002,176.55z"/>
	</g>
</g>
<g id="work">
</g>
</svg>
