<?xml version="1.0" encoding="utf-8"?>
<!-- Generator: Adobe Illustrator 16.0.4, SVG Export Plug-In . SVG Version: 6.00 Build 0)  -->
<!DOCTYPE svg PUBLIC "-//W3C//DTD SVG 1.1//EN" "http://www.w3.org/Graphics/SVG/1.1/DTD/svg11.dtd">
<svg version="1.1" xmlns="http://www.w3.org/2000/svg" xmlns:xlink="http://www.w3.org/1999/xlink" x="0px" y="0px" width="150px"
	 height="150px" viewBox="465.365 137.8 150 150" style="enable-background:new 465.365 137.8 150 150;" xml:space="preserve">
<g id="Layer_3">
</g>
<g id="photos">
</g>
<g id="Layer_1">
</g>
<g id="work">
	<g>
		<circle style="fill:#002A5B;" cx="540.429" cy="212.8" r="75"/>
		<path style="fill:#000E1E;" d="M530.242,190.852l-56.42,56.412c6.668,12.859,16.943,23.537,29.495,30.701l57.026-57.013
			l22.447,22.425v-74.951h-75.012L530.242,190.852z"/>
	</g>
	<g>
		<g>
			<path style="fill:#47B5F1;" d="M562.918,228.015h-7.305v12.576H543.08v-12.576h-25.898v-8.923l26.604-39.18h11.828v38.142h7.305
				V228.015z M543.08,218.054v-10.293c0-1.715,0.068-4.205,0.207-7.471c0.138-3.264,0.249-5.16,0.332-5.686h-0.332
				c-1.024,2.27-2.256,4.482-3.693,6.641l-11.123,16.809H543.08z"/>
		</g>
	</g>
</g>
</svg>
