<?xml version="1.0" encoding="utf-8"?>
<!DOCTYPE svg PUBLIC "-//W3C//DTD SVG 1.1//EN" "http://www.w3.org/Graphics/SVG/1.1/DTD/svg11.dtd">
<svg version="1.1" id="Layer_1" xmlns="http://www.w3.org/2000/svg" xmlns:xlink="http://www.w3.org/1999/xlink" x="0px" y="0px"
	  viewBox="0 0 36 36" enable-background="new 0 0 36 36" xml:space="preserve">

	<path fill="#fff" d="M36,0H0v29.934C0.574,30,1.157,30.035,1.748,30.035c3.46,0,6.645-1.182,9.172-3.162
		c-3.2-0.029-5.961-2.229-6.9-5.129c0.45,0.086,0.913,0.133,1.389,0.133c0.674,0,1.325-0.092,1.945-0.26
		c-3.4-0.643-5.9-3.642-5.9-7.242c0-0.038,0-0.069,0.001-0.1C2.45,14.828,3.59,15.16,4.8,15.199c-2-1.347-3.3-3.547-3.3-6.147
		c0-1.341,0.364-2.61,1-3.7C6.1,9.8,11.592,12.8,17.714,13.083c-0.1-0.583-0.2-1.083-0.2-1.683c0-4.093,3.308-7.4,7.386-7.4
		C27,4,28.969,4.9,30.3,6.333C32,6,33.578,5.4,35.006,4.539c-0.552,1.725-1.724,3.172-3.248,4.087
		C33.252,8.447,34.675,8.05,36,7.463l0,0V0z"/>
	<path fill="#fff" d="M36,7.463C35,8.9,33.757,10.2,32.277,11.28c0.014,0.316,0.021,0.635,0.021,0.955
		c0,9.76-7.429,21.014-21.014,21.014C7.191,33.23,3.266,32.034,0,29.939V36h36V7.463L36,7.463z"/>

</svg>
