<?xml version="1.0" encoding="utf-8"?>
<!-- Generator: Adobe Illustrator 16.0.4, SVG Export Plug-In . SVG Version: 6.00 Build 0)  -->
<!DOCTYPE svg PUBLIC "-//W3C//DTD SVG 1.1//EN" "http://www.w3.org/Graphics/SVG/1.1/DTD/svg11.dtd">
<svg version="1.1" id="Layer_1" xmlns="http://www.w3.org/2000/svg" xmlns:xlink="http://www.w3.org/1999/xlink" x="0px" y="0px"
	 width="36px" height="36px" viewBox="0 0 36 36" enable-background="new 0 0 36 36" xml:space="preserve">
<g>
	<path fill="#FFFFFF" d="M0,0v36h36V0H0z M18,35C8.6,35,1,27.4,1,18C1,8.6,8.6,1,18,1c9.4,0,17,7.6,17,17C35,27.4,27.4,35,18,35z"/>
	<path fill="#FFFFFF" d="M20,28.8c-0.7,0-1.2-0.1-1.5-0.3s-0.4-0.7-0.4-1.3c0-0.3,0-0.601,0.1-1.101c0.1-0.5,0.2-0.899,0.3-1.3
		l1.4-4.8c0.1-0.4,0.199-0.9,0.3-1.5c0.1-0.6,0.1-0.9,0.1-1.1c0-1-0.399-1.8-1.1-2.5c-0.7-0.6-1.7-1-3.1-1c-0.7,0-1.5,0.1-2.3,0.4
		c-0.8,0.3-1.7,0.6-2.6,0.9l-0.4,1.5c0.3-0.1,0.6-0.2,1-0.3c0.4-0.1,0.7-0.2,1.1-0.2c0.7,0,1.2,0.1,1.5,0.4c0.3,0.2,0.4,0.7,0.4,1.3
		c0,0.3,0,0.7-0.1,1.1c-0.1,0.4-0.2,0.9-0.3,1.3L13,25.2c-0.1,0.5-0.2,1-0.3,1.399c-0.1,0.4-0.1,0.801-0.1,1.2c0,1,0.4,1.8,1.1,2.5
		c0.7,0.601,1.8,1,3.1,1c0.9,0,1.6-0.1,2.3-0.3c0.7-0.2,1.5-0.6,2.601-1l0.399-1.5c-0.199,0.1-0.5,0.2-0.899,0.3
		C20.7,28.7,20.4,28.8,20,28.8z"/>
	<path fill="#FFFFFF" d="M19.2,5c-0.9,0-1.7,0.3-2.3,0.9s-1,1.3-1,2.2c0,0.8,0.3,1.6,1,2.1c0.6,0.6,1.4,0.9,2.3,0.9
		c0.899,0,1.7-0.3,2.3-0.9c0.6-0.6,1-1.3,1-2.1c0-0.8-0.3-1.6-1-2.2S20.1,5,19.2,5z"/>
</g>
</svg>
