<?xml version="1.0" encoding="utf-8"?>
<!-- Generator: Adobe Illustrator 16.0.4, SVG Export Plug-In . SVG Version: 6.00 Build 0)  -->
<!DOCTYPE svg PUBLIC "-//W3C//DTD SVG 1.1//EN" "http://www.w3.org/Graphics/SVG/1.1/DTD/svg11.dtd">
<svg version="1.1" id="Layer_1_1_" xmlns="http://www.w3.org/2000/svg" xmlns:xlink="http://www.w3.org/1999/xlink" x="0px" y="0px"
	 width="500px" height="100px" viewBox="-249.635 162.8 500 100" enable-background="new -249.635 162.8 500 100"
	 xml:space="preserve">
<g>
	<g>
		<path fill="#47B5F1" d="M-202.638,202.501c0-4.98,4.047-9.006,9.008-9.006c4.973,0.014,8.988,4.029,8.988,9.006
			c0,4.97-4.02,8.979-8.988,8.997v-0.573v-0.577c4.354,0,7.862-3.505,7.862-7.847c0-4.353-3.516-7.863-7.862-7.863
			c-4.344,0.004-7.865,3.511-7.873,7.863c0.008,4.342,3.528,7.845,7.873,7.847v0.577v0.573
			C-198.591,211.498-202.638,207.479-202.638,202.501"/>
		<path fill="#47B5F1" d="M-209.797,202.501c0-8.92,7.23-16.177,16.167-16.177c8.914,0,16.164,7.251,16.164,16.177
			c0,8.907-7.25,16.152-16.164,16.158v-0.567v-0.569c8.268-0.018,15.014-6.75,15.027-15.021c-0.013-8.294-6.759-15.02-15.027-15.038
			c-8.297,0.019-15.006,6.744-15.025,15.038c0.019,8.271,6.728,15.004,15.025,15.021v0.569v0.567
			C-202.567,218.659-209.797,211.408-209.797,202.501"/>
		<path fill="#47B5F1" d="M-217.603,202.501c0-13.24,10.739-23.957,23.973-23.957c13.224,0,23.946,10.717,23.952,23.957
			c-0.005,13.22-10.728,23.941-23.952,23.941v-0.569v-0.569c12.596-0.019,22.792-10.209,22.81-22.803
			c-0.018-12.612-10.213-22.797-22.81-22.828c-12.606,0.031-22.807,10.216-22.831,22.828c0.024,12.594,10.225,22.784,22.831,22.803
			v0.569v0.569C-206.864,226.443-217.603,215.729-217.603,202.501"/>
		<path fill="#47B5F1" d="M-225.055,202.501c0-17.384,14.061-31.434,31.42-31.434c17.362,0,31.443,14.05,31.443,31.434
			c0,17.354-14.081,31.43-31.443,31.43v-0.571v-0.575c16.738-0.03,30.277-13.563,30.307-30.283
			c-0.029-16.748-13.568-30.271-30.307-30.301c-16.74,0.03-30.25,13.553-30.284,30.301c0.034,16.72,13.543,30.253,30.284,30.283
			v0.575v0.571C-210.994,233.931-225.055,219.855-225.055,202.501"/>
		<path fill="#47B5F1" d="M-233.305,202.501c0-21.916,17.761-39.693,39.67-39.701c21.91,0.008,39.675,17.785,39.675,39.701
			c0,21.91-17.765,39.674-39.675,39.674V241.6v-0.571c21.283-0.034,38.503-17.24,38.542-38.527
			c-0.039-21.287-17.26-38.521-38.542-38.564c-21.272,0.044-38.498,17.277-38.539,38.564c0.041,21.287,17.267,38.493,38.539,38.527
			v0.571v0.575C-215.543,242.175-233.305,224.411-233.305,202.501"/>
		<rect x="-194.215" y="163.375" fill="#47B5F1" width="1.144" height="30.692"/>
		<polygon fill="#47B5F1" points="-221.67,175.241 -220.865,174.443 -199.19,196.13 -199.999,196.938 		"/>
		<rect x="-232.743" y="201.938" fill="#47B5F1" width="30.673" height="1.124"/>
		<polygon fill="#47B5F1" points="-221.67,229.719 -199.999,208.074 -199.19,208.876 -220.865,230.53 		"/>
		<rect x="-194.215" y="210.921" fill="#47B5F1" width="1.144" height="30.671"/>
		<polygon fill="#47B5F1" points="-188.074,208.876 -187.266,208.074 -165.586,229.719 -166.392,230.533 		"/>
		<rect x="-185.202" y="201.938" fill="#47B5F1" width="30.667" height="1.131"/>
		<polygon fill="#47B5F1" points="-188.074,196.13 -166.392,174.443 -165.586,175.241 -187.266,196.938 		"/>
		<path fill="#47B5F1" d="M-199.659,205.041c0.349-0.04,0.286,0.263,0.4,0.453c0,0.01,0.093,0.01,0.146,0
			c0.517-0.56,0.844-1.224,0.965-1.999c0-0.059,0.155-0.128,0.155-0.152c-0.079-0.351-0.451-0.465-0.623-0.762
			c-0.195,0.52-0.715,0.1-1.113,0.35c-0.002,0.008-0.036,0.151,0.068,0.195c0.14,0.066,0.349,0.002,0.39,0.109
			c0.095,0.132,0.095,0.376-0.042,0.543c-0.019,0.046-0.132,0.035-0.132,0c-0.208-0.394-0.532-0.342-0.896-0.342
			c0.149,0.131-0.119,0.097-0.055,0.175c-0.506-0.136-0.995,0.104-1.485,0.153c-0.147,0.014-0.346-0.102-0.478-0.231
			c-0.174,0.183-0.382,0.55-0.66,0.447c-0.094-0.044-0.255-0.265-0.154-0.317c0.288-0.168,0.534-0.358,0.669-0.633
			c0.108-0.221,0-0.485,0.122-0.701c0.142-0.297,0.371-0.566,0.643-0.544c0.309,0,0.876,0.271,1.135-0.062
			c0.094-0.087,0.282,0.188,0.395,0.309c0.043,0.045-0.018,0.109-0.068,0.164c-0.182,0.188-0.482,0.207-0.585,0.484
			c-0.093,0.189,0.021,0.35,0.168,0.401c0.235,0.11,0.303-0.212,0.417-0.379c0.135-0.158,0.277-0.022,0.398,0
			c0-0.048-0.008-0.122,0-0.122c0.277-0.08,0.591-0.036,0.884-0.036c0.337,0,0.155-0.691,0.125-1.103c0-0.092-0.01-0.213,0-0.307
			c0-0.051,0-0.11,0.03-0.16c0.086-0.227,0.535-0.287,0.607-0.047c0.009,0.084,0.027,0.156,0.046,0.23
			c0.024,0.119,0.084,0.191,0.232,0.119c0.039-0.024,0.089-0.059,0.097-0.119c0.056-0.134,0.029-0.344,0.108-0.422
			c0.137-0.129,0.327,0.208,0.538,0.238c0.21,0.05,0.447,0.05,0.622-0.074c0.15-0.086,0.15-0.264,0.022-0.441
			c-0.046-0.08-0.177-0.092-0.196-0.061c-0.192,0.209-0.447,0.154-0.659,0.154c-0.203,0-0.298-0.24-0.465-0.358
			c-0.187-0.13-0.419,0.132-0.635,0.04c-0.203-0.092-0.306-0.293-0.187-0.484c0.049-0.089,0.187-0.174,0.305-0.243
			c0.246-0.132,0.546-0.132,0.684-0.347c0.108-0.193,0.169-0.434,0.188-0.654c0.021-0.124,0.137-0.124,0.208-0.138
			c0.292-0.103,0.628-0.03,0.886-0.157c0.293-0.113,0.52-0.368,0.813-0.566c0.139-0.08,0.271-0.16,0.437-0.199
			c0.08-0.025,0.126-0.166,0.146-0.223c0.054-0.494-0.089-0.951,0-1.467c0.035-0.139,0.245-0.229,0.137-0.373
			c-0.031-0.059-0.235,0.034-0.283-0.03c-0.113-0.099-0.213-0.292-0.048-0.393c0.128-0.116,0.407-0.011,0.499-0.194
			c0.167-0.236,0.082-0.682-0.182-0.762c-0.27-0.133-0.567,0.111-0.878,0.05c0.04,0.122-0.137,0.156-0.168,0.156
			c-0.383,0.13-0.414-0.339-0.347-0.602c0-0.054,0.04-0.092,0.077-0.065c0.089,0.012,0.107-0.109,0.124-0.225
			c-0.082,0-0.19-0.012-0.269,0c-0.336,0.168-0.483,0.525-0.818,0.693c-0.045,0.042-0.045,0.104-0.013,0.164
			c0.013,0.034,0.061,0.099,0.113,0.074c0,0.211,0.064,0.565-0.298,0.485c-0.026-0.017-0.026-0.095-0.055-0.104
			c-0.1-0.066-0.304-0.122-0.35,0c-0.056,0.242,0.429,0.348,0.313,0.59c-0.19,0.334-0.662,0.396-1.034,0.579
			c-0.791,0.307-1.622-0.044-2.467,0.132c-0.442,0.091-0.893,0.033-1.359-0.098c-0.331-0.062-0.394,0.225-0.568,0.445
			c-0.012-0.032-0.031-0.086-0.094-0.066c-0.024-0.174,0.082-0.301,0.03-0.475c-0.007-0.145-0.225-0.121-0.276-0.232
			c-0.55-1.045-1.889-0.913-2.906-0.74c-0.193,0.02-0.267,0.213-0.383,0.328c-0.213,0.188-0.496-0.023-0.722,0.127
			c-0.101,0.061-0.141,0.206-0.227,0.229c-0.316,0.078-0.635-0.229-0.9-0.066c-0.173,0.145-0.39,0.172-0.574,0.259
			c-0.067,0.048-0.067,0.187-0.087,0.312c0,0.085-0.164,0.068-0.205,0.068c-0.284,0.084-0.703-0.058-0.764,0.347h0.108
			c0.103,0.322-0.047,0.689-0.354,0.822c-0.362,0.118-0.754,0.088-1.093,0.229c-0.17,0.064-0.394,0.225-0.468,0.379
			c-0.543,0.98-1.066,1.986-1.103,3.102v0.124c0,0.076,0.116,0.144,0.116,0.169c-0.535,1.154-0.898,1.744-1.529,2.854
			c-0.256,0.451-0.563,1.542-0.108,1.911c0.235,0.192-0.118,0.651-0.455,0.674c-0.428,0.02-0.998-0.086-1.148-0.548
			c-0.085-0.206-0.435-0.24-0.705-0.274h0.04l-0.211-0.023c-0.312,0-0.653-0.068-0.918,0.023c-0.485,0.129-0.521,0.692-0.739,1.073
			c-0.15,0.349-0.709,0.262-0.877,0.583c-0.072,0.146,0.083,0.379-0.037,0.585c-0.084,0.131-0.269,0.131-0.322,0.291
			c-0.034,0.08-0.051,0.207-0.108,0.289c-0.122,0.442-0.206,0.85-0.103,1.299c0.01,0.126,0.01,0.255,0.048,0.337
			c0.111,0.467-0.038,0.874-0.242,1.251c-0.308,0.441-0.849,0.441-1.328,0.591c-0.204,0.091-0.455-0.118-0.699-0.063
			c-0.562,0.104-1.104-0.135-1.641,0.044c-0.023,0.02-0.126,0.092-0.169,0.132c-0.273,0.11-0.368-0.198-0.524-0.326
			c-0.161-0.16-0.179-0.445-0.349-0.531c-0.322-0.156-0.77,0.02-0.989,0.341c0.155-0.019-0.003,0.176,0.116,0.176
			c-0.354,0.015-0.617,0.319-0.902,0.451c-0.348,0.195-0.427-0.437-0.462-0.813c-0.036-0.187-0.348-0.311-0.611-0.171
			c-0.042,0.051-0.103,0.103-0.103,0.201c-0.079,0-0.145-0.099-0.234-0.03c-0.227,0.271,0.198,0.238,0.324,0.393
			c0.079,0.08-0.023,0.171-0.125,0.239c-0.11,0.098-0.301-0.104-0.314,0c-0.065,0.182-0.173,0.272-0.316,0.222
			c0,0.051-0.017,0.072,0,0.103c0,0.053,0.03,0.088,0.09,0.053c-0.131,0.054-0.269,0.14-0.37,0.058
			c-0.125-0.058-0.091-0.272-0.125-0.435c-0.03-0.041-0.169,0-0.169,0.05c-0.042,0.274,0.024,0.362-0.264,0.381
			c0.031,0.103-0.081,0.271,0.061,0.299c0.161,0.078,0.343-0.097,0.477,0c0.22,0.215,0.193,0.565,0.259,0.88
			c0,0.014-0.066,0.038-0.095,0.038c0.056,0.166,0.095,0.575-0.143,0.395c-0.295-0.164,0.046-0.581-0.12-0.834
			c-0.035-0.05-0.204-0.02-0.341-0.02c0.166,0.421-0.193,0.854,0.166,1.257c0.14,0.179-0.43,0.419-0.221,0.638
			c0.121,0.12,0.334,0.249,0.516,0.282c0.101,0.007,0-0.208,0.034-0.282c0.03-0.093,0.331-0.196,0.389-0.062
			c0.036,0.095,0.079,0.205,0.079,0.345c-0.137-0.033-0.282,0.036-0.401,0.085c0.119,0.267-0.055,0.457-0.101,0.711
			c0,0.057,0.086,0.159,0.101,0.225c0.071,0.205,0.406,0.021,0.508,0.187c0.079,0.139-0.15,0.289-0.078,0.478
			c0.065,0.118,0.263,0.046,0.345,0.156c0.129,0.072,0.082,0.238,0.068,0.391c0.127-0.018,0.331,0.123,0.272,0.287
			c0.153,0.062,0.182-0.11,0.171-0.219c0.329,0.017,0.197-0.307,0.235-0.569c-0.114,0.064-0.109-0.175-0.235-0.082
			c-0.077-0.183,0.01-0.379-0.077-0.543c-0.079-0.19-0.353-0.229-0.401-0.476c0.244,0.05,0.401-0.03,0.557-0.278
			c0.081-0.121,0.285,0.054,0.368,0.223c0.037,0.04,0.014,0.09,0.014,0.158c0.208-0.068,0.208,0.145,0.272,0.242
			c0.182,0.116,0.237,0.323,0.432,0.405c0.296,0.086,0.572,0.086,0.881,0.032c-0.024-0.131,0-0.281,0.079-0.321
			c0.132-0.116,0.198,0.135,0.364,0.15c-0.079,0.287,0.074,0.531,0.311,0.672c0.056,0.012,0.145-0.019,0.212,0.012
			c0.095,0.068,0.131,0.227,0.269,0.271c0.1,0.019,0.198-0.044,0.269-0.032c0.16,0.032,0.16,0.153,0.185,0.313
			c0.012,0.012,0.096,0.062,0.096,0.118c0.272-0.057,0.581,0.018,0.66,0.259c0.138,0.353,0.387,0.627,0.549,0.946
			c0.06,0.158,0.343,0.216,0.382,0.362c0.012,0.118,0.098,0.196,0.135,0.227c0.189,0.207,0.456,0.271,0.728,0.337
			c0.084,0.032,0.248-0.148,0.414-0.227c0.076-0.028,0.19,0.055,0.198,0.078c0.255,0.409,0.321,0.971,0.725,1.207
			c0.209,0.124,0.269,0.371,0.485,0.433c0.135,0.026,0.286-0.107,0.422,0c0.084,0.059,0.111,0.237,0.179,0.251
			c0.301,0.141,0.536,0.321,0.597,0.647c0.01,0.046,0.044,0.154,0.123,0.175c0.275,0.026,0.5-0.165,0.64-0.021
			c0.206,0.185,0.455,0.271,0.638,0.461c0.052,0.07,0.203,0.123,0.25,0.07c0.076-0.092,0.034-0.261,0.1-0.347
			c0.074-0.152,0.272-0.103,0.419-0.152c0.18-0.068,0.198-0.407,0.389-0.423c0.332-0.056,0.469,0.354,0.733,0.514
			c0.018,0.031,0.127,0.062,0.167,0.098c0.292,0.154,0.161,0.684,0.508,0.726c0.41,0,0.628,0.369,0.994,0.428
			c0.278,0.088,0.498,0.162,0.744,0.307c0.087,0.062,0.228,0.062,0.323,0.023c0.155-0.056,0.287-0.134,0.423-0.221
			c0.354-0.22,0.81-0.238,1.169-0.473c0.076-0.057,0.151-0.156,0.255-0.194c0.588-0.259,1.248,0.227,1.856-0.099
			c0.162-0.066,0.367-0.066,0.546-0.187c0.373-0.261,0.483-0.788,0.365-1.192c-0.26-0.649-0.485-1.325-0.939-1.883
			c-0.216-0.276-0.509-0.429-0.778-0.71c-0.041-0.078-0.248-0.058-0.373-0.11c-0.24-0.105-0.208-0.396-0.154-0.633
			c0-0.087-0.275-0.087-0.307-0.171c-0.09-0.158,0-0.337,0.019-0.489c0.01-0.074-0.09-0.136-0.109-0.136
			c-0.347-0.068-0.664-0.229-1.018-0.177c-0.113,0.017-0.216-0.104-0.322-0.17c-0.061-0.051,0.019-0.169,0.068-0.192
			c0.201-0.165,0.443-0.289,0.697-0.382c-0.09-0.126-0.109-0.314-0.021-0.366c0.128-0.129,0.1-0.373,0.051-0.51
			c0-0.05-0.051-0.164-0.186-0.164c0.027-0.331,0.215-0.583,0.027-0.872c-0.213-0.276-0.495-0.438-0.569-0.786
			c0-0.036-0.17-0.12-0.17-0.181c0-0.395,0.121-0.834,0.041-1.234c-0.064-0.175-0.255-0.377-0.103-0.483
			c0.062-0.052,0.211-0.162,0.341-0.188c0.276-0.104,0.374-0.295,0.235-0.489c-0.143-0.192-0.425,0-0.633-0.062
			c-0.095-0.03-0.114-0.097-0.127-0.187c-0.04-0.165,0.127-0.423-0.023-0.514c-0.13-0.042-0.246-0.168-0.307-0.259
			c-0.131-0.206-0.024-0.431,0.122-0.633c-0.079,0.008-0.042-0.161-0.146-0.106c-0.028-0.213,0.126-0.455,0.037-0.638
			c-0.065-0.196-0.227-0.431-0.461-0.325c-0.032,0,0,0.07-0.032,0.07c-0.119,0.118-0.266,0.152-0.401,0.04
			c-0.029-0.04-0.029-0.156,0-0.248c0.092-0.118,0.282-0.07,0.388-0.158c0.19-0.192,0.013-0.451-0.069-0.558
			c-0.287-0.255-0.408-0.478-0.348-0.834c-0.33-0.05-0.836-0.088-0.817-0.556c0.027-0.405-0.068-0.781-0.169-1.196
			c-0.079-0.289-0.063-0.594,0.125-0.804c0.045-0.064,0.109-0.182,0.199-0.189c0.423-0.062,0.951,0.03,1.188-0.371
			c0.153-0.29-0.177-0.737,0.082-0.928c0.424-0.328,1.086-0.107,1.618-0.412c0.158-0.121,0.135-0.35,0.091-0.527
			c-0.077-0.207-0.203-0.418-0.316-0.607c-0.18-0.27-0.604-0.135-0.728-0.418c-0.055-0.158-0.055-0.316,0-0.449
			c0.095-0.21,0.274-0.4,0.493-0.503c0.474-0.19,0.931-0.046,1.342,0.187c0.131,0.076,0.252,0.217,0.339,0.363
			c0.032,0.05,0.051,0.126,0.08,0.184c0.122,0.541,0.312,1.121,0.122,1.612c-0.083,0.167-0.288,0.271-0.229,0.533
			c0.137-0.112,0.185,0.062,0.185,0.11c0.097,0.363,0.319,0.876,0,1.107c-0.398,0.244-0.365-0.083-0.779,0
			c-0.203,0.023-0.364-0.033-0.334,0.149c0.013,0.112,0.163,0.354,0.271,0.386c0.957,0.246,1.458,0.32,2.466,0.486
			c0.214,0.046,0.377,0.301,0.627,0.335c0.185,0.03,0.396,0.13,0.604-0.122c0.065-0.086,0.255,0,0.282,0.056
			c0.047,0.196,0.167,0.196,0.293,0.265c0.305,0.15,0.205,0.931,0.611,0.674c0.222-0.141,0.412,0.017,0.651-0.03
			c-0.239,0.331-0.115,0.666,0.122,0.904c0.189,0.234,0.465,0.341,0.699,0.558c0.169,0.212,0.467,0.16,0.496-0.131
			c0.046-0.309-0.286-0.665,0.109-0.936c0.367,0.541-0.109,1.211,0.289,1.702c0.024,0.048,0.048,0.072,0.071,0.118
			c0.18,0.225,0.331,0.463,0.571,0.435c0.176-0.058,0.242-0.227,0.334-0.409c0.003-0.071,0.035-0.144,0.053-0.158
			c0.024-0.172,0.1-0.29,0.147-0.442c0.084-0.233,0.385-0.428,0.333-0.704c0-0.088-0.027-0.204-0.027-0.271
			c0.027-0.379,0.443-0.619,0.797-0.556c0.106,0.022,0.019-0.063,0.122-0.134c0.151-0.118,0.118-0.47,0.261-0.647
			c0.115-0.155,0.253-0.305,0.334-0.46c0.061-0.096,0.174-0.212,0.125-0.347C-199.792,205.243-199.792,205.058-199.659,205.041"/>
		<path fill="#47B5F1" d="M-210.988,204.39c-0.15-0.108-0.274-0.028-0.371,0.08c-0.101,0.098-0.12,0.229-0.048,0.314
			c0.071,0.119,0.145,0.277,0.16,0.401c0,0.271-0.065,0.529-0.024,0.823c0.066,0.215,0.317,0.602,0.457,0.35
			c0.16-0.281,0.405-0.704,0.213-1.041C-210.751,204.997-210.654,204.582-210.988,204.39"/>
		<path fill="#47B5F1" d="M-211.521,206.755c0.042,0.103,0.09,0.171,0.127,0.274c0.083,0.221,0.44,0.117,0.572-0.038
			c0.019-0.088,0-0.236-0.1-0.316c-0.098-0.118-0.259-0.097-0.349-0.154c-0.065-0.022-0.136-0.092-0.189-0.072
			C-211.541,206.521-211.541,206.653-211.521,206.755"/>
		<path fill="#47B5F1" d="M-210.881,207.814c0-0.409-0.366-0.535-0.641-0.288c-0.344,0.288,0.061,0.813,0.328,1.19
			c0.036,0.09,0.086,0.21,0.139,0.312c0.126,0.131,0.371,0.084,0.457-0.072c0.063-0.138,0.113-0.185,0.189-0.328
			C-210.306,208.339-210.474,207.814-210.881,207.814"/>
		<path fill="#47B5F1" d="M-211.691,205.655c0-0.06-0.104-0.06-0.125-0.052c-0.171,0.052-0.209,0.181-0.238,0.333
			c-0.042,0.22,0.029,0.425,0.18,0.583c0.065,0.092,0.184-0.022,0.235-0.158C-211.541,206.138-211.672,205.895-211.691,205.655"/>
		<path fill="#47B5F1" d="M-210.564,207.298c0.062-0.046,0.186-0.154,0.156-0.29c0.103,0.02,0.216,0,0.288-0.12
			c0.06-0.057-0.071-0.131-0.031-0.211c-0.227-0.066-0.383,0.154-0.562,0.318C-210.869,207.144-210.662,207.365-210.564,207.298"/>
		<path fill="#47B5F1" d="M-210.842,209.71c-0.039,0.209,0,0.343,0.135,0.392c0.071,0.012,0.204,0.046,0.204-0.049
			c0.016-0.128,0.099-0.246,0.016-0.358c-0.016-0.019-0.077,0-0.09,0C-210.707,209.622-210.751,209.807-210.842,209.71"/>
		<path fill="#47B5F1" d="M-210.14,211.705c0.066-0.16,0.204-0.319-0.052-0.478c-0.05-0.02-0.179-0.02-0.253-0.02
			C-210.446,211.448-210.309,211.639-210.14,211.705"/>
		<path fill="#47B5F1" d="M-227.319,218.435c-0.046,0.022-0.064,0.287,0,0.354c0.082,0.088,0.288,0.052,0.412,0.052
			C-227.008,218.632-226.984,218.261-227.319,218.435"/>
		<path fill="#47B5F1" d="M-225.542,220.226c-0.155,0.276,0.18,0.575,0.586,0.607c0-0.129,0.047-0.299-0.024-0.403
			C-225.122,220.24-225.469,220.07-225.542,220.226"/>
		<path fill="#47B5F1" d="M-224.75,221.298c-0.046,0.495,0.147,0.826,0.646,0.895C-224.041,221.671-224.249,221.366-224.75,221.298"
			/>
		<path fill="#47B5F1" d="M-197.509,207.455c0.445-0.141,1.001-0.267,1.527-0.267c1.182-0.026,1.115-1.534,1.725-2.488
			c0.131-0.236-0.078-0.756-0.24-1.01c-0.407-0.648-1.661,0.094-1.947-0.594c-0.167-0.381,0.845,0.246,0.942-0.359
			c0.018-0.15-0.09-0.354-0.198-0.413c-0.166-0.097-0.48-0.11-0.609,0c-0.636,0.534-0.754,1.46-1.092,2.067
			c-0.669,1.165-1.885,2.017-2.531,3.326c-0.109,0.19,0.047,0.345,0.206,0.423C-198.838,208.442-198.231,207.612-197.509,207.455"/>
		<path fill="#47B5F1" d="M-192.655,204.546c-0.171,0.061-0.352,0.104-0.442,0.223c-0.072,0.176-0.1,0.451,0,0.609
			c0.055,0.076,0.325,0.09,0.395,0c0.126-0.135-0.047-0.307-0.189-0.383C-192.75,204.866-192.604,204.769-192.655,204.546"/>
		<path fill="#47B5F1" d="M-196.243,208.628c0.377,0.45,1.339,0.299,1.237-0.129c-0.125-0.375-0.749-0.589-1.185-0.463
			C-196.468,208.124-195.701,208.438-196.243,208.628"/>
		<path fill="#47B5F1" d="M-194.983,212.149c0.385-0.171,0.187-0.538,0.24-0.873c-0.402,0.175-0.617,0.458-0.681,0.873
			C-195.269,212.149-195.12,212.204-194.983,212.149"/>
		<path fill="#47B5F1" d="M-190.063,204.995c0.038-0.026,0.075-0.295,0-0.393c-0.083-0.057-0.257,0-0.405-0.033
			c-0.174-0.07-0.235-0.225-0.27-0.416c0-0.239-0.229-0.41-0.163-0.678c-0.298,0.134-0.285,0.469-0.185,0.613
			C-190.827,204.49-190.643,205.117-190.063,204.995"/>
		<path fill="#47B5F1" d="M-196.563,201.637c-0.179-0.099-0.316,0.022-0.179,0.188c0.066,0.086,0.274,0.028,0.396,0.032
			C-196.407,201.789-196.444,201.683-196.563,201.637"/>
		<path fill="#47B5F1" d="M-228.389,211.982c0.063-0.103-0.074-0.185-0.152-0.276c-0.119-0.103-0.257,0.03-0.347-0.103
			c0,0.103-0.028,0.236,0.038,0.312C-228.769,212.044-228.542,212.151-228.389,211.982"/>
		<path fill="#47B5F1" d="M-226.53,211.991c0.188-0.1,0.442-0.168,0.319-0.451c0-0.021-0.048,0-0.09,0
			c-0.295-0.176-0.683-0.112-0.617,0.249C-226.907,211.948-226.715,212.11-226.53,211.991"/>
		<path fill="#47B5F1" d="M-195.795,193.034c0.076-0.183,0.371-0.215,0.329-0.409c-0.018-0.094-0.21-0.094-0.289-0.094
			c-0.143,0.012-0.111,0.206-0.111,0.374c-0.056-0.012-0.095,0-0.095,0.043C-195.961,193.034-195.819,193.065-195.795,193.034"/>
		<path fill="#47B5F1" d="M-194.844,192.669c0.047-0.046,0.214-0.18,0.077-0.291c-0.113-0.105-0.299-0.105-0.356-0.053
			C-195.247,192.469-195.041,192.802-194.844,192.669"/>
		<path fill="#47B5F1" d="M-197.747,199.835c-0.116,0.307,0.443,0.693,0.722,0.511c0.222-0.134,0.119-0.523-0.094-0.64
			C-197.323,199.596-197.676,199.648-197.747,199.835"/>
		<path fill="#47B5F1" d="M-197.095,201.911c0.121-0.113,0-0.278-0.104-0.34c-0.104-0.091-0.31-0.043-0.477,0
			c-0.042,0.025-0.089-0.029-0.152-0.043c-0.034,0.133,0.093,0.191,0.152,0.191C-197.449,201.72-197.262,202.032-197.095,201.911"/>
		<path fill="#47B5F1" d="M-197.95,202.488c-0.15,0.098-0.121,0.391,0.039,0.505c0.175,0.09,0.402,0.05,0.491-0.163
			c0.061-0.172,0.174-0.429,0-0.557C-197.633,202.124-197.736,202.368-197.95,202.488"/>
		<path fill="#47B5F1" d="M-198.496,201.724c0.019,0.282-0.137,0.557-0.067,0.821c0.043,0.159,0.259,0.11,0.293,0
			c0.073-0.245,0-0.466,0.198-0.634c-0.064-0.023-0.15-0.126-0.15,0.059c0.018-0.059,0.074-0.116,0.026-0.174
			C-198.269,201.7-198.377,201.724-198.496,201.724"/>
		<path fill="#47B5F1" d="M-194.868,216.791c0.016,0.006,0.024,0,0.04,0.006c0.007,0,0.024,0,0.031-0.006H-194.868z"/>
		<path fill="#47B5F1" d="M-177.75,220.773c0.019-0.016,0-0.056,0-0.068c-0.003,0.049-0.064,0.08-0.112,0.068
			C-177.814,220.773-177.753,220.784-177.75,220.773"/>
		<path fill="#47B5F1" d="M-193.456,210.438c-0.104,0.04-0.095-0.1-0.104-0.114c-0.1-0.104-0.199-0.104-0.23-0.242
			c-0.102-0.198-0.27,0.139-0.467,0.126c-0.024,0-0.078,0.062-0.048,0.131c0.179,0.234-0.03,0.328-0.168,0.499
			c-0.095,0.187,0.178,0.202,0.233,0.393c0.095,0.213-0.138,0.399-0.095,0.632c-0.054,0.064-0.138,0.168-0.263,0.363
			c-0.034,0.021-0.137,0.216-0.084,0.303c0.173,0.208,0.489-0.213,0.678-0.237c0.176,0,0.203,0,0.344-0.112
			c0.204-0.112,0.391-0.187,0.462-0.408c0.027-0.083-0.316-0.119-0.422-0.131c0.164-0.395-0.058-0.513,0.014-0.938
			C-193.606,210.687-193.403,210.438-193.456,210.438"/>
		<path fill="#47B5F1" d="M-191.83,215.582c0,0.019,0.099,0.03,0.133,0c0.163-0.122,0.181-0.345,0.097-0.483
			c-0.064-0.116-0.305-0.116-0.335,0.061C-191.977,215.308-191.904,215.46-191.83,215.582"/>
		<path fill="#47B5F1" d="M-191.59,214.794c0.164-0.031,0.059-0.202-0.017-0.301c-0.053-0.06-0.185-0.09-0.204-0.038
			C-191.929,214.638-191.811,214.885-191.59,214.794"/>
		<path fill="#47B5F1" d="M-189.988,215.611c-0.037-0.008-0.075-0.062-0.051-0.086c-0.136,0-0.281-0.091-0.452-0.042
			c-0.042,0-0.165-0.038-0.247-0.038c-0.023,0.136-0.07,0.326,0.095,0.376C-190.407,215.835-190.166,215.835-189.988,215.611"/>
		<path fill="#47B5F1" d="M-187.206,215.358c0.058,0,0.013-0.255-0.032-0.274c-0.243-0.046-0.448,0.206-0.702,0.116
			c0,0.108-0.021,0.177-0.077,0.238c-0.02,0.022-0.105,0.011-0.161,0.011C-187.913,215.769-187.499,215.46-187.206,215.358"/>
		<path fill="#47B5F1" d="M-186.159,214.406c0.103,0.421,0.574,0.223,0.623-0.072c0-0.202-0.283-0.202-0.374-0.046
			c0.025-0.038,0.038-0.092,0.07-0.141C-185.961,214.249-186.196,214.249-186.159,214.406"/>
		<path fill="#47B5F1" d="M-173.276,205.809c-0.095,0.225,0.312,0.276,0.509,0.341c0.246,0.072,0.651,0.04,0.717-0.183
			c0.113-0.404-0.334-0.823-0.765-0.77C-173.172,205.228-173.152,205.54-173.276,205.809"/>
		<path fill="#47B5F1" d="M-173.204,219.574c-0.132-0.043-0.393-0.043-0.393,0c-0.308,1.331-1.54,3.175-0.069,4.067
			c0.648,0.405,1.451-0.401,1.551-0.822C-171.875,221.816-171.989,220.175-173.204,219.574"/>
		<path fill="#47B5F1" d="M-177.276,213.684c-0.204,0.11-0.246,0.604,0.079,0.604c0.127,0,0.274-0.106,0.382-0.194
			c0.117-0.133,0.104-0.317-0.033-0.361C-176.997,213.684-177.16,213.606-177.276,213.684"/>
		<path fill="#47B5F1" d="M-176.301,227.377c-0.128,0.221-0.105,0.498,0.123,0.646c-0.006-0.197,0.362-0.441,0.093-0.646
			C-176.184,227.274-176.258,227.335-176.301,227.377"/>
		<path fill="#47B5F1" d="M-170.126,195.799c-0.186-0.03-0.251,0.03-0.312,0.138c-0.047,0.171,0.023,0.379-0.047,0.574
			c-0.432,1.203-1.828,2.301-1.168,3.66c0,0.022,0.101,0.022,0.118,0c0.386-0.264,0.618-0.619,0.826-1
			c0.398-0.832,0.752-1.686,1.026-2.639C-169.636,196.244-169.739,195.835-170.126,195.799"/>
		<path fill="#47B5F1" d="M-172.384,200.605c-0.103,0.19,0.131,0.339,0.292,0.26c0.155-0.069,0.254-0.336,0.113-0.374
			C-172.091,200.428-172.313,200.428-172.384,200.605"/>
		<path fill="#47B5F1" d="M-186.127,192.298c-0.156-0.498-0.545-0.023-0.865-0.082c-0.135-0.016-0.204-0.191-0.274-0.191
			c-0.119,0.027-0.228,0.047-0.307,0.13c-0.219,0.12-0.064,0.442,0.158,0.405c0.177,0,0.287-0.237,0.359-0.089
			c0.161,0.267,0.053,0.726,0.466,0.626c0.264-0.062,0.43-0.253,0.718-0.277c0.287-0.018,0.321-0.33,0.287-0.545
			c0.298-0.036,0.652-0.281,0.84-0.036c0.095,0.084,0.118,0.272,0.192,0.385c0.089,0.198,0.292,0.253,0.506,0.265
			c0.263-0.068,0.532-0.044,0.729-0.265c0.207-0.259,0.188-0.571-0.087-0.743c-0.095-0.08-0.29,0.02-0.407-0.08
			c-0.212-0.113-0.372-0.309-0.604-0.396C-185.193,191.197-185.655,191.88-186.127,192.298"/>
		<path fill="#47B5F1" d="M-183.793,192.888c-0.085,0-0.167,0-0.253-0.002c-0.011,0-0.022,0-0.03,0.002H-183.793z"/>
		<path fill="#47B5F1" d="M-188.833,192.669c0.269-0.048,0.515-0.046,0.797-0.016v-0.053c-0.021-0.449-0.464-0.4-0.715-0.223
			c-0.026,0,0,0.066,0,0.066c-0.095,0.045-0.214-0.016-0.27,0.024C-189.128,192.601-188.96,192.722-188.833,192.669"/>
		<path fill="#47B5F1" d="M-187.852,194.464c0.288-0.379,0.705-0.619,1.148-0.824c0.032,0,0-0.098,0-0.152
			c-0.022,0.034-0.045,0.068-0.059,0.122c-0.089-0.202-0.242-0.347-0.429-0.442c-0.013,0.18-0.216,0.301-0.301,0.375
			c-0.227,0.17-0.509,0.352-0.61,0.589c-0.073,0.194-0.114,0.503,0.046,0.62C-187.96,194.817-187.913,194.566-187.852,194.464"/>
		<path fill="#47B5F1" d="M-191.977,191.802c-0.029,0.124-0.061,0.286,0.1,0.312c0.206,0.061,0.206-0.265,0.114-0.331
			C-191.83,191.736-191.948,191.705-191.977,191.802"/>
		<path fill="#47B5F1" d="M-201.602,185.687c0.31,0.158,0.707,0.158,1.036,0.174c0.058,0,0.246-0.205,0.146-0.344
			c-0.182-0.143-0.474-0.024-0.639-0.24l-0.161-0.033c-0.28-0.086-0.348,0.167-0.5,0.314
			C-201.795,185.656-201.61,185.687-201.602,185.687"/>
		<path fill="#47B5F1" d="M-177.023,190.183c-0.119,0.163-0.348,0.093-0.564,0.163c-0.11,0.03-0.1,0.247-0.048,0.319
			c0.21,0.295,0.462,0.123,0.749,0.065c-0.079,0.103,0.071,0.083,0.114,0.126c0.131,0.091,0.188-0.23,0.316-0.126
			c0.038,0.032,0.038,0.217,0,0.229c-0.19,0.104-0.19,0.292-0.359,0.368c-0.104,0.076-0.327,0.076-0.423-0.134
			c-0.014-0.021-0.104,0-0.162,0h0.058c-0.082,0.145,0,0.389-0.082,0.457c-0.328,0.293-1.071,0.525-0.743,0.964
			c0.241,0.335,0.797,0.238,1.248,0.204c0.047,0,0.104-0.082,0.089-0.124c-0.042-0.423,0.184-0.495,0.459-0.704
			c0.113-0.092-0.085-0.223-0.216-0.34c-0.124-0.061,0.003-0.312,0.131-0.312c0.174-0.011,0.174-0.229,0.325-0.176v-0.275
			c0.264,0.025,0.485-0.15,0.429-0.381c-0.086-0.295-0.352-0.553-0.253-0.873c0.016-0.124,0.111-0.248,0.286-0.289
			c0.084-0.023,0.131-0.136,0.065-0.193c-0.042-0.035-0.098-0.015-0.145-0.015c0,0.101-0.171,0.061-0.119,0.145
			c-0.288,0.063-0.562,0-0.81,0.156C-176.966,189.58-176.849,189.954-177.023,190.183"/>
		<path fill="#47B5F1" d="M-179.891,192.904c0.019,0.319,0.375,0.165,0.557,0.055c-0.116,0.047-0.028-0.104-0.116-0.112
			C-179.61,192.818-179.74,192.904-179.891,192.904"/>
		<path fill="#47B5F1" d="M-175.868,192.275c-0.187,0.261,0.33,0.261,0.537,0.156c0.008,0,0.006-0.038,0-0.053
			c0.02-0.056,0-0.08-0.041-0.104C-175.571,192.155-175.816,192.171-175.868,192.275"/>
		<path fill="#47B5F1" d="M-175.035,190.917c-0.066-0.027-0.173-0.008-0.258-0.008c0.118,0.05,0.118,0.295,0.303,0.263
			c-0.011-0.034-0.034-0.058-0.034-0.126C-175.035,191.015-175.001,190.948-175.035,190.917"/>
		<path fill="#47B5F1" d="M-181.022,180.045c0.251,0.145,0.42,0.351,0.503,0.567c0.113,0.289-0.101,0.666,0.091,0.953
			c0.04,0.123,0.162,0.21,0.208,0.273c0.125,0.139-0.005,0.399,0.038,0.574c0.11,0.389,0.137,0.739,0.185,1.106
			c0.15-0.036,0.15,0.232,0.341,0.162c0,0.227,0.108,0.403,0.145,0.624c0.062,0.252,0.352,0.122,0.519,0.297
			c0.253,0.366,0.498,0.729,0.886,0.977c0.119,0.078,0.291,0.078,0.358,0.189c0.031,0.049,0,0.133,0.062,0.133
			c0.514,0.084,1.231,0.354,0.976,0.982c0.192-0.145,0.429-0.245,0.489-0.465c0.104-0.386,0.185-0.799,0.019-1.176
			c-0.095-0.193-0.385-0.295-0.444-0.511c-0.047-0.163,0-0.305,0.006-0.427c0.014-0.221-0.303-0.146-0.353-0.245
			c-0.124-0.272-0.222-0.726,0.3-0.682c0.016,0-0.078-0.097-0.05-0.192c-0.179,0-0.341,0.034-0.508,0
			c-0.119-0.016-0.119-0.184-0.119-0.236c-0.054-0.289,0.095-0.644-0.156-0.846c-0.222-0.135-0.511-0.173-0.73-0.329
			c-0.184-0.154-0.345-0.269-0.556-0.394c-0.133-0.084-0.364,0.125-0.466,0c-0.426-0.48-0.726-1.038-1.127-1.584
			c-0.156-0.17-0.465-0.164-0.736-0.127c-0.082,0.02-0.04,0.1-0.058,0.149c0.04,0,0.076,0,0.107,0.021
			C-181.003,179.881-181.058,180.001-181.022,180.045"/>
		<path fill="#47B5F1" d="M-183.524,180.933c-0.185,0.258-0.108,0.596,0.072,0.668c0.264,0.106,0.642,0.092,0.97,0.057
			c0.18-0.024,0.293-0.215,0.394-0.395c0.174-0.27,0.635-0.109,0.978-0.231c-0.048,0.208,0.101,0.187,0.22,0.282
			c-0.016-0.238-0.016-0.564-0.166-0.667c-0.311-0.19-0.33-0.459-0.5-0.749c-0.028-0.098-0.208,0.047-0.208,0.102
			c0.037,0.484-0.371,0.396-0.702,0.525c-0.016,0.027,0.019,0.122-0.016,0.154c0,0.021-0.047,0.021-0.103,0
			c-0.057-0.062-0.105-0.09-0.094-0.199c-0.163,0-0.401,0-0.472,0.109C-183.244,180.749-183.416,180.784-183.524,180.933"/>
		<path fill="#47B5F1" d="M-189.882,170.386c-0.293-0.555-0.75-1.064-0.628-1.777c0.839,0.3,1.593,0.154,2.432-0.109
			c0.623-0.172,1.339,0.127,1.949-0.26c0.074-0.068,0.003-0.275,0.003-0.438c-0.697,0.328-1.282-0.59-1.909-0.19
			c-0.82,0.519-1.701,0.64-2.497,0.854c-0.652,0.143-2.33,0.033-2.406,0.994c0.896,0.012,1.891,0.078,2.448,0.882
			C-190.407,170.441-190.091,170.386-189.882,170.386"/>
		<path fill="#47B5F1" d="M-187.121,174.396c0.245,0.43,0.683,0.521,1.089,0.672c0.07-0.217-0.048-0.324-0.188-0.441
			C-186.494,174.396-186.786,174.366-187.121,174.396"/>
		<path fill="#47B5F1" d="M-187.744,175.73c-0.149,0.067,0.018,0.288,0.171,0.41C-187.602,175.951-187.349,175.561-187.744,175.73"
			/>
		<path fill="#47B5F1" d="M-188.397,174.931c0.042,0.012,0.118,0.012,0.161,0c0.019-0.014,0-0.061,0-0.105
			c0-0.295-0.292-0.371-0.538-0.399c0,0.06-0.023,0.204,0.024,0.216C-188.606,174.71-188.564,174.825-188.397,174.931"/>
		<path fill="#47B5F1" d="M-185.979,177.996c0.018,0.04,0.103,0.087,0.155,0.034c0.061-0.057,0.098-0.137,0.061-0.252v0.047
			c-0.056-0.096,0.066-0.232-0.061-0.322c-0.053-0.018-0.118-0.034-0.137,0C-186.13,177.665-185.979,177.825-185.979,177.996"/>
		<path fill="#47B5F1" d="M-185.104,178.036c-0.026,0.129,0,0.227,0.078,0.301c0.064,0.025,0.118,0,0.142-0.044
			c-0.077-0.054-0.077-0.091-0.077-0.171C-184.932,177.931-185.081,178.122-185.104,178.036"/>
		<path fill="#47B5F1" d="M-185.447,178.689c0.038,0.13,0.161-0.045,0.198-0.201c0,0,0.014-0.027,0.019-0.04
			c0.023,0.017,0.042,0.034,0.061,0.052c-0.008-0.025-0.032-0.052-0.05-0.084c-0.128-0.148-0.35-0.276-0.477-0.126
			C-185.842,178.46-185.536,178.46-185.447,178.689"/>
		<path fill="#47B5F1" d="M-185.13,178.784c0.085,0.053-0.119,0.02-0.063,0.104c0.167,0.221,0.449,0.334,0.651,0.273
			c0.1-0.07,0.221-0.273,0.119-0.345c-0.167-0.097-0.396-0.032-0.604-0.032H-185.13z"/>
		<path fill="#47B5F1" d="M-183.865,179.345c0.111-0.06,0.011-0.149,0-0.218c-0.054-0.148-0.139-0.288-0.245-0.192
			c-0.098,0.053-0.174,0.291-0.025,0.379C-184.08,179.35-183.968,179.406-183.865,179.345"/>
		<path fill="#47B5F1" d="M-183.471,180.11c0.058,0.062,0.21-0.054,0.28-0.108c0.039,0,0.015-0.104,0.015-0.166
			c0.065,0.027,0.095,0,0.095-0.057c0.052-0.084,0.024-0.207-0.095-0.246c-0.068-0.028-0.174,0.096-0.259,0.021
			c-0.018,0,0.021-0.05,0-0.084c-0.079-0.064-0.198-0.12-0.259-0.057c-0.107,0.091-0.107,0.26-0.057,0.361
			C-183.694,179.887-183.58,180.001-183.471,180.11"/>
		<path fill="#47B5F1" d="M-184.183,180.698c0.048,0,0.097-0.052,0.107-0.102c0.035-0.113,0.035-0.201,0-0.331
			c-0.01-0.078-0.079-0.078-0.132-0.038c-0.083,0.038-0.079,0.168-0.179,0.19C-184.357,180.556-184.292,180.679-184.183,180.698"/>
		<path fill="#47B5F1" d="M-184.909,167.257c-0.023,0-0.063-0.017-0.063-0.047c0-0.008,0.04-0.033,0.063-0.05
			c-0.137-0.144-0.299-0.036-0.453-0.07C-185.259,167.257-185.104,167.398-184.909,167.257"/>
		<path fill="#47B5F1" d="M-175.792,173.888c0.146,0.135,0.461-0.027,0.617,0.135c0.15,0.177,0.27,0.467,0.539,0.467
			c0.168,0,0.29-0.094,0.313-0.242c0.042-0.445-0.131-0.96-0.559-1.148c-0.411-0.119-0.841-0.119-1.25-0.112
			c-0.264,0-0.264,0.301-0.155,0.425C-176.156,173.564-175.977,173.722-175.792,173.888"/>
		<path fill="#47B5F1" d="M-164.7,187.906c-0.292-0.362-0.316-0.762-0.506-1.059c-0.179-0.275-0.612-0.305-0.838-0.633
			c-0.114-0.16,0.095-0.43-0.075-0.555c-0.097-0.078-0.208-0.165-0.222-0.249c-0.143-0.384-0.321-0.63-0.669-0.81
			c0.116-0.436-0.292-0.652-0.708-0.778c-0.02-0.022,0.038-0.138,0.038-0.187c-0.013-0.176-0.232-0.225-0.373-0.271
			c-0.058-0.03-0.167,0-0.19-0.03c-0.21-0.281-0.504-0.497-0.604-0.738c-0.126-0.398-0.509-0.625-0.838-0.842
			c-0.121-0.064-0.227-0.402-0.288-0.402c-0.23,0-0.545,0.018-0.581-0.245c-0.041-0.491-0.438-0.798-0.804-1.093
			c-0.533-0.387-0.067-1.209-0.251-1.812c-0.046-0.258-0.321-0.258-0.562-0.258c-0.084,0-0.167-0.074-0.215-0.166
			c-0.209-0.369-0.047-0.783-0.288-1.131c-0.372-0.525-0.792-0.933-1.209-1.452c-0.234-0.269-0.579-0.225-0.867-0.253
			c-0.085-0.016-0.137-0.06-0.211-0.115c-0.107-0.076-0.143-0.197-0.203-0.305c-0.169-0.301-0.532-0.428-0.833-0.57
			c-0.561-0.23-1.166-0.115-1.755-0.198c-0.471-0.032-0.991,0.138-1.34,0.427c-0.405,0.305-0.89,0.467-1.412,0.562
			c-0.198,0.035,0.073,0.286,0,0.44c-0.121,0.196-0.407,0.411-0.287,0.599c0.059,0.047-0.101,0.015-0.049,0.081
			c0.113,0.114,0.312,0.03,0.472,0.03c0.183,0.027,0.248,0.229,0.36,0.32c0.229,0.236,0.49,0.469,0.625,0.762
			c0.058,0.114-0.158,0.324-0.055,0.434c0.292,0.301,0.234,0.564,0.234,0.926c0,0.148,0.317,0.012,0.389,0.057
			c0.424,0.225,0.508,0.766,0.39,1.196c-0.066,0.235-0.043,0.563,0.057,0.754c0.211,0.413,0.259,1.011,0.647,1.315
			c0.083-0.129,0.191-0.305,0.263-0.287c0.338,0.04,0.343-0.217,0.557-0.339c0.641-0.438,1.176,0.411,1.353,0.898
			c0.174,0.483,0,1.108,0.215,1.585c0.169,0.475,0.467,0.854,0.929,1.086c0.103,0.065,0.126,0.35,0.222,0.557
			c0.047,0.116,0.166,0.271,0.349,0.148c0.104-0.059,0.052-0.287,0.226-0.355c0.143-0.054,0.294,0.041,0.383,0.121
			c0.409,0.51,0.508,1.562,1.348,1.5c-0.013,0.126,0.076,0.221,0.161,0.256c0.174,0.053,0.292-0.194,0.414,0.028
			c0.128,0.196,0.202,0.437,0.383,0.533c0.287,0.093,0.604-0.019,0.891,0.052c0.188,0.059,0.343,0.273,0.474,0.465
			c0.082,0.121,0.18,0.27,0.299,0.392c0.563,0.552,0.783,1.384,1.466,1.808c0.211,0.137,0.407,0.404,0.712,0.324
			c0.089,0,0.026-0.135,0.121-0.153c0.283-0.034,0.442-0.269,0.562-0.44c0.208-0.277,0.517-0.529,0.885-0.7
			c0.006-0.017,0-0.126,0.006-0.136c0.248-0.201,0.563-0.26,0.801-0.481C-164.494,188.365-164.606,188.007-164.7,187.906"/>
		<path fill="#47B5F1" d="M-175.52,186.637c0.07,0.007,0.129,0.03,0.179,0.06c0.058,0.011,0.103,0.005,0.166,0.031L-175.52,186.637z
			"/>
		<path fill="#47B5F1" d="M-176.023,188.141c0.103,0.188,0.354,0.224,0.532,0.339c0.2,0.17,0.293,0.415,0.467,0.514
			c0.354,0.204,0.216-0.396,0.388-0.594c0.06-0.035,0.248,0.031,0.29-0.035c0.213-0.29-0.042-0.738-0.301-1.023
			c-0.216-0.205-0.383-0.52-0.693-0.645c-0.161-0.037-0.316-0.031-0.408,0.152c-0.171,0.256,0.005,0.594-0.119,0.851
			C-175.939,187.84-176.077,187.986-176.023,188.141"/>
		<path fill="#47B5F1" d="M-173.969,189.406c-0.146,0.502-0.046,1.043-0.104,1.578c-0.042,0.265-0.447,0.215-0.617,0.443
			c-0.1,0.128-0.143,0.354-0.121,0.517c0.063,0.353,0.464,0.329,0.715,0.464c0.659,0.326,1.258,0.815,1.631,1.488
			c0.145,0.221,0.2,0.534,0.396,0.723c0.192,0.198,0.559,0.198,0.617,0.559c0.028,0.137,0.282,0.184,0.396,0.109
			c0.345-0.283,0.305-0.822,0.065-1.113c-0.16-0.156-0.311-0.365-0.311-0.539c-0.027-0.729-0.24-1.418-0.636-2.051
			c-0.25-0.346-0.676-0.537-0.933-0.856c-0.032-0.069-0.119-0.194-0.053-0.278c0.085-0.175,0.263-0.291,0.31-0.494
			c0.038-0.374-0.383-0.519-0.489-0.883c0-0.017-0.116,0-0.187,0l0.206,0.065C-173.437,188.987-173.88,189.055-173.969,189.406"/>
		<path fill="#47B5F1" d="M-170.099,193.034c-0.059-0.19,0-0.434-0.028-0.672c-0.031-0.398-0.466-0.463-0.803-0.463
			c-0.154,0-0.337-0.053-0.371,0.121c-0.024,0.158-0.024,0.32,0.1,0.511c0.623,0.724,0.569,1.743,0.844,2.576
			c0.089,0.341,0.672,0.067,0.772-0.289c0.061-0.185,0.072-0.387,0.032-0.565c-0.084-0.188-0.267-0.316-0.306-0.521
			C-169.906,193.47-170.061,193.286-170.099,193.034"/>
		<path fill="#47B5F1" d="M-171.083,190.727c-0.272,0.221,0.123,0.445,0.041,0.743h0.113c0.179,0.085,0.179-0.134,0.219-0.222
			c-0.333,0.019-0.269-0.331-0.25-0.521C-170.99,190.727-171.042,190.7-171.083,190.727"/>
		<path fill="#47B5F1" d="M-171.23,189.986c0.019-0.179-0.018-0.354-0.216-0.387c-0.039,0.281-0.306,0.208-0.459,0.354
			c-0.187,0.15,0.016,0.394,0.219,0.476c0.045,0,0.045,0.077,0.074,0.077c0.382,0.16,0.682-0.141,0.529-0.52
			C-171.083,189.961-171.172,189.986-171.23,189.986"/>
		<path fill="#47B5F1" d="M-172.55,188.697c0.335,0.198,0.005,0.561,0.27,0.671c0.189,0.126,0.566,0.19,0.745,0.019
			c0.137-0.103-0.004-0.357-0.292-0.379c-0.108-0.014-0.103-0.209-0.077-0.357c-0.073,0-0.142-0.052-0.163-0.078
			c-0.269-0.19,0.221-0.33,0.079-0.564c-0.058-0.049-0.013-0.159-0.079-0.171c-0.101-0.05-0.213,0.012-0.251,0.122
			c-0.089,0.106,0.066,0.236,0.006,0.363C-172.384,188.484-172.691,188.598-172.55,188.697"/>
		<path fill="#47B5F1" d="M-172.743,187.016c-0.156-0.067-0.406,0.085-0.533-0.188c-0.012-0.035-0.14-0.035-0.188,0
			c-0.042,0.02-0.042,0.072-0.07,0.092c-0.09,0.129-0.193,0.221-0.09,0.317c0.143,0.103,0.174,0.204,0.253,0.325
			c0.095,0.172,0.354,0,0.407,0.16c0.042,0.146,0.185,0.194,0.293,0.122c0.126-0.058,0.018-0.282,0.059-0.403
			c-0.079,0.059-0.041-0.148-0.103-0.052C-172.671,187.255-172.593,187.068-172.743,187.016"/>
		<path fill="#47B5F1" d="M-191.83,199.447h0.099c0.01-0.055,0-0.119,0.067-0.191c0.064-0.094-0.033-0.221-0.097-0.285
			c-0.092-0.105-0.283,0-0.216,0.191h0.095C-191.904,199.255-191.904,199.345-191.83,199.447"/>
		<path fill="#47B5F1" d="M-170.75,196.046c-0.333-0.131-0.696,0.035-1.001,0.225c-0.657,0.342-0.735,1.211-1.153,1.68
			c-0.276,0.316-0.601,0.477-1,0.449c-0.041,0-0.197-0.062-0.21-0.186c0-0.191-0.066-0.387,0.08-0.541
			c0.13-0.104,0.279-0.191,0.369-0.344c0.185-0.291,0.042-0.631-0.03-0.906c-0.155-0.588-0.772-0.941-1.339-0.849
			c-0.569,0.118-0.904,0.708-1.223,1.224c0,0-0.113,0.016-0.113,0c-0.216-0.264-0.501-0.404-0.651-0.684
			c-0.038-0.033-0.038-0.095,0-0.152c0.227,0.119,0.435,0.461,0.675,0.32c0.224-0.133,0.032-0.441-0.148-0.514
			c-0.206-0.064-0.39-0.262-0.646-0.232c-0.173,0.012-0.38-0.254-0.445-0.467c-0.071-0.314-0.1-0.729-0.377-0.814
			c-0.293-0.124-0.572-0.135-0.849-0.343c-0.133-0.067-0.293,0.052-0.42,0.044c0.089-0.088,0.013-0.301,0.056-0.301
			c0.352-0.033,0.788-0.033,0.574-0.431c-0.093-0.188-0.282-0.379-0.504-0.221c-0.07,0.032-0.202,0.032-0.227,0.128
			c-0.047,0.062-0.061,0.159-0.103,0.215c-0.061,0.152,0.113,0.426,0,0.521c-0.221,0.152-0.544,0.133-0.815,0.331
			c-0.035,0.012-0.137,0.012-0.185,0c-0.24-0.079-0.612-0.354-0.724-0.235c-0.173,0.207-0.208,0.466-0.413,0.572
			c-0.174,0.086-0.401,0.094-0.586,0.184c-0.324,0.127-0.134,0.539,0,0.84c0.07,0.098,0.017,0.275-0.091,0.355
			c-0.232,0.131-0.28-0.158-0.335-0.269c-0.094-0.293-0.179-0.62-0.179-0.927c-0.028-0.32,0.377-0.521,0.471-0.826
			c0.067-0.186,0.123-0.395-0.009-0.603c-0.146-0.225-0.377-0.337-0.593-0.263c-0.575,0.148-0.737,1.143-1.312,0.884
			c-0.297-0.11-0.556-0.413-0.873-0.565c-0.178-0.122-0.346-0.244-0.555-0.096c-0.404,0.301-0.895,0.484-1.32,0.689
			c-0.382,0.18-0.717,0.621-0.938,1.037c-0.235,0.529-1.199,0.817-1.515,0.197c-0.155-0.301-0.474-0.545-0.815-0.533
			c-0.311,0.045-0.42,0.457-0.766,0.533c-0.248,0.047-0.395-0.045-0.487-0.229c-0.015-0.05-0.015-0.142,0-0.164
			c0.467-0.383,0.946-0.662,1.527-0.889c0.277-0.092,0.316-0.395,0.211-0.669c-0.005-0.048-0.023-0.122-0.065-0.188
			c-0.024-0.148-0.048-0.367-0.098-0.367c-0.708,0.055-1.303,0.556-1.654,1.199c-0.044,0.088-0.082,0.225-0.142,0.225
			c-0.449-0.042-0.911,0.217-1.285-0.042c-0.079-0.05-0.188-0.563-0.24-0.507c-0.188,0.191-0.292,0.42-0.456,0.627
			c-0.047,0.104-0.168,0.156-0.24,0.259c-0.251,0.389,0.24,0.792,0.127,1.106c-0.079,0.156-0.491,0.156-0.761,0.221
			c-0.131,0.038-0.131,0.263-0.122,0.441c0.019,0.141,0.175,0.122,0.264,0.17c0.264,0.261,0.283,0.701,0.619,0.859
			c0.405,0.186,0.898,0.053,1.38,0.186c0.319,0.068,0.557,0.29,0.691,0.609c0.082,0.17,0.335,0.26,0.351,0.529
			c0.014,0.092,0.131,0.176,0.258,0.24c0.146,0.047,0.336-0.104,0.477-0.038c0.204,0.058,0.122,0.331,0.174,0.503
			c0.098,0.318-0.071,0.666,0.264,0.984c0.131,0.106-0.125,0.439-0.274,0.621c-0.061,0.066-0.27,0.066-0.292,0.163
			c-0.084,0.286-0.012,0.546,0.129,0.774c0.103,0.127,0.266,0,0.312,0.084c0.248,0.316,0.352,0.663,0.559,0.947
			c0.089,0.107,0.189,0.252,0.31,0.295c-0.15,0.032-0.191,0.217-0.15,0.287c0.095,0.118,0.302,0.196,0.407,0.086
			c0.174-0.116,0.361-0.156,0.527-0.309c0.101-0.107,0.27-0.07,0.372-0.176c0.116,0.111,0.216,0.358,0.137,0.461
			c-0.25,0.24-0.699,0.076-0.989,0.268c-0.197,0.087-0.392,0.037-0.495,0.201c-0.101,0.096,0,0.326,0.173,0.351
			c0.635,0.137,0.143,1.049-0.164,1.516c-0.076,0.103,0,0.274-0.039,0.464c-0.025,0.084-0.14,0.134-0.21,0.134
			c-0.609,0.057-1.227-0.158-1.778,0.04c-0.192,0.052-0.288,0.318-0.377,0.543h0.108c-0.162,0.019-0.162,0.197-0.198,0.287
			c-0.034,0.106-0.018,0.314-0.084,0.417c-0.538,0.587-0.615,1.331-0.708,2.019c-0.02,0.205,0.238,0.339,0.387,0.339
			c0.149,0,0.363-0.174,0.495-0.174c0.277,0.04,0.208,0.467,0.311,0.649c0.119,0.21,0.522,0.242,0.569-0.034
			c0.071-0.241,0.071-0.521,0.148-0.734c0.084-0.298-0.228-0.492-0.288-0.762c-0.071-0.263,0.061-0.484,0.211-0.659
			c0.097-0.103,0.258,0.021,0.325,0.175c0.057,0.148,0.057,0.351,0.118,0.531c0.034,0.188-0.095,0.406,0.011,0.539
			c0.103,0.13,0.164,0.295,0.122,0.453c-0.019,0.08-0.122,0.148-0.18,0.252c-0.071,0.205,0.058,0.481-0.118,0.56
			c-0.18,0.141-0.155,0.397-0.372,0.411c-0.48,0.034-1.071-0.221-0.911-0.766c-0.197-0.021-0.4-0.021-0.486,0.152
			c-0.104,0.219,0,0.562-0.126,0.739c-0.178,0.221-0.303,0.453-0.5,0.676c-0.066,0.053,0.095,0.087,0.033,0.16
			c-0.258,0.306-0.556,0.42-0.872,0.656c-0.018,0-0.032,0-0.032,0.06c-0.208,0.131-0.556-0.086-0.638,0.165
			c-0.116,0.257,0.256,0.433,0.376,0.695c0.078,0.177,0.03,0.385-0.215,0.421c-0.353,0.076-0.659,0.03-1.031-0.023
			c0,0.1-0.095,0.088-0.095,0.122c-0.061,0.312,0,0.563-0.24,0.842c-0.149,0.2,0.079,0.439,0.216,0.609
			c0.15,0.209,0.216,0.493,0.411,0.541c0.156,0.043,0.284,0.179,0.422,0.165c0.299-0.084,0.515-0.196,0.627-0.512
			c0.047-0.194,0.371,0.026,0.581-0.038c0.054-0.02,0.162-0.054,0.204-0.088c0.16-0.188-0.042-0.465,0.046-0.575
			c0.325-0.381,0.69-0.689,1.122-0.967c0.143-0.112,0.359-0.234,0.569-0.16c0.164,0.048,0.309,0.148,0.482,0.221
			c0.164,0.084,0.296,0.194,0.463,0.288c0.035,0.036,0.165,0.085,0.244,0.116c0.283,0.121,0.457,0.479,0.769,0.654
			c0.089,0.046,0.023-0.122,0.119-0.055c0.01-0.286-0.054-0.565-0.185-0.729c-0.188-0.274-0.493-0.411-0.703-0.634
			c-0.079-0.07-0.079-0.272,0.038-0.387c0.023-0.058,0.125-0.058,0.131,0c0.166,0.145,0.335,0.145,0.509,0.236
			c0.345,0.15,0.279,0.658,0.614,0.834c0.179,0.095,0.269,0.354,0.485,0.394c0.25,0.086,0.647,0,0.791-0.299
			c0.108-0.185-0.097-0.285-0.226-0.407c-0.248-0.185,0.129-0.274,0.249-0.423c0.218-0.259,0-0.487-0.022-0.736
			c-0.029-0.105,0.047-0.17,0.108-0.226c0,0,0.018-0.028,0.053-0.045c0.139-0.311,0.008-0.653,0.126-0.96
			c0.047-0.062,0.127-0.056,0.127-0.032c0.089,0.152,0.264,0.259,0.418,0.203c0.25-0.062,0.455-0.188,0.627-0.415
			c0.216-0.285,0.681-0.127,0.792,0.146c0.053,0.207-0.018,0.491-0.176,0.546c-0.554,0.082-0.992,0.286-1.397,0.558
			c-0.056,0.056-0.127,0.086-0.158,0.158c-0.22,0.154-0.304,0.316-0.186,0.657c0.024,0.128-0.145,0.263-0.268,0.385
			c0.208,0.066,0.208,0.321,0.4,0.367c0.346,0.08,0.659,0.094,0.904-0.141c0.058-0.092,0.126-0.274,0.089-0.435
			c0.222-0.03,0.373-0.241,0.615-0.289c0.475-0.076,0.754,0.449,0.625,0.864c-0.028,0.08-0.15,0.08-0.188,0.11
			c-0.25,0.389-0.437,0.777-0.83,0.938c-0.599,0.307-1.324,0.238-1.851,0.549c-0.209,0.131-0.269,0.493-0.575,0.577
			c-0.265,0.064-0.596,0.223-0.868,0v0.057c0,0.198-0.623,0.064-0.92-0.057c-0.098-0.038-0.038-0.334-0.165-0.446
			c-0.105-0.064-0.308,0.031-0.353-0.083c-0.063-0.063,0-0.218-0.077-0.232c-0.712-0.126-1.364,0.091-2.084,0.015
			c-0.189-0.015-0.168,0.236-0.328,0.351c-0.132,0.062-0.261,0.196-0.394,0.248c-0.287,0.146-0.593,0.35-0.936,0.221
			c-0.303,0.093-0.575,0.137-0.849,0.183c-0.449,0.088-0.701,0.469-1.065,0.716c-0.289,0.194-0.617,0.227-0.934,0.21
			c-0.089,0-0.042,0.152-0.121,0.152c-0.488,0.121-0.925,0.734-1.197,1.252c-0.088,0.146,0.02,0.347-0.067,0.469
			c-0.25,0.395-0.382,0.784-0.732,1.108c-0.038,0.038-0.038,0.139-0.023,0.209c0.391,0.527,0.848,0.886,1.244,1.431
			c0.095,0.155,0.287,0.155,0.35,0.287c0.15,0.354,0.367,0.661,0.545,0.979c0.256,0.461,0.915,0.638,1.485,0.461
			c0.208-0.061,0.453,0.137,0.641,0.177c0.646,0.063,1.323,0.212,1.944-0.112c0.903,0.282,1.846-0.112,2.667,0.282
			c0.167,0.042,0.167,0.343,0.284,0.539c0.188,0.359,0.409,0.718,0.755,0.98c0.29,0.201,0.702,0.337,1.103,0.377
			c0.113,0,0.131,0.286,0.232,0.4c0.116,0.152,0.066,0.396,0.21,0.515c0.198,0.19,0.367,0.327,0.354,0.602
			c0,0.327-0.395,0.613-0.155,1.039c0.054,0.138-0.029,0.362,0.036,0.442c0.52,0.51,1,0.997,1.628,1.454
			c0.055,0.05,0.168,0.13,0.115,0.259c0.249,0.069,0.275,0.305,0.436,0.438c0.124,0.148,0.058,0.393,0.179,0.544
			c0.213,0.26,0.442,0.499,0.682,0.724c0.317,0.286,0.76,0.222,1.137,0.301c0.09,0.058,0.19,0.126,0.302,0.16
			c0.358,0.11,0.746,0.152,1.057-0.091c0.18-0.148,0.335-0.423,0.509-0.529c0.269-0.222,0.688-0.206,1.054-0.274
			c0.072-0.012,0.186-0.05,0.234-0.145c0.039-0.214,0.239-0.324,0.226-0.541c0.277-0.008,0.488-0.148,0.715-0.271
			c0.453-0.232,0.796-0.686,1.221-1.059c0.43-0.399,1.142-0.221,1.375-0.666c0.229-0.438-0.09-1.044,0.11-1.55
			c0.119-0.236,0.27-0.522,0.293-0.789c0.033-0.438,0.052-0.896,0.018-1.341c-0.018-0.263-0.288-0.521-0.254-0.773
			c0.015-0.19,0.341-0.19,0.407-0.337c0.157-0.367,0.307-0.737,0.494-1.083c0.028-0.065,0.157-0.102,0.264-0.17
			c0.171-0.12,0.028-0.299,0.063-0.474c-0.137-0.04-0.197-0.19-0.267-0.278c-0.373-0.533-0.725-1.055-1.356-1.317
			c-0.155-0.04-0.166-0.21-0.239-0.339c-0.059-0.046,0.021-0.218-0.034-0.272c-0.18-0.098-0.109-0.257-0.146-0.371h0.149
			c-0.003-0.006,0-0.016,0-0.016c-0.064,0-0.089-0.052-0.089-0.074c0.141-0.371,0.354-0.712,0.642-0.958
			c0.079-0.08,0.298-0.08,0.325-0.179c0.076-0.325,0.057-0.651-0.093-0.922c-0.231-0.396-0.028-0.788-0.095-1.165
			c-0.057-0.738-0.057-1.413-0.395-2.085c-0.066-0.209-0.263-0.355-0.525-0.289c-0.126,0.017-0.111,0.188-0.187,0.289
			c-0.09,0.108-0.108,0.242-0.155,0.433c-0.1,0.239-0.435,0.315-0.521,0.571c-0.041,0.165-0.083,0.312-0.149,0.415
			c-0.119,0.121-0.227,0.289-0.387,0.325c-0.269,0.086-0.517,0.15-0.773,0.204c-0.274,0.057-0.569,0.057-0.868-0.029
			c-1.54-0.436-2.861-1.029-4.405-1.456c-0.02,0-0.02-0.103,0-0.12c0.234-0.124,0.495,0.054,0.748-0.014
			c0.174-0.036-0.037-0.275,0.053-0.275c0.324,0.078,0.585,0.289,0.898,0.409c0.647,0.221,1.28,0.285,1.963,0.427
			c0.528,0.114,0.894,0.491,1.4,0.624c0.428,0.128,0.708-0.198,1.042-0.331c0.014,0-0.011-0.136,0.014-0.179
			c0.148-0.272,0.423-0.421,0.537-0.675c0.076-0.183-0.042-0.476,0.076-0.685c0.056-0.102,0.229-0.204,0.272-0.32
			c0.084-0.335,0.034-0.67,0.034-0.994c0.192,0.02,0.335-0.194,0.282-0.276c-0.047-0.053-0.061-0.135-0.089-0.183
			c0-0.194,0.029-0.397,0.071-0.6c0.097-0.479-0.042-0.956-0.241-1.369c-0.1-0.219-0.392-0.275-0.62-0.219
			c-0.075,0.05-0.104,0.173-0.174,0.219c-0.234,0.02-0.432,0.124-0.583,0.24c-0.194,0.158-0.184,0.497-0.354,0.638
			c-0.292,0.246-0.58,0.503-0.961,0.646c-0.246,0.12-0.604-0.021-0.652-0.225c-0.235-0.628,0.617-0.516,1.047-0.628
			c0.06-0.04,0.161-0.146,0.208-0.227c0.109-0.222,0.169-0.541,0.41-0.663c0.155-0.057,0.34-0.057,0.496-0.038
			c0.155,0.038,0.275-0.181,0.437-0.271c0.127-0.057,0.119-0.301,0.166-0.438c0.074-0.261,0.363-0.396,0.48-0.617
			c0.27-0.487,0.27-1.199,0.652-1.574c0.264-0.212,0.126,0.343,0.227,0.462c0.163,0.222,0.622,0.202,0.772,0.034
			c0.137-0.135-0.015-0.487,0.228-0.612c0.111-0.023,0.24-0.023,0.33,0c0.182,0.116,0.401,0.315,0.588,0.203
			c0.131-0.087,0.274-0.279,0.41-0.325c0.225-0.072,0.475,0,0.704-0.096c0.556-0.263,1.719,0.096,1.652-0.439
			c-0.091-0.87-0.805-1.56-1.563-1.959c-0.612-0.297-0.383-1.148-0.928-1.631c-0.143-0.093-0.071-0.315-0.189-0.458
			c-0.037-0.04-0.117-0.11-0.204-0.147c-0.079-0.068-0.169-0.145-0.169-0.167c0.09-0.455-0.126-0.882,0.114-1.257
			c0.121-0.179,0.39-0.27,0.551-0.399c0.191-0.164,0.545-0.282,0.545-0.541c0-0.354-0.037-0.733,0.029-1.108
			c0.029-0.119,0.25-0.221,0.372-0.221c0.638-0.01,1.329,0.16,1.916-0.227c0.15-0.135,0.167-0.324,0.263-0.439
			c0.459-0.67,1.156-1.191,1.126-2.061c-0.012-0.154,0.233-0.193,0.292-0.381C-170.71,196.198-170.71,196.046-170.75,196.046
			 M-183.057,210.647c0,0.052,0.028,0.132-0.024,0.152c-0.108,0.126-0.335,0.05-0.391-0.118c-0.084-0.165-0.162-0.355-0.33-0.428
			c-0.161-0.029-0.309-0.01-0.388,0.153c-0.168-0.117-0.335-0.026-0.49-0.061c0.053-0.261-0.206-0.244-0.347-0.419
			c-0.167-0.152-0.104-0.465,0.142-0.545c0.182-0.079,0.343,0.069,0.38,0.276c-0.019-0.032-0.037-0.032-0.051-0.074
			c0,0.074-0.033,0.13,0,0.176c0.169,0.159,0.367-0.046,0.552,0.087c0.211,0.126,0.504-0.072,0.743,0.072
			c0.017,0-0.023,0.118,0.062,0.118c0.269,0.048,0.368,0.288,0.303,0.491C-182.915,210.576-182.953,210.666-183.057,210.647"/>
		<path fill="#47B5F1" d="M-208.051,257.663c3.474-5.141,13.992-10.655,24.3-10.655c10.362,0,21.557,5.986,25.99,2.814
			c0,0-4.525,3.915-13.663,3.915c-9.139,0-12.617-4.612-18.962-4.612s-13.068,5.142-15.864,9.456L-208.051,257.663z"/>
		<path fill="#47B5F1" d="M-175.43,246.258c0,0,3.022-1.806,4.592-5.127c1.609-3.343,5.751-8.625,9.929-11.869
			c0,0-4.696,14.817-9.528,15.479c0,0-0.762,0.461,0.6,0.232c1.367-0.232,7.552-2.506,9.753-2.883
			c2.176-0.373,7.544-1.584,8.986-3.016c1.214-1.211,2.035-1.044,2.035-1.044s-5.967,9.956-16.699,9.956
			C-165.762,247.988-171.042,247.541-175.43,246.258"/>
		<path fill="#47B5F1" d="M-162.74,241.128c0,0,1.126-1.726,1.358-4.699c0.233-2.944,2.047-9.727,7.195-17.142
			c0,0,0.748,11.715-5.088,18.896c0,0-0.354,1.044,0.395,0.282c0.766-0.758,4.437-5.19,12.398-10.579c0,0,4.13-3.397,4.361-4.518
			C-142.12,223.369-145.356,239.996-162.74,241.128"/>
		<path fill="#47B5F1" d="M-152.671,230.004c0,0,0.449-1.873,0.449-3.462c0-1.6-0.684-7.034-0.684-9.46
			c0-2.43,0.234-6.938,2.107-10.008c0,0,0,2.702,0.604,3.915c0.605,1.195,1.286,6.026,1.286,6.62c0,0.604-0.155,4.69-1.213,6.88
			c0,0,0.766-0.442,1.6-2.022c0.824-1.614,2.858-4.545,5.972-7.639c3.094-3.095,3.766-5.96,3.766-5.96s0.76,5.431-3.246,11.146
			c-4.009,5.774-5.667,4.768-7.854,7.122C-149.884,227.137-152.385,230.176-152.671,230.004"/>
		<path fill="#47B5F1" d="M-146.428,216.946c0,0-0.132-3.328-0.734-4.385c-0.633-1.076-4.224-7.622-3.476-16.006
			c0,0,0.594-0.531,1.73,2.72c1.113,3.259,2.729,4.223,3.245,7.482c0.545,3.228,0.545,4.589,0.545,4.589s0.362,0.455,0.362,0.082
			c0-0.389,0.387-4.757,2.21-8.751c1.797-4.001,4.211-7.78,3.989-10.438c0,0,1.061,0.084,0.896,4.387
			C-137.797,200.948-138.939,208.427-146.428,216.946"/>
		<path fill="#47B5F1" d="M-144.435,203.718c0,0-1.305-2.999-2.21-4.008c-0.904-0.952-7.184-10.111-7.698-14.277
			c0,0,0.514-0.277,1.122,0.766c0.613,1.078,3.633,4.073,4.158,4.535c0.542,0.463,3.711,3.862,4.006,7.477
			c0,0,0.301,0.388-0.295-5.663c-0.597-6.036,1.97-9.946-0.147-14.202c0,0,2.95,0.457,4.519,12.852c0,0-0.064,4.382-2.331,9.751
			C-143.311,200.948-144.076,203.718-144.435,203.718"/>
		<path fill="#47B5F1" d="M-146.715,190.138c0,0-2.348-2.42-4.244-3.551c-1.87-1.15-7.763-6.957-8.818-11.492
			c0,0,0.377-0.507,2.257,1.969c1.443,1.9,2.938,0.971,7.255,6.424c0,0,0.608,1.213,0.906,1.119
			c0.296-0.049-0.152-1.271-0.152-1.271s-0.845-3.387-0.915-4.619c-0.065-1.207-1.795-7.614-2.403-8.448
			c0,0,5.807,3.313,6.651,12.679C-146.178,182.947-146.428,189.746-146.715,190.138"/>
		<path fill="#47B5F1" d="M-151.708,180.152c0,0,0.395-8.166-10.374-12.319c0,0,3.73,7.647,6.525,9.456
			C-152.763,179.111-151.708,180.152-151.708,180.152"/>
		<path fill="#47B5F1" d="M-179.202,257.663c-3.478-5.141-13.996-10.655-24.318-10.655c-10.337,0-21.542,5.986-25.99,2.814
			c0,0,4.531,3.915,13.683,3.915c9.131,0,12.627-4.612,18.968-4.612c6.327,0,13.035,5.142,15.838,9.456L-179.202,257.663z"/>
		<path fill="#47B5F1" d="M-211.816,246.258c0,0-3.027-1.806-4.636-5.127c-1.574-3.343-5.73-8.625-9.89-11.869
			c0,0,4.675,14.817,9.533,15.479c0,0,0.754,0.461-0.604,0.232c-1.369-0.232-7.572-2.506-9.758-2.883
			c-2.189-0.373-7.553-1.584-8.997-3.016c-1.204-1.211-2.041-1.044-2.041-1.044s5.968,9.956,16.713,9.956
			C-221.496,247.988-216.221,247.541-211.816,246.258"/>
		<path fill="#47B5F1" d="M-224.528,241.128c0,0-1.122-1.726-1.356-4.699c-0.223-2.944-2.041-9.727-7.176-17.142
			c0,0-0.76,11.715,5.051,18.896c0,0,0.395,1.044-0.365,0.282c-0.754-0.758-4.454-5.19-12.408-10.579c0,0-4.148-3.397-4.359-4.518
			C-245.141,223.369-241.897,239.996-224.528,241.128"/>
		<path fill="#47B5F1" d="M-234.574,230.004c0,0-0.451-1.873-0.451-3.462c0-1.6,0.679-7.034,0.679-9.46
			c0-2.43-0.228-6.938-2.118-10.008c0,0,0,2.702-0.596,3.915c-0.615,1.195-1.292,6.026-1.292,6.62c0,0.604,0.145,4.69,1.211,6.88
			c0,0-0.752-0.442-1.604-2.022c-0.83-1.614-2.863-4.545-5.952-7.639c-3.08-3.095-3.777-5.96-3.777-5.96s-0.748,5.431,3.252,11.146
			c4.003,5.774,5.646,4.768,7.852,7.122C-237.372,227.137-234.875,230.176-234.574,230.004"/>
		<path fill="#47B5F1" d="M-240.848,216.946c0,0,0.155-3.328,0.755-4.385c0.597-1.076,4.232-7.622,3.474-16.006
			c0,0-0.604-0.531-1.734,2.72c-1.143,3.259-2.706,4.223-3.257,7.482c-0.53,3.228-0.53,4.589-0.53,4.589s-0.361,0.455-0.361,0.082
			c0-0.389-0.401-4.757-2.197-8.751c-1.806-4.001-4.24-7.78-4.011-10.438c0,0-1.065,0.084-0.91,4.387
			C-249.469,200.948-248.333,208.427-240.848,216.946"/>
		<path fill="#47B5F1" d="M-242.818,203.718c0,0,1.287-2.999,2.202-4.008c0.913-0.952,7.155-10.111,7.707-14.277
			c0,0-0.551-0.277-1.144,0.766c-0.606,1.078-3.622,4.073-4.155,4.535c-0.538,0.463-3.689,3.862-4.021,7.477
			c0,0-0.271,0.388,0.333-5.663c0.583-6.036-1.961-9.946,0.153-14.202c0,0-2.954,0.457-4.553,12.852c0,0,0.079,4.382,2.348,9.751
			C-243.949,200.948-243.185,203.718-242.818,203.718"/>
		<path fill="#47B5F1" d="M-240.543,190.138c0,0,2.334-2.42,4.232-3.551c1.888-1.15,7.77-6.957,8.848-11.492
			c0,0-0.393-0.507-2.279,1.969c-1.438,1.9-2.953,0.971-7.24,6.424c0,0-0.609,1.213-0.909,1.119
			c-0.317-0.049,0.146-1.271,0.146-1.271s0.837-3.387,0.9-4.619c0.074-1.207,1.82-7.614,2.422-8.448c0,0-5.831,3.313-6.635,12.679
			C-241.059,182.947-240.848,189.746-240.543,190.138"/>
		<path fill="#47B5F1" d="M-235.548,180.152c0,0-0.395-8.166,10.337-12.319c0,0-3.695,7.647-6.49,9.456
			C-234.492,179.111-235.548,180.152-235.548,180.152"/>
	</g>
	<g>
		<path fill="#47B5F1" d="M-81.372,189.207v20.263c0,2.313-0.497,4.338-1.489,6.074c-0.993,1.732-2.427,3.069-4.306,4.004
			c-1.877,0.935-4.124,1.403-6.737,1.403c-3.884,0-6.905-1.028-9.06-3.084c-2.158-2.057-3.235-4.885-3.235-8.483v-20.177h5.141
			v19.813c0,2.586,0.6,4.49,1.799,5.72c1.2,1.227,3.042,1.841,5.526,1.841c4.827,0,7.24-2.534,7.24-7.604v-19.77H-81.372z"/>
		<path fill="#47B5F1" d="M-47.713,220.523h-6.277l-15.401-24.954h-0.171l0.107,1.392c0.2,2.656,0.3,5.084,0.3,7.283v16.279h-4.649
			v-31.315h6.213l15.358,24.825h0.128c-0.029-0.328-0.086-1.523-0.171-3.588c-0.086-2.063-0.128-3.675-0.128-4.83v-16.407h4.691
			V220.523z"/>
		<path fill="#47B5F1" d="M-39.96,220.523v-31.315h5.12v31.315H-39.96z"/>
		<path fill="#47B5F1" d="M-15.863,220.523h-5.119v-26.925h-9.212v-4.391h23.542v4.391h-9.21V220.523z"/>
		<path fill="#47B5F1" d="M15.729,220.523H-1.986v-31.315h17.715v4.326H3.134v8.526h11.803v4.284H3.134v9.83h12.595V220.523z"/>
		<path fill="#47B5F1" d="M47.441,204.566c0,5.169-1.434,9.12-4.305,11.854c-2.871,2.736-7.005,4.103-12.403,4.103h-8.762v-31.315
			h9.684c4.983,0,8.861,1.341,11.63,4.025C46.057,195.917,47.441,199.695,47.441,204.566z M42.043,204.737
			c0-7.498-3.508-11.245-10.518-11.245h-4.434v22.727h3.641C38.273,216.218,42.043,212.391,42.043,204.737z"/>
		<path fill="#47B5F1" d="M91.393,220.523h-6.277l-15.402-24.954h-0.172l0.106,1.392c0.202,2.656,0.301,5.084,0.301,7.283v16.279
			h-4.649v-31.315h6.214l15.359,24.825H87c-0.029-0.328-0.086-1.523-0.172-3.588c-0.086-2.063-0.127-3.675-0.127-4.83v-16.407h4.691
			V220.523z"/>
		<path fill="#47B5F1" d="M119.291,220.523l-3.129-8.695h-11.975l-3.062,8.695h-5.398l11.717-31.445h5.572l11.715,31.445H119.291z
			 M114.812,207.413l-2.934-8.525c-0.217-0.572-0.512-1.471-0.891-2.699c-0.377-1.228-0.639-2.126-0.779-2.697
			c-0.387,1.756-0.953,3.677-1.695,5.762l-2.826,8.16H114.812z"/>
		<path fill="#47B5F1" d="M137.006,220.523h-5.119v-26.925h-9.211v-4.391h23.541v4.391h-9.211V220.523z"/>
		<path fill="#47B5F1" d="M150.883,220.523v-31.315H156v31.315H150.883z"/>
		<path fill="#47B5F1" d="M191.762,204.823c0,5.097-1.275,9.062-3.822,11.887c-2.551,2.829-6.16,4.242-10.828,4.242
			c-4.729,0-8.357-1.403-10.895-4.208c-2.533-2.807-3.801-6.793-3.801-11.965c0-5.168,1.273-9.14,3.824-11.91
			c2.549-2.77,6.186-4.154,10.912-4.154c4.656,0,8.254,1.407,10.797,4.219C190.49,195.745,191.762,199.71,191.762,204.823z
			 M167.857,204.823c0,3.855,0.779,6.78,2.334,8.771c1.555,1.992,3.863,2.987,6.92,2.987c3.041,0,5.336-0.984,6.887-2.956
			c1.549-1.97,2.322-4.905,2.322-8.803c0-3.841-0.768-6.754-2.301-8.739c-1.537-1.986-3.824-2.979-6.867-2.979
			c-3.07,0-5.387,0.992-6.951,2.979C168.639,198.069,167.857,200.982,167.857,204.823z"/>
		<path fill="#47B5F1" d="M224.158,220.523h-6.275l-15.402-24.954h-0.172l0.107,1.392c0.199,2.656,0.299,5.084,0.299,7.283v16.279
			h-4.648v-31.315h6.213l15.357,24.825h0.131c-0.031-0.328-0.088-1.523-0.172-3.588c-0.088-2.063-0.129-3.675-0.129-4.83v-16.407
			h4.691V220.523z"/>
		<path fill="#47B5F1" d="M250.365,212.02c0,2.783-1.01,4.97-3.02,6.554c-2.016,1.586-4.793,2.378-8.334,2.378
			c-3.543,0-6.441-0.548-8.695-1.648v-4.843c1.428,0.673,2.943,1.2,4.549,1.587c1.607,0.384,3.104,0.578,4.488,0.578
			c2.027,0,3.525-0.386,4.488-1.157s1.447-1.805,1.447-3.105c0-1.171-0.445-2.165-1.33-2.979c-0.887-0.812-2.715-1.778-5.482-2.892
			c-2.855-1.156-4.871-2.478-6.039-3.962c-1.174-1.486-1.76-3.27-1.76-5.357c0-2.611,0.928-4.668,2.787-6.168
			c1.854-1.499,4.348-2.249,7.475-2.249c2.998,0,5.982,0.657,8.953,1.971l-1.627,4.177c-2.787-1.17-5.27-1.755-7.455-1.755
			c-1.656,0-2.914,0.36-3.77,1.081c-0.857,0.721-1.285,1.674-1.285,2.86c0,0.813,0.17,1.508,0.514,2.087
			c0.342,0.578,0.906,1.125,1.693,1.639c0.783,0.515,2.197,1.194,4.242,2.036c2.295,0.956,3.982,1.849,5.053,2.677
			s1.855,1.764,2.357,2.807C250.113,209.379,250.365,210.605,250.365,212.02z"/>
	</g>
</g>
</svg>
