<?xml version="1.0" encoding="utf-8"?>
<!-- Generator: Adobe Illustrator 16.0.4, SVG Export Plug-In . SVG Version: 6.00 Build 0)  -->
<!DOCTYPE svg PUBLIC "-//W3C//DTD SVG 1.1//EN" "http://www.w3.org/Graphics/SVG/1.1/DTD/svg11.dtd">
<svg version="1.1" id="Layer_1" xmlns="http://www.w3.org/2000/svg" xmlns:xlink="http://www.w3.org/1999/xlink" x="0px" y="0px"
	 width="150px" height="150px" viewBox="-74.635 137.8 150 150" enable-background="new -74.635 137.8 150 150"
	 xml:space="preserve">
<circle fill="none" cx="0.365" cy="212.8" r="75"/>
<path fill="#FFFFFF" d="M-70.037,194.434v10.275h1.875c2.58,0,4.339-1.807,4.339-5.067v-0.117c0-3.26-1.76-5.091-4.339-5.091
	H-70.037z M-73.439,191.362h5.301c4.762,0,7.833,3.284,7.833,8.093v0.211c0,4.809-3.072,8.115-7.833,8.115h-5.301V191.362z"/>
<polygon fill="#FFFFFF" points="-58.5,191.362 -47.922,191.362 -47.922,194.434 -55.122,194.434 -55.122,197.978 -48.79,197.978 
	-48.79,201.049 -55.122,201.049 -55.122,204.709 -47.828,204.709 -47.828,207.781 -58.5,207.781 "/>
<polygon fill="#FFFFFF" points="-47.266,191.362 -43.583,191.362 -40.113,202.668 -36.641,191.362 -33.053,191.362 -38.588,207.874 
	-41.73,207.874 "/>
<polygon fill="#FFFFFF" points="-31.882,191.362 -21.303,191.362 -21.303,194.434 -28.505,194.434 -28.505,197.978 -22.172,197.978 
	-22.172,201.049 -28.505,201.049 -28.505,204.709 -21.209,204.709 -21.209,207.781 -31.882,207.781 "/>
<polygon fill="#FFFFFF" points="-19.405,191.362 -16.004,191.362 -16.004,204.66 -9.366,204.66 -9.366,207.781 -19.405,207.781 "/>
<path fill="#FFFFFF" d="M1.937,199.665v-0.164c0-3.235-1.641-5.277-3.916-5.277c-2.299,0-3.917,2.018-3.917,5.255v0.163
	c0,3.237,1.666,5.276,3.941,5.276C0.319,204.918,1.937,202.903,1.937,199.665 M-9.391,199.736v-0.281
	c0-4.926,3.097-8.373,7.436-8.373c4.362,0,7.411,3.424,7.411,8.326v0.281c0,4.902-3.096,8.374-7.435,8.374
	C-6.342,208.063-9.391,204.638-9.391,199.736"/>
<path fill="#FFFFFF" d="M12.585,199.736c1.757,0,2.744-1.103,2.744-2.626v-0.025c0-1.711-0.986-2.65-2.791-2.65h-1.853v5.302H12.585
	z M7.285,191.362h5.464c3.683,0,6.004,2.136,6.004,5.629v0.048c0,3.776-2.698,5.676-6.146,5.747h-1.922v4.995h-3.4V191.362z"/>
<polygon fill="#FFFFFF" points="20.112,191.362 23.678,191.362 27.337,198.025 30.949,191.362 34.537,191.362 34.537,207.781 
	31.207,207.781 31.207,197.296 27.337,204.075 27.266,204.075 23.42,197.344 23.42,207.781 20.112,207.781 "/>
<polygon fill="#FFFFFF" points="36.952,191.362 47.528,191.362 47.528,194.434 40.329,194.434 40.329,197.978 46.661,197.978 
	46.661,201.049 40.329,201.049 40.329,204.709 47.623,204.709 47.623,207.781 36.952,207.781 "/>
<polygon fill="#FFFFFF" points="49.427,191.362 52.547,191.362 58.833,200.931 58.833,191.362 62.163,191.362 62.163,207.781 
	59.254,207.781 52.757,197.861 52.757,207.781 49.427,207.781 "/>
<polygon fill="#FFFFFF" points="67.722,194.506 63.593,194.506 63.593,191.362 75.228,191.362 75.228,194.506 71.098,194.506 
	71.098,207.781 67.722,207.781 "/>
<path fill="#FFFFFF" d="M-74.635,183.619l2.212-2.751c1.209,1.054,2.675,2.031,4.476,2.031c1.44,0,2.315-0.72,2.315-1.774V181.1
	c0-0.901-0.514-1.468-3.086-2.445c-3.19-1.234-5.17-2.442-5.17-5.53v-0.051c0-3.139,2.418-5.273,5.89-5.273
	c2.11,0,4.167,0.721,5.813,2.214l-2.083,2.829c-1.132-0.927-2.444-1.673-3.832-1.673c-1.286,0-2.083,0.644-2.083,1.568v0.027
	c0,1.027,0.616,1.516,3.42,2.674c3.138,1.235,4.836,2.571,4.836,5.377v0.052c0,3.344-2.546,5.4-6.045,5.4
	C-70.262,186.269-72.654,185.472-74.635,183.619"/>
<path fill="#FFFFFF" d="M-60.36,179.041v-11.01h3.729v11.035c0,2.547,1.209,3.807,3.138,3.807s3.138-1.234,3.138-3.729v-11.113
	h3.704v10.933c0,4.966-2.727,7.356-6.893,7.356C-57.685,186.321-60.36,183.904-60.36,179.041"/>
<path fill="#FFFFFF" d="M-45.545,183.619l2.212-2.751c1.208,1.054,2.676,2.031,4.476,2.031c1.439,0,2.315-0.72,2.315-1.774V181.1
	c0-0.901-0.516-1.468-3.087-2.445c-3.189-1.234-5.171-2.442-5.171-5.53v-0.051c0-3.139,2.418-5.273,5.89-5.273
	c2.11,0,4.167,0.721,5.814,2.214l-2.083,2.829c-1.131-0.927-2.444-1.673-3.833-1.673c-1.287,0-2.083,0.644-2.083,1.568v0.027
	c0,1.027,0.616,1.516,3.421,2.674c3.138,1.235,4.835,2.571,4.835,5.377v0.052c0,3.344-2.546,5.4-6.044,5.4
	C-41.172,186.269-43.564,185.472-45.545,183.619"/>
<polygon fill="#FFFFFF" points="-27.978,171.479 -32.505,171.479 -32.505,168.031 -19.747,168.031 -19.747,171.479 -24.274,171.479 
	-24.274,186.037 -27.978,186.037 "/>
<path fill="#FFFFFF" d="M-11.261,178.836l-1.955-5.867l-1.979,5.867H-11.261z M-14.938,167.929h3.549l6.457,18.109h-3.859
	l-1.337-3.912h-6.199l-1.312,3.912h-3.754L-14.938,167.929z"/>
<rect x="-3.52" y="168.031" fill="#FFFFFF" width="3.729" height="18.007"/>
<polygon fill="#FFFFFF" points="2.987,168.031 6.409,168.031 13.304,178.527 13.304,168.031 16.956,168.031 16.956,186.038 
	13.766,186.038 6.641,175.156 6.641,186.038 2.987,186.038 "/>
<path fill="#FFFFFF" d="M28.375,178.836l-1.955-5.867l-1.98,5.867H28.375z M24.697,167.929h3.55l6.457,18.109h-3.858l-1.337-3.912
	h-6.2l-1.312,3.912H18.24L24.697,167.929z"/>
<path fill="#FFFFFF" d="M42.881,178.527h-3.267v4.22h3.345c1.672,0,2.726-0.721,2.726-2.11v-0.025
	C45.685,179.323,44.733,178.527,42.881,178.527 M44.913,173.33c0-1.312-0.926-2.007-2.522-2.007h-2.777v4.064h2.598
	c1.646,0,2.701-0.669,2.701-2.032V173.33z M35.986,168.031h6.688c2.008,0,3.678,0.541,4.708,1.568
	c0.797,0.824,1.209,1.802,1.209,3.062v0.077c0,2.109-1.158,3.241-2.445,3.937c1.929,0.745,3.215,1.93,3.215,4.296v0.129
	c0,3.24-2.597,4.938-6.507,4.938h-6.869V168.031z"/>
<polygon fill="#FFFFFF" points="51.111,168.031 54.841,168.031 54.841,182.617 62.12,182.617 62.12,186.038 51.111,186.038 "/>
<polygon fill="#FFFFFF" points="63.662,168.031 75.264,168.031 75.264,171.402 67.366,171.402 67.366,175.286 74.312,175.286 
	74.312,178.655 67.366,178.655 67.366,182.668 75.365,182.668 75.365,186.038 63.662,186.038 "/>
<path fill="#FFFFFF" d="M-55.537,227.494h15.895c-0.275,12.779-7.329,19.191-16.81,19.191c-10.215,0-16.765-8.611-16.765-17.864
	c0-9.252,6.55-17.864,16.765-17.864c11.314,0,14.428,7.054,15.711,10.72l-7.192,0.458c-1.236-3.023-3.71-5.038-8.519-5.038
	c-5.405,0-9.62,4.396-9.62,11.725c0,6.185,3.893,11.727,10.078,11.727c5.541,0,8.106-3.938,8.702-7.19h-8.245V227.494z"/>
<polygon fill="#FFFFFF" points="28.271,211.694 35.123,211.694 35.123,239.651 48.328,239.651 48.328,246.047 28.271,246.047 "/>
<path fill="#FFFFFF" d="M67.557,220.738c0-2.374-2.283-3.836-5.025-3.836c-3.427,0-5.483,1.507-5.483,3.792
	c0,2.375,2.286,3.517,3.977,4.064l6.303,2.011c4.568,1.463,7.812,4.11,7.812,9.411c0,4.202-3.017,10.506-12.518,10.506
	c-11.923,0-13.021-7.719-13.021-10.781l6.852-0.135c0,3.652,2.88,5.069,6.214,5.069c2.331,0,5.619-1.142,5.619-3.791
	c0-1.828-0.776-2.787-4.158-4.021l-7.492-2.695c-3.79-1.368-6.442-4.704-6.442-8.587c0-4.386,3.016-10.69,11.924-10.69
	c10.6,0,12.289,7.035,12.289,9.549L67.557,220.738z"/>
<path fill="#5FBB48" d="M-28.688,224.599c0.421-0.716,0.933-1.372,1.519-1.954l-4.983-5.465c-1.253,1.198-2.322,2.587-3.163,4.118
	L-28.688,224.599z"/>
<path fill="#E5B733" d="M-16.474,220.74c0.755,0.346,1.456,0.786,2.089,1.31l4.997-5.456c-1.315-1.135-2.807-2.071-4.428-2.763
	L-16.474,220.74z"/>
<path fill="#C4202E" d="M-5.032,222.382l-6.621,3.302c0.316,0.737,0.541,1.521,0.663,2.341l7.366-0.695
	C-3.841,225.585-4.325,223.922-5.032,222.382"/>
<path fill="#4B9F45" d="M-12.129,224.727l6.621-3.301c-0.819-1.524-1.865-2.91-3.094-4.108l-4.995,5.454
	C-13.028,223.356-12.535,224.012-12.129,224.727"/>
<path fill="#418045" d="M-30.005,229.432c0-0.147,0.006-0.297,0.012-0.446l-7.368-0.659c-0.024,0.365-0.038,0.733-0.038,1.105
	c0,1.414,0.175,2.786,0.502,4.099l7.117-2.042C-29.927,230.826-30.005,230.139-30.005,229.432"/>
<path fill="#F9C21A" d="M-13.056,235.489c-0.524,0.638-1.128,1.206-1.797,1.691l3.89,6.299c1.444-0.979,2.729-2.173,3.81-3.539
	L-13.056,235.489z"/>
<path fill="#EF442A" d="M-10.887,229.432c0,0.698-0.075,1.378-0.22,2.034l7.117,2.044c0.325-1.307,0.497-2.672,0.497-4.078
	c0-0.349-0.012-0.695-0.033-1.04l-7.368,0.695C-10.89,229.203-10.887,229.317-10.887,229.432"/>
<path fill="#F99D28" d="M-27.717,235.629l-5.89,4.476c1.096,1.35,2.393,2.525,3.847,3.485l3.889-6.292
	C-26.556,236.824-27.177,236.263-27.717,235.629"/>
<path fill="#1E95D3" d="M-29.886,227.923c0.132-0.831,0.374-1.628,0.707-2.374l-6.621-3.297c-0.731,1.556-1.233,3.24-1.461,5.009
	L-29.886,227.923z"/>
<path fill="#A11D44" d="M-11.868,244.049l-3.886-6.292c-0.704,0.398-1.465,0.711-2.266,0.922l1.371,7.277
	C-14.943,245.565-13.334,244.914-11.868,244.049"/>
<path fill="#2CBCE0" d="M-11.39,232.496c-0.258,0.757-0.607,1.471-1.035,2.13l5.908,4.456c0.96-1.379,1.718-2.908,2.237-4.543
	L-11.39,232.496z"/>
<path fill="#F36C2C" d="M-19.067,238.891c-0.45,0.065-0.911,0.101-1.378,0.101c-0.376,0-0.75-0.023-1.113-0.065l-1.371,7.276
	c0.812,0.12,1.64,0.183,2.484,0.183c0.935,0,1.854-0.077,2.747-0.222L-19.067,238.891z"/>
<path fill="#E7253D" d="M-19.835,219.893c0.821,0.054,1.615,0.209,2.366,0.457l2.657-6.906c-1.58-0.56-3.266-0.89-5.022-0.951
	V219.893z"/>
<path fill="#DB1869" d="M-22.613,238.744c-0.828-0.194-1.616-0.494-2.345-0.888l-3.893,6.295c1.498,0.858,3.134,1.492,4.87,1.862
	L-22.613,238.744z"/>
<path fill="#15496B" d="M-23.319,220.316c0.767-0.242,1.577-0.39,2.415-0.43v-7.4c-1.779,0.048-3.488,0.372-5.09,0.929
	L-23.319,220.316z"/>
<path fill="#C5972E" d="M-28.365,234.779c-0.469-0.692-0.852-1.453-1.128-2.259l-7.112,2.04c0.54,1.696,1.337,3.276,2.35,4.696
	L-28.365,234.779z"/>
<path fill="#0F6A9C" d="M-26.368,221.936c0.625-0.495,1.312-0.912,2.05-1.24l-2.675-6.899c-1.593,0.668-3.06,1.572-4.362,2.671
	L-26.368,221.936z"/>
<path fill="#FFFFFF" d="M10.737,219.598h-0.092l-4.399,13.52h8.938L10.737,219.598z M17.036,238.768H4.301l-2.268,7.271h-7.501
	l12.687-34.822h7.317l12.501,34.822h-7.64L17.036,238.768z"/>
</svg>
