<?xml version="1.0" encoding="utf-8"?>
<!-- Generator: Adobe Illustrator 16.0.4, SVG Export Plug-In . SVG Version: 6.00 Build 0)  -->
<!DOCTYPE svg PUBLIC "-//W3C//DTD SVG 1.1//EN" "http://www.w3.org/Graphics/SVG/1.1/DTD/svg11.dtd">
<svg version="1.1" id="Layer_1" xmlns="http://www.w3.org/2000/svg" xmlns:xlink="http://www.w3.org/1999/xlink" x="0px" y="0px"
	 width="150px" height="150px" viewBox="-74.635 137.8 150 150" enable-background="new -74.635 137.8 150 150"
	 xml:space="preserve">
<circle fill="#FFFFFF" cx="0.365" cy="212.8" r="75"/>
<g>
	<path fill="#47B5F1" d="M-7.188,189.125c0-4.181,3.398-7.561,7.561-7.561c4.174,0.011,7.545,3.382,7.545,7.561
		c0,4.171-3.375,7.535-7.545,7.55v-0.479v-0.483c3.655,0,6.599-2.943,6.599-6.587c0-3.654-2.951-6.602-6.599-6.602
		c-3.645,0.005-6.602,2.947-6.608,6.602c0.007,3.644,2.963,6.585,6.608,6.587v0.483v0.479
		C-3.79,196.675-7.188,193.302-7.188,189.125"/>
	<path fill="#47B5F1" d="M-13.197,189.125c0-7.488,6.069-13.577,13.57-13.577c7.481,0,13.566,6.085,13.566,13.577
		c0,7.476-6.085,13.557-13.566,13.561v-0.477v-0.478c6.94-0.013,12.602-5.664,12.612-12.606
		c-0.011-6.963-5.672-12.606-12.612-12.622c-6.962,0.016-12.595,5.659-12.611,12.622c0.016,6.942,5.648,12.594,12.611,12.606v0.478
		v0.477C-7.128,202.686-13.197,196.601-13.197,189.125"/>
	<path fill="#47B5F1" d="M-19.75,189.125c0-11.115,9.013-20.108,20.123-20.108c11.099,0,20.101,8.993,20.104,20.108
		c-0.003,11.096-9.004,20.094-20.104,20.094v-0.477v-0.478c10.572-0.017,19.13-8.57,19.145-19.14
		c-0.014-10.585-8.572-19.135-19.145-19.16c-10.582,0.025-19.142,8.575-19.164,19.16c0.021,10.569,8.582,19.123,19.164,19.14v0.478
		v0.477C-10.736,209.219-19.75,200.228-19.75,189.125"/>
	<path fill="#47B5F1" d="M-26.005,189.125c0-14.592,11.804-26.385,26.374-26.385c14.573,0,26.392,11.793,26.392,26.385
		c0,14.564-11.819,26.379-26.392,26.379v-0.48v-0.48c14.051-0.026,25.414-11.386,25.44-25.418
		c-0.026-14.06-11.389-25.408-25.44-25.435c-14.052,0.026-25.389,11.375-25.417,25.435c0.029,14.032,11.366,25.392,25.417,25.418
		v0.48v0.48C-14.201,215.504-26.005,203.69-26.005,189.125"/>
	<path fill="#47B5F1" d="M-32.928,189.125c0-18.396,14.908-33.318,33.296-33.325c18.391,0.007,33.303,14.93,33.303,33.325
		c0,18.39-14.912,33.298-33.303,33.298v-0.482v-0.479c17.863-0.028,32.318-14.472,32.351-32.337
		c-0.033-17.869-14.487-32.333-32.351-32.37c-17.855,0.037-32.312,14.501-32.347,32.37c0.036,17.865,14.492,32.309,32.347,32.337
		v0.479v0.482C-18.02,222.423-32.928,207.515-32.928,189.125"/>
	<rect x="-0.118" y="156.284" fill="#47B5F1" width="0.96" height="25.763"/>
	<polygon fill="#47B5F1" points="-23.164,166.243 -22.488,165.575 -4.294,183.777 -4.973,184.455 	"/>
	<rect x="-32.456" y="188.653" fill="#47B5F1" width="25.744" height="0.941"/>
	<polygon fill="#47B5F1" points="-23.164,211.971 -4.973,193.805 -4.294,194.474 -22.488,212.651 	"/>
	<rect x="-0.118" y="196.192" fill="#47B5F1" width="0.96" height="25.743"/>
	<polygon fill="#47B5F1" points="5.037,194.474 5.716,193.805 23.912,211.971 23.235,212.653 	"/>
	<rect x="7.448" y="188.653" fill="#47B5F1" width="25.74" height="0.948"/>
	<polygon fill="#47B5F1" points="5.037,183.777 23.235,165.575 23.912,166.243 5.716,184.455 	"/>
	<path fill="#47B5F1" d="M-4.688,191.257c0.294-0.035,0.24,0.221,0.336,0.379c0,0,0.079,0.008,0.124,0
		c0.432-0.469,0.707-1.028,0.809-1.677c0-0.05,0.13-0.106,0.13-0.129c-0.066-0.293-0.379-0.39-0.521-0.639
		c-0.165,0.437-0.6,0.082-0.935,0.294c0,0.007-0.029,0.126,0.057,0.164c0.118,0.056,0.294,0,0.33,0.092
		c0.08,0.111,0.08,0.315-0.036,0.456c-0.016,0.038-0.111,0.027-0.111,0c-0.174-0.33-0.448-0.288-0.752-0.288
		c0.125,0.11-0.1,0.081-0.047,0.147c-0.425-0.113-0.834,0.087-1.247,0.13c-0.122,0.011-0.289-0.088-0.4-0.196
		c-0.146,0.153-0.322,0.463-0.553,0.376c-0.08-0.037-0.215-0.223-0.13-0.268c0.24-0.14,0.447-0.3,0.562-0.53
		c0.089-0.186,0-0.404,0.103-0.588c0.118-0.249,0.31-0.478,0.539-0.456c0.26,0,0.736,0.226,0.953-0.051
		c0.077-0.075,0.236,0.155,0.33,0.258c0.037,0.035-0.015,0.091-0.058,0.138c-0.152,0.158-0.403,0.174-0.49,0.404
		c-0.08,0.16,0.017,0.295,0.142,0.338c0.196,0.094,0.252-0.178,0.348-0.317c0.115-0.13,0.233-0.021,0.335,0
		c0-0.041-0.006-0.103,0-0.103c0.232-0.066,0.496-0.027,0.742-0.027c0.282,0,0.131-0.584,0.105-0.93c0-0.076-0.009-0.18,0-0.256
		c0-0.043,0-0.093,0.026-0.134c0.072-0.19,0.447-0.241,0.508-0.041c0.01,0.07,0.025,0.132,0.04,0.194
		c0.022,0.101,0.071,0.16,0.196,0.101c0.033-0.021,0.075-0.05,0.082-0.101c0.048-0.112,0.026-0.287,0.091-0.354
		c0.115-0.109,0.273,0.175,0.451,0.2c0.176,0.041,0.374,0.041,0.522-0.062c0.125-0.071,0.125-0.224,0.019-0.37
		c-0.038-0.068-0.15-0.077-0.167-0.052c-0.159,0.175-0.374,0.128-0.552,0.128c-0.17,0-0.249-0.2-0.39-0.3
		c-0.157-0.109-0.352,0.11-0.532,0.033c-0.171-0.076-0.257-0.244-0.156-0.406c0.04-0.074,0.156-0.145,0.256-0.204
		c0.205-0.109,0.458-0.109,0.573-0.29c0.091-0.163,0.142-0.365,0.156-0.55c0.02-0.104,0.116-0.104,0.176-0.115
		c0.245-0.086,0.527-0.025,0.743-0.133c0.246-0.093,0.437-0.308,0.683-0.475c0.117-0.066,0.227-0.134,0.368-0.169
		c0.066-0.021,0.105-0.138,0.121-0.188c0.045-0.412-0.075-0.796,0-1.229c0.029-0.117,0.205-0.191,0.115-0.312
		c-0.025-0.049-0.198,0.03-0.236-0.025c-0.097-0.084-0.18-0.245-0.042-0.328c0.108-0.099,0.342-0.012,0.418-0.165
		c0.141-0.197,0.071-0.572-0.152-0.639c-0.224-0.113-0.475,0.091-0.736,0.041c0.033,0.102-0.115,0.132-0.141,0.132
		c-0.322,0.108-0.348-0.286-0.291-0.505c0-0.045,0.032-0.076,0.063-0.053c0.075,0.008,0.09-0.095,0.105-0.19
		c-0.069,0-0.16-0.011-0.226,0c-0.281,0.141-0.406,0.441-0.688,0.581c-0.038,0.035-0.038,0.085-0.01,0.137
		c0.01,0.03,0.052,0.086,0.094,0.063c0,0.177,0.056,0.474-0.25,0.408c-0.022-0.016-0.022-0.079-0.045-0.088
		c-0.084-0.057-0.255-0.102-0.293,0c-0.048,0.202,0.359,0.292,0.262,0.494c-0.16,0.28-0.556,0.332-0.868,0.486
		c-0.664,0.258-1.36-0.037-2.07,0.11c-0.371,0.077-0.75,0.03-1.14-0.081c-0.278-0.053-0.333,0.188-0.479,0.373
		c-0.011-0.027-0.026-0.07-0.078-0.056c-0.02-0.145,0.067-0.253,0.026-0.397c-0.007-0.122-0.188-0.104-0.233-0.194
		c-0.46-0.879-1.585-0.768-2.438-0.623c-0.161,0.016-0.224,0.18-0.32,0.275c-0.179,0.158-0.417-0.02-0.607,0.106
		c-0.083,0.052-0.118,0.174-0.19,0.191c-0.265,0.066-0.532-0.191-0.756-0.055c-0.144,0.121-0.325,0.144-0.48,0.218
		c-0.057,0.039-0.057,0.157-0.076,0.262c0,0.072-0.136,0.058-0.17,0.058c-0.239,0.07-0.591-0.047-0.642,0.289h0.092
		c0.086,0.271-0.042,0.58-0.298,0.69c-0.303,0.102-0.631,0.075-0.916,0.192c-0.144,0.056-0.333,0.189-0.394,0.319
		c-0.457,0.822-0.895,1.666-0.927,2.604v0.104c0,0.063,0.099,0.118,0.099,0.142c-0.45,0.97-0.754,1.465-1.284,2.395
		c-0.214,0.38-0.473,1.295-0.089,1.605c0.196,0.16-0.099,0.546-0.384,0.564c-0.358,0.016-0.837-0.071-0.962-0.461
		c-0.072-0.171-0.366-0.202-0.591-0.229h0.032l-0.176-0.021c-0.263,0-0.55-0.056-0.771,0.021c-0.41,0.107-0.438,0.581-0.62,0.9
		c-0.128,0.293-0.597,0.22-0.739,0.491c-0.058,0.121,0.071,0.317-0.03,0.489c-0.071,0.11-0.226,0.11-0.269,0.243
		c-0.03,0.067-0.042,0.175-0.09,0.243c-0.102,0.37-0.172,0.714-0.086,1.091c0.009,0.106,0.009,0.213,0.041,0.286
		c0.094,0.387-0.032,0.73-0.204,1.048c-0.259,0.37-0.713,0.37-1.116,0.494c-0.169,0.076-0.381-0.099-0.585-0.054
		c-0.472,0.088-0.926-0.112-1.377,0.037c-0.019,0.017-0.105,0.076-0.143,0.11c-0.228,0.094-0.308-0.166-0.438-0.272
		c-0.137-0.135-0.15-0.376-0.294-0.445c-0.268-0.133-0.646,0.014-0.828,0.286c0.128-0.017-0.003,0.146,0.096,0.146
		c-0.297,0.013-0.518,0.268-0.757,0.379c-0.292,0.164-0.358-0.366-0.388-0.682c-0.031-0.157-0.292-0.263-0.514-0.146
		c-0.036,0.043-0.086,0.085-0.086,0.171c-0.065,0-0.122-0.086-0.195-0.025c-0.191,0.226,0.167,0.197,0.272,0.328
		c0.067,0.067-0.019,0.146-0.105,0.2c-0.093,0.084-0.253-0.088-0.262,0c-0.056,0.153-0.148,0.23-0.266,0.187
		c0,0.044-0.016,0.061,0,0.086c0,0.045,0.023,0.073,0.073,0.045c-0.109,0.044-0.224,0.117-0.311,0.049
		c-0.105-0.049-0.076-0.229-0.105-0.366c-0.024-0.034-0.141,0-0.141,0.042c-0.035,0.23,0.02,0.304-0.221,0.319
		c0.027,0.085-0.069,0.227,0.051,0.252c0.136,0.064,0.288-0.081,0.401,0c0.183,0.18,0.163,0.475,0.217,0.74
		c0,0-0.054,0.029-0.079,0.029c0.045,0.139,0.079,0.484-0.122,0.33c-0.246-0.136,0.039-0.485-0.099-0.699
		c-0.03-0.042-0.172-0.017-0.288-0.017c0.141,0.356-0.162,0.716,0.141,1.057c0.117,0.149-0.361,0.35-0.184,0.535
		c0.099,0.101,0.278,0.208,0.43,0.236c0.086,0.007,0-0.175,0.029-0.236c0.026-0.079,0.279-0.164,0.326-0.054
		c0.032,0.082,0.067,0.173,0.067,0.29c-0.115-0.028-0.237,0.029-0.336,0.072c0.099,0.223-0.048,0.384-0.086,0.595
		c0,0.049,0.073,0.135,0.086,0.189c0.061,0.173,0.341,0.019,0.425,0.156c0.067,0.117-0.125,0.245-0.064,0.402
		c0.056,0.099,0.221,0.039,0.288,0.13c0.109,0.062,0.07,0.2,0.059,0.328c0.107-0.015,0.278,0.105,0.229,0.241
		c0.129,0.052,0.153-0.094,0.145-0.184c0.275,0.013,0.164-0.258,0.195-0.477c-0.095,0.054-0.09-0.15-0.195-0.07
		c-0.066-0.154,0.008-0.318-0.066-0.454c-0.064-0.162-0.296-0.192-0.336-0.401c0.205,0.043,0.336-0.024,0.469-0.233
		c0.067-0.103,0.237,0.046,0.308,0.187c0.032,0.034,0.012,0.077,0.012,0.133c0.175-0.056,0.175,0.123,0.228,0.204
		c0.153,0.098,0.2,0.271,0.364,0.341c0.247,0.07,0.479,0.07,0.738,0.028c-0.019-0.113,0-0.239,0.067-0.271
		c0.111-0.098,0.167,0.113,0.305,0.126c-0.064,0.241,0.062,0.445,0.261,0.564c0.048,0.009,0.122-0.017,0.179,0.009
		c0.08,0.058,0.108,0.189,0.224,0.227c0.083,0.017,0.166-0.037,0.227-0.026c0.135,0.026,0.135,0.128,0.155,0.266
		c0.011,0.008,0.082,0.05,0.082,0.097c0.227-0.047,0.486,0.015,0.552,0.218c0.116,0.296,0.327,0.526,0.46,0.795
		c0.051,0.132,0.289,0.182,0.321,0.303c0.011,0.1,0.083,0.164,0.113,0.189c0.161,0.175,0.384,0.228,0.611,0.283
		c0.07,0.028,0.208-0.122,0.348-0.189c0.064-0.023,0.16,0.047,0.167,0.067c0.214,0.342,0.269,0.812,0.608,1.011
		c0.176,0.104,0.226,0.311,0.408,0.362c0.113,0.023,0.239-0.089,0.352,0c0.072,0.051,0.095,0.2,0.151,0.212
		c0.252,0.118,0.45,0.271,0.501,0.542c0.009,0.038,0.039,0.131,0.103,0.149c0.231,0.021,0.421-0.141,0.537-0.019
		c0.173,0.154,0.384,0.228,0.537,0.388c0.044,0.057,0.17,0.104,0.209,0.057c0.064-0.076,0.028-0.217,0.084-0.29
		c0.062-0.127,0.227-0.085,0.352-0.127c0.15-0.058,0.166-0.341,0.325-0.354c0.279-0.047,0.394,0.296,0.615,0.431
		c0.015,0.025,0.108,0.05,0.14,0.08c0.246,0.131,0.135,0.576,0.427,0.609c0.343,0,0.527,0.311,0.833,0.362
		c0.234,0.07,0.418,0.133,0.626,0.256c0.073,0.052,0.19,0.052,0.27,0.017c0.129-0.044,0.241-0.109,0.356-0.183
		c0.297-0.185,0.679-0.2,0.982-0.396c0.063-0.049,0.124-0.132,0.213-0.163c0.493-0.219,1.048,0.189,1.557-0.084
		c0.138-0.056,0.309-0.056,0.46-0.158c0.312-0.217,0.405-0.661,0.304-0.999c-0.218-0.543-0.406-1.112-0.786-1.581
		c-0.183-0.231-0.43-0.359-0.654-0.594c-0.035-0.067-0.209-0.05-0.312-0.095c-0.201-0.087-0.175-0.332-0.131-0.53
		c0-0.075-0.23-0.075-0.258-0.143c-0.074-0.135,0-0.284,0.017-0.412c0.008-0.062-0.076-0.111-0.091-0.111
		c-0.291-0.061-0.557-0.192-0.854-0.15c-0.095,0.013-0.182-0.089-0.272-0.143c-0.05-0.043,0.017-0.143,0.059-0.162
		c0.169-0.139,0.373-0.242,0.584-0.322c-0.074-0.104-0.089-0.262-0.016-0.306c0.106-0.107,0.083-0.312,0.042-0.427
		c0-0.043-0.042-0.139-0.155-0.139c0.024-0.279,0.181-0.488,0.024-0.731c-0.179-0.23-0.416-0.368-0.479-0.659
		c0-0.03-0.143-0.104-0.143-0.154c0-0.33,0.101-0.699,0.034-1.035c-0.055-0.146-0.214-0.316-0.086-0.405
		c0.053-0.042,0.18-0.136,0.288-0.158c0.23-0.089,0.313-0.247,0.197-0.41c-0.12-0.162-0.357,0-0.534-0.052
		c-0.079-0.024-0.095-0.08-0.105-0.155c-0.033-0.142,0.105-0.355-0.019-0.433c-0.108-0.036-0.208-0.141-0.259-0.218
		c-0.109-0.172-0.019-0.359,0.103-0.53c-0.065,0.006-0.035-0.136-0.121-0.089c-0.024-0.179,0.105-0.381,0.032-0.536
		c-0.056-0.163-0.192-0.362-0.387-0.274c-0.029,0,0,0.061-0.029,0.061c-0.099,0.099-0.222,0.127-0.336,0.033
		c-0.025-0.033-0.025-0.132,0-0.208c0.078-0.1,0.237-0.059,0.326-0.133c0.16-0.162,0.01-0.379-0.057-0.468
		c-0.243-0.214-0.344-0.401-0.294-0.699c-0.275-0.043-0.7-0.073-0.684-0.467c0.023-0.342-0.058-0.654-0.144-1.005
		c-0.066-0.241-0.051-0.497,0.105-0.672c0.039-0.057,0.09-0.154,0.167-0.163c0.355-0.05,0.799,0.026,0.998-0.312
		c0.128-0.241-0.147-0.617,0.069-0.777c0.355-0.274,0.912-0.089,1.359-0.345c0.131-0.103,0.112-0.294,0.075-0.442
		c-0.066-0.174-0.171-0.354-0.264-0.51c-0.153-0.227-0.507-0.113-0.613-0.352c-0.044-0.133-0.044-0.267,0-0.378
		c0.079-0.174,0.23-0.336,0.416-0.421c0.396-0.161,0.78-0.039,1.125,0.157c0.112,0.063,0.212,0.181,0.285,0.305
		c0.029,0.041,0.046,0.104,0.067,0.153c0.103,0.454,0.262,0.939,0.103,1.354c-0.069,0.141-0.242,0.226-0.191,0.447
		c0.115-0.094,0.154,0.054,0.154,0.093c0.082,0.306,0.268,0.734,0,0.93c-0.333,0.204-0.305-0.07-0.653,0
		c-0.169,0.02-0.307-0.029-0.282,0.124c0.012,0.096,0.138,0.298,0.229,0.325c0.804,0.207,1.223,0.27,2.069,0.407
		c0.18,0.039,0.317,0.251,0.528,0.282c0.154,0.024,0.332,0.107,0.506-0.104c0.057-0.072,0.216,0,0.237,0.048
		c0.041,0.163,0.14,0.163,0.247,0.221c0.257,0.126,0.171,0.783,0.513,0.567c0.186-0.119,0.345,0.013,0.546-0.025
		c-0.201,0.276-0.096,0.559,0.103,0.759c0.16,0.195,0.39,0.285,0.586,0.468c0.143,0.18,0.392,0.133,0.417-0.11
		c0.039-0.26-0.24-0.558,0.089-0.784c0.311,0.452-0.089,1.015,0.243,1.427c0.021,0.041,0.042,0.061,0.061,0.1
		c0.15,0.188,0.278,0.389,0.48,0.366c0.146-0.049,0.201-0.191,0.28-0.346c0.001-0.06,0.03-0.12,0.045-0.132
		c0.02-0.145,0.084-0.243,0.122-0.371c0.07-0.196,0.323-0.359,0.28-0.592c0-0.072-0.023-0.171-0.023-0.226
		c0.023-0.317,0.373-0.521,0.67-0.467c0.089,0.02,0.016-0.054,0.102-0.114c0.127-0.097,0.099-0.394,0.217-0.54
		c0.097-0.132,0.214-0.256,0.282-0.388c0.05-0.081,0.146-0.177,0.105-0.29C-4.8,191.427-4.8,191.271-4.688,191.257"/>
	<path fill="#47B5F1" d="M-14.198,190.711c-0.124-0.091-0.23-0.025-0.309,0.065c-0.086,0.081-0.104,0.192-0.042,0.265
		c0.061,0.101,0.121,0.232,0.134,0.337c0,0.228-0.054,0.445-0.019,0.689c0.055,0.182,0.265,0.506,0.383,0.295
		c0.135-0.237,0.34-0.591,0.18-0.874C-13.998,191.22-13.916,190.871-14.198,190.711"/>
	<path fill="#47B5F1" d="M-14.645,192.695c0.035,0.088,0.078,0.144,0.107,0.23c0.068,0.186,0.369,0.1,0.481-0.032
		c0.016-0.072,0-0.198-0.084-0.265c-0.081-0.1-0.217-0.082-0.292-0.13c-0.055-0.019-0.115-0.076-0.16-0.06
		C-14.661,192.498-14.661,192.608-14.645,192.695"/>
	<path fill="#47B5F1" d="M-14.106,193.583c0-0.343-0.309-0.45-0.539-0.241c-0.288,0.241,0.052,0.683,0.275,0.999
		c0.032,0.077,0.074,0.176,0.118,0.261c0.106,0.11,0.31,0.072,0.384-0.061c0.051-0.115,0.093-0.154,0.158-0.274
		C-13.624,194.025-13.766,193.583-14.106,193.583"/>
	<path fill="#47B5F1" d="M-14.786,191.772c0-0.051-0.089-0.051-0.105-0.045c-0.144,0.045-0.175,0.151-0.201,0.279
		c-0.035,0.186,0.026,0.358,0.153,0.49c0.055,0.077,0.154-0.02,0.195-0.132C-14.661,192.177-14.769,191.973-14.786,191.772"/>
	<path fill="#47B5F1" d="M-13.84,193.151c0.052-0.038,0.154-0.13,0.13-0.242c0.087,0.015,0.181,0,0.242-0.101
		c0.051-0.049-0.061-0.111-0.026-0.18c-0.191-0.055-0.322,0.131-0.473,0.269C-14.097,193.021-13.922,193.206-13.84,193.151"/>
	<path fill="#47B5F1" d="M-14.073,195.174c-0.034,0.178,0,0.288,0.112,0.331c0.061,0.009,0.172,0.038,0.172-0.043
		c0.013-0.105,0.083-0.205,0.013-0.3c-0.013-0.015-0.065,0-0.078,0C-13.96,195.101-13.998,195.257-14.073,195.174"/>
	<path fill="#47B5F1" d="M-13.484,196.851c0.054-0.136,0.17-0.271-0.045-0.401c-0.042-0.018-0.15-0.018-0.211-0.018
		C-13.74,196.634-13.625,196.795-13.484,196.851"/>
	<path fill="#47B5F1" d="M-27.903,202.498c-0.039,0.018-0.055,0.241,0,0.297c0.067,0.074,0.24,0.043,0.345,0.043
		C-27.643,202.665-27.623,202.352-27.903,202.498"/>
	<path fill="#47B5F1" d="M-26.413,204.001c-0.129,0.232,0.153,0.483,0.492,0.51c0-0.107,0.041-0.25-0.02-0.337
		C-26.059,204.011-26.351,203.871-26.413,204.001"/>
	<path fill="#47B5F1" d="M-25.748,204.903c-0.038,0.413,0.124,0.692,0.542,0.75C-25.151,205.213-25.327,204.958-25.748,204.903"/>
	<path fill="#47B5F1" d="M-2.882,193.283c0.374-0.117,0.841-0.225,1.281-0.225c0.991-0.021,0.936-1.287,1.448-2.088
		c0.108-0.198-0.067-0.635-0.201-0.848c-0.342-0.546-1.394,0.078-1.635-0.499c-0.139-0.319,0.708,0.206,0.791-0.303
		c0.015-0.126-0.076-0.296-0.166-0.346c-0.141-0.081-0.403-0.094-0.512,0c-0.534,0.448-0.633,1.226-0.917,1.735
		c-0.562,0.978-1.582,1.692-2.125,2.791c-0.089,0.163,0.042,0.289,0.173,0.356C-3.998,194.113-3.49,193.413-2.882,193.283"/>
	<path fill="#47B5F1" d="M1.191,190.841c-0.143,0.051-0.295,0.087-0.372,0.188c-0.059,0.146-0.083,0.377,0,0.512
		c0.047,0.063,0.273,0.074,0.332,0c0.105-0.113-0.038-0.258-0.16-0.322C1.114,191.109,1.235,191.029,1.191,190.841"/>
	<path fill="#47B5F1" d="M-1.821,194.267c0.316,0.378,1.125,0.252,1.038-0.108c-0.104-0.315-0.629-0.491-0.994-0.388
		C-2.009,193.843-1.364,194.107-1.821,194.267"/>
	<path fill="#47B5F1" d="M-0.763,197.223c0.322-0.146,0.156-0.452,0.201-0.733c-0.336,0.145-0.519,0.384-0.57,0.733
		C-1.003,197.223-0.879,197.27-0.763,197.223"/>
	<path fill="#47B5F1" d="M3.366,191.218c0.033-0.021,0.064-0.247,0-0.328c-0.07-0.049-0.213,0-0.338-0.03
		c-0.147-0.058-0.198-0.188-0.227-0.349c0-0.2-0.191-0.346-0.138-0.567c-0.249,0.111-0.238,0.393-0.153,0.514
		C2.726,190.792,2.881,191.321,3.366,191.218"/>
	<path fill="#47B5F1" d="M-2.09,188.399c-0.15-0.083-0.266,0.02-0.15,0.158c0.055,0.072,0.23,0.023,0.333,0.028
		C-1.959,188.527-1.989,188.437-2.09,188.399"/>
	<path fill="#47B5F1" d="M-28.802,197.082c0.054-0.087-0.063-0.155-0.128-0.231c-0.099-0.089-0.217,0.024-0.291-0.089
		c0,0.089-0.025,0.2,0.032,0.265C-29.121,197.133-28.93,197.223-28.802,197.082"/>
	<path fill="#47B5F1" d="M-27.242,197.09c0.157-0.085,0.371-0.141,0.269-0.379c0-0.017-0.042,0-0.077,0
		c-0.245-0.146-0.572-0.094-0.517,0.209C-27.558,197.053-27.397,197.189-27.242,197.09"/>
	<path fill="#47B5F1" d="M-1.444,181.177c0.064-0.152,0.312-0.18,0.275-0.343c-0.014-0.079-0.175-0.079-0.242-0.079
		c-0.119,0.011-0.093,0.175-0.093,0.315c-0.047-0.011-0.081,0-0.081,0.036C-1.585,181.177-1.463,181.203-1.444,181.177"/>
	<path fill="#47B5F1" d="M-0.645,180.87c0.038-0.038,0.178-0.149,0.063-0.243c-0.095-0.09-0.25-0.09-0.3-0.042
		C-0.984,180.704-0.812,180.984-0.645,180.87"/>
	<path fill="#47B5F1" d="M-3.082,186.888c-0.098,0.256,0.372,0.58,0.605,0.427c0.186-0.111,0.099-0.439-0.081-0.537
		C-2.726,186.686-3.023,186.728-3.082,186.888"/>
	<path fill="#47B5F1" d="M-2.536,188.629c0.101-0.094,0-0.232-0.087-0.283c-0.086-0.076-0.259-0.039-0.399,0
		c-0.035,0.019-0.076-0.026-0.128-0.039c-0.029,0.113,0.077,0.163,0.128,0.163C-2.832,188.47-2.675,188.732-2.536,188.629"/>
	<path fill="#47B5F1" d="M-3.253,189.113c-0.127,0.081-0.103,0.328,0.032,0.425c0.147,0.074,0.339,0.04,0.413-0.14
		c0.051-0.143,0.146-0.357,0-0.464C-2.987,188.808-3.074,189.012-3.253,189.113"/>
	<path fill="#47B5F1" d="M-3.71,188.474c0.016,0.234-0.115,0.464-0.058,0.69c0.037,0.132,0.217,0.089,0.247,0
		c0.062-0.21,0-0.395,0.166-0.535c-0.054-0.02-0.125-0.104-0.125,0.049c0.015-0.049,0.062-0.098,0.022-0.145
		C-3.521,188.452-3.611,188.474-3.71,188.474"/>
	<path fill="#47B5F1" d="M-0.666,201.118c0.015,0.004,0.021,0,0.034,0.004c0.006,0,0.019,0,0.025-0.004H-0.666z"/>
	<path fill="#47B5F1" d="M13.704,204.459c0.016-0.013,0-0.044,0-0.056c-0.004,0.041-0.055,0.065-0.096,0.056
		C13.649,204.459,13.7,204.469,13.704,204.459"/>
	<path fill="#47B5F1" d="M0.519,195.786c-0.086,0.032-0.08-0.084-0.086-0.098c-0.083-0.085-0.167-0.085-0.194-0.203
		c-0.084-0.165-0.224,0.118-0.391,0.107c-0.02,0-0.067,0.054-0.042,0.109c0.149,0.198-0.026,0.276-0.141,0.418
		c-0.079,0.157,0.151,0.169,0.195,0.331c0.08,0.179-0.115,0.335-0.08,0.529c-0.044,0.055-0.115,0.14-0.22,0.306
		c-0.029,0.018-0.115,0.179-0.07,0.254c0.147,0.175,0.413-0.179,0.569-0.201c0.147,0,0.171,0,0.291-0.093
		c0.169-0.095,0.326-0.156,0.387-0.344c0.023-0.068-0.265-0.098-0.355-0.107c0.138-0.331-0.048-0.431,0.013-0.79
		C0.394,195.995,0.563,195.786,0.519,195.786"/>
	<path fill="#47B5F1" d="M1.883,200.104c0,0.017,0.083,0.025,0.112,0c0.138-0.103,0.153-0.29,0.082-0.405
		c-0.053-0.098-0.255-0.098-0.281,0.051C1.762,199.873,1.823,200.001,1.883,200.104"/>
	<path fill="#47B5F1" d="M2.084,199.443c0.138-0.025,0.052-0.17-0.013-0.254c-0.044-0.048-0.157-0.074-0.172-0.031
		C1.8,199.311,1.899,199.521,2.084,199.443"/>
	<path fill="#47B5F1" d="M3.431,200.127c-0.032-0.007-0.064-0.054-0.043-0.07c-0.114,0-0.235-0.076-0.38-0.037
		c-0.035,0-0.138-0.031-0.207-0.031c-0.019,0.113-0.059,0.273,0.08,0.315C3.079,200.317,3.28,200.317,3.431,200.127"/>
	<path fill="#47B5F1" d="M5.766,199.916c0.049,0,0.01-0.216-0.028-0.23c-0.202-0.038-0.375,0.171-0.589,0.097
		c0,0.091-0.019,0.148-0.063,0.2c-0.017,0.019-0.089,0.01-0.136,0.01C5.172,200.262,5.518,200.001,5.766,199.916"/>
	<path fill="#47B5F1" d="M6.644,199.115c0.087,0.354,0.481,0.188,0.522-0.059c0-0.17-0.236-0.17-0.312-0.039
		c0.02-0.032,0.032-0.077,0.057-0.119C6.809,198.985,6.614,198.985,6.644,199.115"/>
	<path fill="#47B5F1" d="M17.458,191.9c-0.082,0.19,0.26,0.231,0.425,0.285c0.208,0.062,0.547,0.034,0.603-0.152
		c0.094-0.337-0.279-0.69-0.641-0.644C17.546,191.414,17.562,191.674,17.458,191.9"/>
	<path fill="#47B5F1" d="M17.517,203.455c-0.11-0.035-0.33-0.035-0.33,0c-0.258,1.117-1.291,2.664-0.058,3.414
		c0.543,0.34,1.218-0.339,1.301-0.69C18.632,205.337,18.539,203.958,17.517,203.455"/>
	<path fill="#47B5F1" d="M14.1,198.51c-0.17,0.094-0.207,0.507,0.066,0.507c0.105,0,0.23-0.09,0.321-0.162
		c0.098-0.113,0.086-0.269-0.03-0.305C14.333,198.51,14.197,198.446,14.1,198.51"/>
	<path fill="#47B5F1" d="M14.917,210.003c-0.108,0.186-0.089,0.418,0.103,0.542c-0.004-0.167,0.305-0.371,0.08-0.542
		C15.017,209.916,14.953,209.968,14.917,210.003"/>
	<path fill="#47B5F1" d="M20.101,183.5c-0.155-0.025-0.211,0.025-0.26,0.114c-0.042,0.144,0.019,0.318-0.042,0.482
		c-0.362,1.01-1.535,1.93-0.98,3.072c0,0.018,0.084,0.018,0.098,0c0.325-0.222,0.52-0.521,0.692-0.84
		c0.336-0.698,0.634-1.414,0.864-2.216C20.512,183.873,20.426,183.53,20.101,183.5"/>
	<path fill="#47B5F1" d="M18.208,187.531c-0.086,0.162,0.108,0.286,0.244,0.217c0.13-0.055,0.213-0.28,0.094-0.31
		C18.451,187.385,18.265,187.385,18.208,187.531"/>
	<path fill="#47B5F1" d="M6.672,180.559c-0.132-0.417-0.458-0.019-0.726-0.067c-0.115-0.014-0.173-0.16-0.23-0.16
		c-0.102,0.023-0.192,0.038-0.259,0.109c-0.182,0.1-0.053,0.37,0.134,0.341c0.147,0,0.24-0.2,0.3-0.077
		c0.135,0.226,0.046,0.609,0.393,0.526c0.221-0.054,0.36-0.211,0.602-0.233c0.239-0.014,0.269-0.276,0.239-0.457
		c0.252-0.03,0.548-0.237,0.706-0.03c0.081,0.071,0.099,0.229,0.161,0.322c0.077,0.165,0.246,0.213,0.425,0.224
		c0.221-0.059,0.447-0.036,0.614-0.224c0.172-0.218,0.157-0.478-0.073-0.622c-0.081-0.068-0.243,0.017-0.342-0.068
		c-0.179-0.095-0.313-0.258-0.508-0.332C7.454,179.637,7.067,180.21,6.672,180.559"/>
	<path fill="#47B5F1" d="M8.63,181.056c-0.073,0-0.141,0-0.214-0.003c-0.008,0-0.017,0-0.023,0.003H8.63z"/>
	<path fill="#47B5F1" d="M4.398,180.87c0.227-0.038,0.433-0.038,0.67-0.013v-0.043c-0.018-0.38-0.39-0.337-0.6-0.188
		c-0.021,0,0,0.056,0,0.056c-0.079,0.038-0.179-0.013-0.227,0.021C4.152,180.815,4.293,180.917,4.398,180.87"/>
	<path fill="#47B5F1" d="M5.224,182.379c0.24-0.319,0.591-0.52,0.962-0.692c0.029,0,0-0.081,0-0.128
		c-0.018,0.028-0.039,0.058-0.047,0.103c-0.077-0.169-0.204-0.293-0.362-0.371c-0.01,0.151-0.182,0.253-0.253,0.315
		c-0.19,0.143-0.428,0.294-0.511,0.492c-0.062,0.164-0.095,0.422,0.039,0.522C5.13,182.673,5.172,182.463,5.224,182.379"/>
	<path fill="#47B5F1" d="M1.762,180.144c-0.026,0.104-0.051,0.241,0.083,0.263c0.172,0.051,0.172-0.223,0.096-0.277
		C1.883,180.088,1.784,180.063,1.762,180.144"/>
	<path fill="#47B5F1" d="M-6.318,175.011c0.259,0.131,0.594,0.131,0.869,0.144c0.048,0,0.207-0.169,0.121-0.284
		c-0.15-0.122-0.396-0.021-0.535-0.202l-0.136-0.028c-0.234-0.073-0.292,0.14-0.418,0.262
		C-6.481,174.986-6.325,175.011-6.318,175.011"/>
	<path fill="#47B5F1" d="M14.312,178.783c-0.101,0.14-0.292,0.08-0.475,0.14c-0.092,0.025-0.083,0.206-0.039,0.269
		c0.176,0.247,0.388,0.102,0.627,0.053c-0.065,0.087,0.062,0.07,0.096,0.104c0.112,0.077,0.158-0.192,0.265-0.104
		c0.032,0.027,0.032,0.182,0,0.194c-0.16,0.085-0.16,0.243-0.299,0.308c-0.089,0.063-0.276,0.063-0.355-0.111
		c-0.013-0.018-0.087,0-0.138,0h0.051c-0.07,0.121,0,0.325-0.07,0.383c-0.275,0.247-0.898,0.441-0.624,0.811
		c0.202,0.28,0.668,0.198,1.046,0.169c0.041,0,0.089-0.067,0.076-0.104c-0.036-0.356,0.153-0.416,0.385-0.591
		c0.094-0.076-0.072-0.188-0.18-0.285c-0.105-0.052,0.001-0.262,0.108-0.262c0.148-0.01,0.148-0.194,0.274-0.149v-0.229
		c0.222,0.021,0.407-0.126,0.36-0.32c-0.072-0.247-0.294-0.465-0.211-0.733c0.013-0.104,0.092-0.206,0.239-0.242
		c0.07-0.02,0.109-0.112,0.056-0.162c-0.036-0.03-0.083-0.013-0.122-0.013c0,0.085-0.144,0.051-0.099,0.122
		c-0.243,0.053-0.473,0-0.682,0.132C14.36,178.28,14.458,178.592,14.312,178.783"/>
	<path fill="#47B5F1" d="M11.904,181.069c0.017,0.269,0.315,0.139,0.469,0.045c-0.099,0.041-0.025-0.085-0.099-0.094
		C12.141,180.995,12.031,181.069,11.904,181.069"/>
	<path fill="#47B5F1" d="M15.283,180.54c-0.157,0.22,0.274,0.22,0.45,0.132c0.006,0,0.003-0.031,0-0.045
		c0.016-0.046,0-0.068-0.035-0.087C15.531,180.441,15.325,180.455,15.283,180.54"/>
	<path fill="#47B5F1" d="M15.982,179.4c-0.057-0.021-0.147-0.004-0.216-0.004c0.099,0.041,0.099,0.247,0.252,0.22
		c-0.009-0.028-0.029-0.049-0.029-0.104C15.982,179.485,16.008,179.426,15.982,179.4"/>
	<path fill="#47B5F1" d="M10.955,170.277c0.21,0.121,0.354,0.293,0.422,0.476c0.095,0.244-0.083,0.56,0.076,0.8
		c0.035,0.103,0.138,0.178,0.176,0.228c0.103,0.117-0.005,0.338,0.032,0.484c0.093,0.326,0.116,0.62,0.153,0.929
		c0.128-0.032,0.128,0.194,0.288,0.135c0,0.192,0.089,0.341,0.122,0.523c0.051,0.213,0.294,0.104,0.435,0.252
		c0.212,0.307,0.418,0.609,0.745,0.818c0.1,0.066,0.243,0.066,0.301,0.157c0.026,0.043,0,0.113,0.05,0.113
		c0.433,0.07,1.033,0.296,0.819,0.825c0.163-0.122,0.361-0.207,0.412-0.391c0.086-0.323,0.154-0.671,0.016-0.986
		c-0.08-0.162-0.322-0.25-0.374-0.43c-0.038-0.138,0-0.256,0.007-0.359c0.011-0.183-0.256-0.121-0.297-0.204
		c-0.104-0.23-0.186-0.609,0.253-0.571c0.012,0-0.067-0.084-0.042-0.162c-0.15,0-0.288,0.028-0.428,0
		c-0.099-0.013-0.099-0.152-0.099-0.2c-0.045-0.243,0.08-0.538-0.131-0.707c-0.186-0.115-0.429-0.146-0.614-0.276
		c-0.153-0.131-0.29-0.227-0.466-0.333c-0.112-0.069-0.305,0.106-0.391,0c-0.358-0.4-0.61-0.869-0.946-1.33
		c-0.131-0.141-0.39-0.137-0.616-0.104c-0.07,0.016-0.036,0.083-0.05,0.126c0.034,0,0.063,0,0.091,0.018
		C10.97,170.14,10.926,170.24,10.955,170.277"/>
	<path fill="#47B5F1" d="M8.854,171.022c-0.153,0.217-0.09,0.498,0.061,0.56c0.22,0.091,0.54,0.077,0.815,0.048
		c0.15-0.02,0.246-0.182,0.329-0.33c0.147-0.227,0.534-0.095,0.821-0.196c-0.042,0.174,0.083,0.157,0.185,0.238
		c-0.015-0.2-0.015-0.474-0.14-0.561c-0.262-0.16-0.278-0.385-0.419-0.628c-0.024-0.082-0.175,0.038-0.175,0.085
		c0.032,0.404-0.311,0.332-0.588,0.441c-0.013,0.022,0.016,0.102-0.013,0.129c0,0.018-0.042,0.018-0.086,0
		c-0.048-0.053-0.089-0.076-0.079-0.168c-0.138,0-0.336,0-0.397,0.092C9.092,170.867,8.947,170.896,8.854,171.022"/>
	<path fill="#47B5F1" d="M3.52,162.167c-0.246-0.464-0.63-0.893-0.528-1.489c0.703,0.25,1.336,0.129,2.04-0.094
		c0.524-0.145,1.125,0.106,1.637-0.218c0.062-0.057,0.003-0.231,0.003-0.366c-0.585,0.272-1.077-0.496-1.603-0.161
		c-0.689,0.434-1.427,0.536-2.096,0.718c-0.548,0.121-1.956,0.027-2.02,0.835c0.75,0.008,1.587,0.066,2.055,0.74
		C3.079,162.215,3.344,162.167,3.52,162.167"/>
	<path fill="#47B5F1" d="M5.837,165.534c0.205,0.36,0.572,0.437,0.914,0.565c0.058-0.184-0.042-0.272-0.159-0.372
		C6.362,165.534,6.118,165.511,5.837,165.534"/>
	<path fill="#47B5F1" d="M5.313,166.654c-0.124,0.058,0.016,0.243,0.144,0.345C5.433,166.841,5.645,166.512,5.313,166.654"/>
	<path fill="#47B5F1" d="M4.765,165.984c0.036,0.009,0.1,0.009,0.136,0c0.017-0.013,0-0.052,0-0.089
		c0-0.247-0.246-0.312-0.451-0.336c0,0.05-0.022,0.172,0.02,0.183C4.591,165.796,4.625,165.895,4.765,165.984"/>
	<path fill="#47B5F1" d="M6.795,168.556c0.014,0.034,0.085,0.074,0.129,0.027c0.051-0.047,0.083-0.115,0.051-0.208v0.038
		c-0.044-0.081,0.058-0.196-0.051-0.271c-0.044-0.015-0.099-0.029-0.115,0C6.669,168.277,6.795,168.413,6.795,168.556"/>
	<path fill="#47B5F1" d="M7.529,168.59c-0.022,0.109,0,0.189,0.066,0.253c0.054,0.02,0.099,0,0.119-0.037
		c-0.065-0.045-0.065-0.077-0.065-0.146C7.673,168.503,7.549,168.66,7.529,168.59"/>
	<path fill="#47B5F1" d="M7.241,169.138c0.032,0.108,0.136-0.038,0.166-0.171c0,0,0.013-0.021,0.016-0.031
		c0.02,0.015,0.035,0.027,0.051,0.042c-0.006-0.021-0.025-0.042-0.041-0.07c-0.109-0.123-0.295-0.232-0.4-0.107
		C6.91,168.947,7.167,168.947,7.241,169.138"/>
	<path fill="#47B5F1" d="M7.507,169.219c0.072,0.043-0.1,0.015-0.053,0.085c0.141,0.185,0.377,0.281,0.547,0.23
		c0.083-0.06,0.185-0.23,0.099-0.29c-0.139-0.081-0.333-0.025-0.505-0.025H7.507z"/>
	<path fill="#47B5F1" d="M8.57,169.687c0.092-0.048,0.008-0.123,0-0.182c-0.046-0.124-0.118-0.241-0.206-0.161
		c-0.082,0.046-0.146,0.245-0.021,0.317C8.388,169.692,8.484,169.739,8.57,169.687"/>
	<path fill="#47B5F1" d="M8.899,170.331c0.049,0.051,0.177-0.047,0.236-0.092c0.033,0,0.013-0.087,0.013-0.138
		c0.054,0.02,0.08,0,0.08-0.05c0.042-0.07,0.019-0.175-0.08-0.207c-0.057-0.022-0.147,0.081-0.217,0.017
		c-0.016,0,0.018-0.039,0-0.067c-0.067-0.056-0.167-0.103-0.217-0.05c-0.09,0.078-0.09,0.221-0.048,0.305
		C8.714,170.144,8.81,170.24,8.899,170.331"/>
	<path fill="#47B5F1" d="M8.301,170.823c0.042,0,0.083-0.043,0.092-0.083c0.028-0.099,0.028-0.171,0-0.279
		c-0.009-0.065-0.066-0.065-0.111-0.032c-0.07,0.032-0.067,0.141-0.15,0.16C8.156,170.703,8.212,170.808,8.301,170.823"/>
	<path fill="#47B5F1" d="M7.694,159.542c-0.021,0-0.055-0.015-0.055-0.038c0,0,0.034-0.027,0.055-0.042
		c-0.115-0.122-0.252-0.032-0.381-0.06C7.401,159.542,7.529,159.659,7.694,159.542"/>
	<path fill="#47B5F1" d="M15.346,165.106c0.122,0.115,0.387-0.021,0.519,0.115c0.124,0.15,0.226,0.392,0.45,0.392
		c0.142,0,0.243-0.078,0.263-0.204c0.038-0.373-0.11-0.806-0.468-0.963c-0.344-0.099-0.706-0.099-1.049-0.095
		c-0.222,0-0.222,0.252-0.129,0.357C15.04,164.835,15.189,164.967,15.346,165.106"/>
	<path fill="#47B5F1" d="M24.656,176.872c-0.245-0.302-0.266-0.64-0.423-0.889c-0.151-0.229-0.516-0.256-0.706-0.53
		c-0.095-0.135,0.081-0.362-0.062-0.464c-0.081-0.065-0.176-0.141-0.186-0.21c-0.121-0.323-0.27-0.53-0.562-0.679
		c0.098-0.367-0.246-0.548-0.594-0.654c-0.016-0.02,0.032-0.115,0.032-0.158c-0.01-0.145-0.195-0.188-0.312-0.226
		c-0.05-0.025-0.14,0-0.16-0.025c-0.178-0.236-0.423-0.418-0.507-0.62c-0.105-0.335-0.429-0.524-0.703-0.706
		c-0.103-0.055-0.192-0.338-0.243-0.338c-0.192,0-0.457,0.015-0.486-0.207c-0.036-0.411-0.368-0.67-0.674-0.916
		c-0.447-0.324-0.058-1.015-0.211-1.521c-0.04-0.216-0.27-0.216-0.473-0.216c-0.07,0-0.141-0.062-0.178-0.138
		c-0.177-0.311-0.042-0.661-0.243-0.951c-0.312-0.44-0.666-0.784-1.014-1.218c-0.198-0.227-0.486-0.19-0.729-0.214
		c-0.069-0.013-0.115-0.048-0.176-0.096c-0.091-0.063-0.12-0.166-0.172-0.256c-0.141-0.254-0.446-0.359-0.698-0.479
		c-0.472-0.194-0.978-0.096-1.472-0.165c-0.397-0.029-0.833,0.113-1.126,0.356c-0.341,0.256-0.748,0.393-1.185,0.475
		c-0.167,0.028,0.061,0.237,0,0.367c-0.103,0.164-0.342,0.346-0.24,0.503c0.047,0.041-0.086,0.014-0.042,0.068
		c0.096,0.097,0.262,0.025,0.397,0.025c0.153,0.023,0.207,0.192,0.3,0.269c0.192,0.198,0.412,0.395,0.524,0.64
		c0.05,0.096-0.131,0.27-0.045,0.365c0.244,0.251,0.194,0.472,0.194,0.774c0,0.126,0.267,0.011,0.328,0.05
		c0.358,0.189,0.427,0.642,0.328,1.004c-0.057,0.197-0.037,0.473,0.049,0.633c0.175,0.347,0.217,0.848,0.543,1.104
		c0.069-0.109,0.16-0.256,0.22-0.241c0.283,0.034,0.288-0.184,0.466-0.285c0.538-0.366,0.989,0.345,1.135,0.755
		c0.148,0.406,0,0.93,0.183,1.328c0.141,0.401,0.392,0.719,0.78,0.915c0.086,0.054,0.105,0.291,0.186,0.466
		c0.038,0.099,0.139,0.229,0.292,0.124c0.087-0.049,0.043-0.241,0.189-0.299c0.118-0.044,0.246,0.035,0.319,0.103
		c0.346,0.43,0.429,1.312,1.132,1.26c-0.009,0.104,0.064,0.186,0.137,0.215c0.145,0.043,0.244-0.163,0.346,0.024
		c0.109,0.163,0.169,0.363,0.322,0.447c0.24,0.078,0.506-0.018,0.748,0.042c0.158,0.049,0.289,0.23,0.396,0.39
		c0.07,0.104,0.152,0.227,0.253,0.329c0.473,0.464,0.655,1.163,1.231,1.517c0.175,0.115,0.341,0.341,0.597,0.273
		c0.074,0,0.021-0.113,0.101-0.128c0.238-0.03,0.372-0.227,0.471-0.371c0.175-0.232,0.435-0.443,0.745-0.588
		c0.003-0.014,0-0.104,0.003-0.113c0.208-0.168,0.473-0.22,0.673-0.402C24.829,177.258,24.733,176.958,24.656,176.872"/>
	<path fill="#47B5F1" d="M15.573,175.808c0.061,0.008,0.109,0.025,0.149,0.05c0.05,0.012,0.087,0.006,0.142,0.026L15.573,175.808z"
		/>
	<path fill="#47B5F1" d="M15.151,177.072c0.086,0.159,0.297,0.187,0.448,0.282c0.167,0.144,0.246,0.35,0.39,0.434
		c0.297,0.17,0.183-0.332,0.326-0.499c0.051-0.03,0.208,0.025,0.243-0.03c0.178-0.242-0.035-0.619-0.253-0.858
		c-0.181-0.173-0.319-0.437-0.583-0.542c-0.134-0.029-0.265-0.024-0.341,0.128c-0.144,0.216,0.003,0.499-0.099,0.715
		C15.222,176.818,15.107,176.941,15.151,177.072"/>
	<path fill="#47B5F1" d="M16.876,178.132c-0.124,0.422-0.039,0.876-0.088,1.325c-0.036,0.222-0.374,0.182-0.518,0.374
		c-0.083,0.106-0.118,0.296-0.102,0.432c0.053,0.296,0.389,0.274,0.599,0.391c0.554,0.272,1.059,0.684,1.372,1.249
		c0.122,0.182,0.167,0.447,0.333,0.604c0.16,0.166,0.469,0.166,0.518,0.469c0.023,0.114,0.237,0.155,0.333,0.094
		c0.287-0.239,0.256-0.69,0.053-0.936c-0.134-0.131-0.262-0.308-0.262-0.452c-0.023-0.611-0.201-1.19-0.534-1.722
		c-0.208-0.292-0.565-0.449-0.783-0.718c-0.026-0.06-0.099-0.164-0.045-0.234c0.074-0.146,0.22-0.245,0.263-0.416
		c0.03-0.312-0.324-0.434-0.414-0.739c0-0.015-0.095,0-0.156,0l0.172,0.054C17.322,177.781,16.951,177.838,16.876,178.132"/>
	<path fill="#47B5F1" d="M20.125,181.177c-0.052-0.157,0-0.362-0.025-0.562c-0.027-0.334-0.392-0.388-0.672-0.388
		c-0.131,0-0.285-0.047-0.313,0.103c-0.019,0.132-0.019,0.269,0.084,0.426c0.522,0.609,0.478,1.464,0.708,2.162
		c0.077,0.288,0.566,0.059,0.648-0.242c0.052-0.155,0.062-0.323,0.026-0.476c-0.069-0.157-0.223-0.264-0.255-0.437
		C20.285,181.543,20.157,181.39,20.125,181.177"/>
	<path fill="#47B5F1" d="M19.297,179.242c-0.227,0.184,0.104,0.373,0.035,0.622h0.096c0.151,0.073,0.151-0.11,0.182-0.186
		c-0.278,0.016-0.223-0.279-0.208-0.437C19.376,179.242,19.332,179.218,19.297,179.242"/>
	<path fill="#47B5F1" d="M19.175,178.62c0.016-0.151-0.016-0.297-0.183-0.324c-0.032,0.234-0.255,0.173-0.384,0.294
		c-0.158,0.128,0.014,0.333,0.183,0.401c0.039,0,0.039,0.063,0.062,0.063c0.322,0.137,0.572-0.117,0.444-0.435
		C19.297,178.599,19.224,178.62,19.175,178.62"/>
	<path fill="#47B5F1" d="M18.066,177.538c0.281,0.165,0.003,0.468,0.227,0.562c0.158,0.106,0.475,0.16,0.624,0.018
		c0.115-0.087-0.004-0.303-0.244-0.319c-0.092-0.011-0.086-0.175-0.064-0.301c-0.063,0-0.121-0.042-0.137-0.066
		c-0.227-0.157,0.186-0.274,0.066-0.473c-0.051-0.041-0.012-0.132-0.066-0.143c-0.086-0.041-0.179,0.011-0.21,0.102
		c-0.077,0.09,0.054,0.198,0.003,0.306C18.208,177.359,17.948,177.455,18.066,177.538"/>
	<path fill="#47B5F1" d="M17.906,176.127c-0.133-0.056-0.341,0.072-0.447-0.158c-0.012-0.029-0.118-0.029-0.16,0
		c-0.035,0.015-0.035,0.06-0.057,0.077c-0.077,0.106-0.164,0.183-0.077,0.267c0.121,0.085,0.146,0.17,0.212,0.272
		c0.082,0.143,0.296,0,0.341,0.134c0.035,0.124,0.156,0.163,0.246,0.104c0.105-0.048,0.016-0.237,0.052-0.34
		c-0.068,0.049-0.036-0.126-0.087-0.042C17.964,176.327,18.031,176.169,17.906,176.127"/>
	<path fill="#47B5F1" d="M1.883,186.56h0.083c0.009-0.045,0-0.101,0.058-0.16c0.053-0.078-0.029-0.186-0.082-0.241
		c-0.078-0.086-0.239,0-0.181,0.163h0.08C1.823,186.4,1.823,186.474,1.883,186.56"/>
	<path fill="#47B5F1" d="M19.579,183.706c-0.282-0.11-0.586,0.028-0.841,0.19c-0.553,0.285-0.617,1.014-0.969,1.408
		c-0.232,0.266-0.505,0.397-0.839,0.377c-0.033,0-0.165-0.054-0.177-0.158c0-0.157-0.054-0.323,0.067-0.452
		c0.11-0.087,0.235-0.161,0.31-0.288c0.157-0.244,0.036-0.53-0.025-0.759c-0.13-0.495-0.648-0.792-1.123-0.714
		c-0.478,0.1-0.76,0.594-1.029,1.026c0,0-0.094,0.013-0.094,0c-0.18-0.222-0.42-0.339-0.546-0.572c-0.032-0.03-0.032-0.081,0-0.128
		c0.19,0.098,0.366,0.388,0.567,0.268c0.188-0.111,0.025-0.37-0.125-0.43c-0.172-0.057-0.329-0.22-0.543-0.196
		c-0.144,0.008-0.318-0.213-0.374-0.393c-0.06-0.264-0.083-0.611-0.316-0.685c-0.246-0.104-0.479-0.113-0.712-0.287
		c-0.112-0.055-0.247,0.043-0.352,0.038c0.074-0.074,0.011-0.253,0.047-0.253c0.294-0.027,0.663-0.027,0.481-0.36
		c-0.077-0.16-0.237-0.319-0.423-0.187c-0.058,0.026-0.169,0.026-0.188,0.107c-0.042,0.054-0.051,0.135-0.086,0.182
		c-0.05,0.127,0.095,0.358,0,0.437c-0.185,0.128-0.457,0.113-0.683,0.28c-0.03,0.008-0.116,0.008-0.158,0
		c-0.2-0.07-0.513-0.299-0.607-0.201c-0.145,0.175-0.176,0.393-0.345,0.481c-0.147,0.072-0.336,0.079-0.492,0.153
		c-0.271,0.106-0.113,0.451,0,0.705c0.058,0.083,0.013,0.232-0.076,0.299c-0.195,0.11-0.237-0.133-0.282-0.224
		c-0.079-0.247-0.151-0.522-0.151-0.78c-0.024-0.269,0.316-0.434,0.396-0.692c0.056-0.156,0.103-0.331-0.009-0.505
		c-0.121-0.189-0.315-0.283-0.498-0.222c-0.483,0.126-0.618,0.959-1.1,0.741c-0.25-0.092-0.466-0.346-0.733-0.473
		c-0.148-0.103-0.292-0.204-0.466-0.081c-0.338,0.252-0.751,0.404-1.109,0.579c-0.319,0.148-0.601,0.52-0.786,0.87
		c-0.198,0.445-1.008,0.686-1.272,0.166c-0.13-0.254-0.396-0.458-0.684-0.447c-0.259,0.038-0.352,0.383-0.643,0.447
		c-0.207,0.038-0.331-0.038-0.409-0.192c-0.013-0.042-0.013-0.118,0-0.138c0.393-0.322,0.795-0.558,1.282-0.746
		c0.233-0.077,0.266-0.331,0.179-0.561c-0.007-0.04-0.021-0.102-0.055-0.16c-0.022-0.123-0.041-0.309-0.083-0.309
		c-0.595,0.047-1.094,0.469-1.389,1.008c-0.038,0.074-0.068,0.19-0.12,0.19c-0.377-0.036-0.764,0.181-1.077-0.036
		c-0.067-0.041-0.158-0.474-0.202-0.424c-0.159,0.156-0.246,0.349-0.384,0.523c-0.04,0.087-0.141,0.132-0.201,0.218
		c-0.211,0.325,0.201,0.664,0.106,0.929c-0.064,0.132-0.411,0.132-0.637,0.185c-0.112,0.032-0.112,0.221-0.102,0.371
		c0.016,0.117,0.147,0.104,0.22,0.143c0.22,0.219,0.236,0.589,0.519,0.721c0.341,0.158,0.754,0.045,1.16,0.158
		c0.269,0.055,0.467,0.242,0.58,0.511c0.069,0.141,0.281,0.217,0.295,0.443c0.01,0.077,0.109,0.146,0.215,0.2
		c0.124,0.041,0.284-0.085,0.402-0.029c0.169,0.046,0.102,0.277,0.146,0.421c0.082,0.267-0.06,0.559,0.222,0.825
		c0.108,0.09-0.105,0.368-0.23,0.521c-0.052,0.056-0.227,0.056-0.246,0.138c-0.07,0.24-0.01,0.46,0.108,0.651
		c0.086,0.105,0.224,0,0.263,0.068c0.208,0.267,0.293,0.559,0.467,0.794c0.075,0.093,0.159,0.214,0.261,0.25
		c-0.127,0.026-0.16,0.181-0.127,0.24c0.082,0.099,0.255,0.165,0.341,0.071c0.146-0.096,0.303-0.131,0.444-0.258
		c0.083-0.09,0.225-0.061,0.312-0.147c0.098,0.094,0.181,0.301,0.115,0.388c-0.21,0.2-0.587,0.063-0.83,0.222
		c-0.166,0.075-0.329,0.034-0.416,0.171c-0.086,0.08,0,0.271,0.144,0.294c0.534,0.115,0.122,0.88-0.137,1.272
		c-0.064,0.087,0,0.229-0.033,0.39c-0.02,0.07-0.118,0.111-0.175,0.111c-0.512,0.048-1.032-0.133-1.493,0.035
		c-0.163,0.041-0.243,0.267-0.316,0.454H1.8c-0.134,0.018-0.134,0.166-0.166,0.24c-0.029,0.09-0.016,0.265-0.07,0.353
		c-0.45,0.489-0.516,1.116-0.595,1.691c-0.016,0.175,0.202,0.285,0.327,0.285s0.303-0.144,0.416-0.144
		c0.232,0.033,0.172,0.392,0.26,0.545c0.101,0.175,0.439,0.202,0.478-0.03c0.062-0.203,0.062-0.438,0.125-0.617
		c0.07-0.248-0.191-0.412-0.243-0.64c-0.058-0.22,0.052-0.405,0.18-0.552c0.079-0.087,0.215,0.017,0.271,0.146
		c0.048,0.123,0.048,0.294,0.099,0.448c0.028,0.157-0.08,0.339,0.009,0.452c0.086,0.105,0.138,0.247,0.102,0.379
		c-0.016,0.068-0.102,0.123-0.153,0.21c-0.058,0.173,0.051,0.405-0.097,0.471c-0.153,0.118-0.13,0.333-0.312,0.347
		c-0.402,0.026-0.898-0.188-0.764-0.645c-0.167-0.017-0.336-0.017-0.41,0.129c-0.086,0.183,0,0.47-0.105,0.618
		c-0.15,0.187-0.255,0.382-0.418,0.567c-0.058,0.046,0.079,0.075,0.028,0.135c-0.216,0.258-0.467,0.354-0.733,0.552
		c-0.014,0-0.027,0-0.027,0.05c-0.174,0.11-0.467-0.073-0.537,0.141c-0.096,0.214,0.216,0.362,0.315,0.581
		c0.067,0.149,0.026,0.323-0.179,0.354c-0.297,0.064-0.553,0.025-0.867-0.02c0,0.084-0.079,0.073-0.079,0.104
		c-0.051,0.262,0,0.474-0.202,0.706c-0.124,0.167,0.067,0.369,0.183,0.513c0.124,0.175,0.181,0.413,0.345,0.451
		c0.131,0.039,0.236,0.151,0.353,0.141c0.251-0.07,0.433-0.166,0.525-0.43c0.042-0.162,0.313,0.021,0.489-0.033
		c0.044-0.015,0.135-0.044,0.169-0.074c0.134-0.157-0.035-0.388,0.04-0.48c0.274-0.319,0.581-0.581,0.941-0.812
		c0.119-0.095,0.3-0.196,0.478-0.134c0.138,0.039,0.26,0.123,0.405,0.185c0.137,0.071,0.249,0.164,0.39,0.24
		c0.029,0.031,0.137,0.073,0.204,0.099c0.236,0.104,0.384,0.402,0.644,0.551c0.075,0.037,0.021-0.104,0.101-0.048
		c0.007-0.238-0.046-0.474-0.157-0.611c-0.157-0.23-0.412-0.346-0.588-0.532c-0.067-0.059-0.067-0.229,0.032-0.324
		c0.02-0.049,0.106-0.049,0.109,0c0.141,0.121,0.282,0.121,0.428,0.198c0.29,0.126,0.233,0.554,0.515,0.699
		c0.149,0.08,0.227,0.298,0.408,0.332c0.21,0.071,0.544,0,0.662-0.252c0.093-0.155-0.079-0.239-0.188-0.341
		c-0.207-0.156,0.109-0.23,0.208-0.356c0.184-0.216,0-0.408-0.019-0.617c-0.021-0.087,0.042-0.143,0.093-0.19
		c0,0,0.014-0.023,0.045-0.037c0.115-0.261,0.006-0.549,0.105-0.807c0.039-0.051,0.106-0.047,0.106-0.024
		c0.077,0.128,0.222,0.217,0.351,0.17c0.211-0.053,0.384-0.158,0.528-0.35c0.182-0.239,0.572-0.106,0.665,0.122
		c0.044,0.175-0.016,0.412-0.149,0.458c-0.464,0.069-0.832,0.24-1.172,0.468c-0.046,0.048-0.107,0.073-0.133,0.134
		c-0.186,0.129-0.256,0.266-0.157,0.551c0.021,0.108-0.121,0.222-0.223,0.323c0.175,0.056,0.175,0.271,0.334,0.31
		c0.292,0.066,0.553,0.076,0.761-0.119c0.048-0.076,0.106-0.229,0.074-0.364c0.186-0.026,0.313-0.203,0.516-0.242
		c0.399-0.064,0.633,0.377,0.527,0.726c-0.024,0.066-0.128,0.066-0.16,0.092c-0.208,0.326-0.367,0.652-0.697,0.788
		c-0.502,0.258-1.111,0.198-1.553,0.46c-0.177,0.109-0.226,0.414-0.483,0.484c-0.22,0.056-0.499,0.188-0.729,0v0.047
		c0,0.166-0.521,0.055-0.771-0.047c-0.083-0.033-0.032-0.279-0.138-0.375c-0.088-0.053-0.258,0.025-0.296-0.068
		c-0.055-0.053,0-0.183-0.063-0.195c-0.598-0.107-1.146,0.076-1.75,0.013c-0.16-0.013-0.143,0.198-0.277,0.294
		c-0.111,0.053-0.218,0.166-0.33,0.208c-0.241,0.122-0.498,0.295-0.786,0.184c-0.255,0.079-0.483,0.115-0.713,0.153
		c-0.377,0.074-0.588,0.395-0.895,0.602c-0.241,0.163-0.518,0.191-0.783,0.176c-0.076,0-0.035,0.128-0.102,0.128
		c-0.409,0.103-0.777,0.616-1.004,1.052c-0.073,0.123,0.016,0.291-0.057,0.394c-0.209,0.33-0.32,0.659-0.615,0.931
		c-0.032,0.03-0.032,0.116-0.019,0.176c0.33,0.443,0.713,0.743,1.045,1.198c0.08,0.134,0.24,0.134,0.293,0.241
		c0.125,0.299,0.308,0.557,0.458,0.822c0.214,0.389,0.767,0.536,1.247,0.389c0.175-0.052,0.381,0.115,0.537,0.147
		c0.543,0.053,1.113,0.176,1.633-0.095c0.758,0.237,1.549-0.094,2.238,0.237c0.141,0.033,0.141,0.287,0.239,0.451
		c0.158,0.303,0.342,0.603,0.634,0.823c0.243,0.17,0.588,0.282,0.923,0.317c0.096,0,0.112,0.24,0.195,0.334
		c0.099,0.13,0.057,0.332,0.178,0.433c0.167,0.16,0.309,0.275,0.295,0.505c0,0.275-0.331,0.516-0.129,0.874
		c0.046,0.114-0.025,0.302,0.03,0.37c0.437,0.427,0.841,0.836,1.366,1.22c0.047,0.044,0.143,0.11,0.098,0.219
		c0.208,0.058,0.23,0.254,0.364,0.367c0.106,0.128,0.049,0.33,0.15,0.458c0.18,0.217,0.372,0.418,0.574,0.605
		c0.267,0.24,0.637,0.187,0.953,0.256c0.076,0.046,0.16,0.104,0.253,0.132c0.301,0.094,0.627,0.128,0.889-0.077
		c0.15-0.124,0.282-0.354,0.426-0.443c0.226-0.187,0.578-0.172,0.885-0.229c0.06-0.011,0.156-0.043,0.198-0.124
		c0.032-0.175,0.2-0.27,0.188-0.449c0.233-0.009,0.409-0.128,0.601-0.229c0.381-0.196,0.669-0.578,1.023-0.889
		c0.361-0.336,0.959-0.186,1.154-0.561c0.193-0.368-0.074-0.877,0.092-1.299c0.101-0.201,0.227-0.439,0.246-0.663
		c0.03-0.368,0.045-0.752,0.017-1.127c-0.017-0.221-0.242-0.436-0.214-0.648c0.012-0.16,0.288-0.16,0.341-0.283
		c0.132-0.31,0.258-0.617,0.416-0.91c0.023-0.054,0.132-0.082,0.221-0.141c0.144-0.102,0.023-0.251,0.053-0.398
		c-0.115-0.034-0.165-0.159-0.223-0.232c-0.312-0.447-0.61-0.886-1.138-1.108c-0.131-0.031-0.14-0.174-0.2-0.283
		c-0.052-0.038,0.016-0.181-0.03-0.228c-0.152-0.081-0.092-0.218-0.122-0.312h0.126c-0.004-0.007,0-0.013,0-0.013
		c-0.055,0-0.078-0.045-0.078-0.063c0.119-0.312,0.298-0.597,0.541-0.804c0.066-0.065,0.249-0.065,0.272-0.151
		c0.064-0.272,0.049-0.545-0.078-0.771c-0.194-0.332-0.024-0.662-0.08-0.979c-0.048-0.618-0.048-1.185-0.331-1.75
		c-0.057-0.175-0.22-0.299-0.441-0.243c-0.105,0.016-0.095,0.16-0.157,0.243c-0.077,0.093-0.091,0.202-0.131,0.365
		c-0.083,0.2-0.364,0.264-0.438,0.477c-0.035,0.141-0.068,0.265-0.125,0.35c-0.099,0.102-0.19,0.243-0.326,0.272
		c-0.224,0.072-0.434,0.128-0.649,0.171c-0.23,0.05-0.476,0.05-0.728-0.024c-1.292-0.363-2.401-0.862-3.697-1.22
		c-0.017,0-0.017-0.087,0-0.103c0.196-0.103,0.416,0.044,0.629-0.011c0.146-0.03-0.033-0.232,0.043-0.232
		c0.272,0.066,0.491,0.243,0.755,0.346c0.543,0.183,1.074,0.238,1.646,0.357c0.444,0.094,0.75,0.41,1.176,0.524
		c0.358,0.106,0.594-0.166,0.875-0.279c0.01,0-0.009-0.112,0.01-0.151c0.125-0.226,0.356-0.352,0.451-0.564
		c0.064-0.153-0.035-0.399,0.064-0.576c0.046-0.085,0.192-0.17,0.229-0.268c0.07-0.281,0.03-0.563,0.03-0.833
		c0.159,0.015,0.281-0.164,0.236-0.233c-0.042-0.044-0.051-0.112-0.077-0.152c0-0.165,0.026-0.334,0.062-0.506
		c0.083-0.399-0.036-0.802-0.201-1.148c-0.085-0.183-0.33-0.232-0.522-0.183c-0.063,0.04-0.086,0.146-0.146,0.183
		c-0.195,0.018-0.361,0.105-0.489,0.202c-0.163,0.133-0.153,0.419-0.296,0.536c-0.244,0.206-0.486,0.421-0.806,0.54
		c-0.206,0.101-0.508-0.017-0.547-0.188c-0.198-0.527,0.518-0.433,0.879-0.527c0.051-0.033,0.135-0.122,0.173-0.19
		c0.092-0.185,0.143-0.453,0.345-0.556c0.128-0.05,0.284-0.05,0.415-0.032c0.132,0.032,0.231-0.151,0.368-0.226
		c0.105-0.05,0.099-0.254,0.138-0.369c0.063-0.219,0.306-0.332,0.404-0.518c0.225-0.408,0.225-1.006,0.548-1.321
		c0.22-0.179,0.105,0.29,0.188,0.388c0.138,0.186,0.523,0.17,0.65,0.03c0.114-0.115-0.013-0.41,0.191-0.516
		c0.092-0.019,0.201-0.019,0.274,0c0.154,0.098,0.337,0.265,0.495,0.171c0.109-0.073,0.231-0.235,0.344-0.273
		c0.189-0.06,0.397,0,0.589-0.081c0.467-0.219,1.445,0.081,1.388-0.369c-0.077-0.729-0.674-1.307-1.312-1.643
		c-0.513-0.251-0.321-0.963-0.777-1.367c-0.122-0.079-0.062-0.267-0.161-0.386c-0.032-0.034-0.098-0.095-0.17-0.124
		c-0.065-0.058-0.142-0.121-0.142-0.141c0.077-0.381-0.106-0.739,0.095-1.055c0.103-0.148,0.328-0.227,0.464-0.337
		c0.16-0.137,0.456-0.234,0.456-0.451c0-0.299-0.032-0.616,0.026-0.932c0.023-0.101,0.209-0.186,0.311-0.186
		c0.537-0.006,1.115,0.134,1.607-0.189c0.128-0.113,0.141-0.272,0.22-0.369c0.387-0.562,0.972-1.002,0.946-1.729
		c-0.009-0.13,0.195-0.163,0.247-0.32C19.61,183.834,19.61,183.706,19.579,183.706 M9.248,195.962c0,0.041,0.023,0.109-0.019,0.127
		c-0.093,0.106-0.282,0.042-0.329-0.098c-0.07-0.141-0.135-0.301-0.276-0.361c-0.137-0.022-0.26-0.008-0.325,0.13
		c-0.142-0.1-0.282-0.022-0.412-0.05c0.043-0.22-0.172-0.205-0.292-0.354c-0.141-0.128-0.088-0.389,0.119-0.456
		c0.152-0.068,0.287,0.058,0.318,0.232c-0.016-0.028-0.032-0.028-0.044-0.062c0,0.062-0.028,0.105,0,0.145
		c0.143,0.136,0.31-0.039,0.463,0.074c0.178,0.104,0.424-0.062,0.625,0.062c0.015,0-0.021,0.099,0.053,0.099
		c0.224,0.04,0.307,0.24,0.253,0.413C9.366,195.903,9.333,195.979,9.248,195.962"/>
	<path fill="#47B5F1" d="M-11.731,235.425c2.917-4.317,11.745-8.945,20.397-8.945c8.697,0,18.094,5.025,21.815,2.361
		c0,0-3.799,3.285-11.468,3.285c-7.671,0-10.591-3.869-15.918-3.869c-5.325,0-10.966,4.314-13.314,7.936L-11.731,235.425z"/>
	<path fill="#47B5F1" d="M15.649,225.85c0,0,2.535-1.514,3.854-4.301c1.35-2.806,4.828-7.239,8.334-9.965
		c0,0-3.941,12.438-7.997,12.995c0,0-0.642,0.388,0.502,0.196c1.146-0.196,6.339-2.105,8.187-2.421
		c1.827-0.315,6.331-1.33,7.542-2.531c1.02-1.019,1.71-0.878,1.71-0.878s-5.008,8.357-14.018,8.357
		C23.763,227.303,19.332,226.93,15.649,225.85"/>
	<path fill="#47B5F1" d="M26.3,221.544c0,0,0.945-1.448,1.141-3.943c0.195-2.47,1.718-8.163,6.038-14.386
		c0,0,0.63,9.831-4.271,15.86c0,0-0.297,0.876,0.333,0.236c0.643-0.636,3.723-4.356,10.407-8.88c0,0,3.465-2.854,3.66-3.79
		C43.608,206.642,40.891,220.594,26.3,221.544"/>
	<path fill="#47B5F1" d="M34.751,212.211c0,0,0.377-1.577,0.377-2.909c0-1.342-0.572-5.903-0.572-7.938
		c0-2.039,0.195-5.824,1.767-8.401c0,0,0,2.271,0.509,3.287c0.508,1.003,1.078,5.059,1.078,5.558c0,0.504-0.129,3.936-1.018,5.771
		c0,0,0.643-0.369,1.343-1.695c0.691-1.355,2.398-3.814,5.011-6.412c2.599-2.598,3.161-5.001,3.161-5.001s0.64,4.556-2.724,9.354
		c-3.365,4.848-4.758,4.001-6.593,5.979C37.091,209.803,34.992,212.352,34.751,212.211"/>
	<path fill="#47B5F1" d="M39.993,201.248c0,0-0.112-2.794-0.617-3.68c-0.53-0.904-3.544-6.397-2.917-13.436
		c0,0,0.499-0.445,1.452,2.281c0.936,2.737,2.291,3.547,2.724,6.282c0.459,2.709,0.459,3.851,0.459,3.851s0.304,0.382,0.304,0.07
		c0-0.328,0.323-3.993,1.854-7.348c1.509-3.355,3.536-6.528,3.351-8.76c0,0,0.888,0.071,0.75,3.684
		C47.236,187.822,46.277,194.099,39.993,201.248"/>
	<path fill="#47B5F1" d="M41.665,190.146c0,0-1.097-2.516-1.854-3.364c-0.762-0.799-6.032-8.485-6.463-11.984
		c0,0,0.431-0.232,0.943,0.644c0.515,0.903,3.049,3.419,3.49,3.807c0.455,0.39,3.113,3.243,3.362,6.274c0,0,0.253,0.327-0.249-4.753
		c-0.5-5.065,1.654-8.35-0.123-11.921c0,0,2.476,0.384,3.793,10.789c0,0-0.055,3.676-1.956,8.185
		C42.608,187.822,41.966,190.146,41.665,190.146"/>
	<path fill="#47B5F1" d="M39.75,178.748c0,0-1.969-2.033-3.561-2.981c-1.569-0.965-6.517-5.841-7.403-9.646
		c0,0,0.316-0.426,1.896,1.653c1.211,1.594,2.464,0.814,6.089,5.392c0,0,0.511,1.019,0.76,0.939c0.25-0.041-0.127-1.067-0.127-1.067
		s-0.71-2.843-0.768-3.878c-0.057-1.013-1.508-6.391-2.016-7.09c0,0,4.874,2.78,5.581,10.642
		C40.201,172.711,39.993,178.418,39.75,178.748"/>
	<path fill="#47B5F1" d="M35.56,170.365c0,0,0.333-6.855-8.707-10.34c0,0,3.133,6.418,5.479,7.936
		C34.674,169.491,35.56,170.365,35.56,170.365"/>
	<path fill="#47B5F1" d="M12.481,235.425c-2.917-4.317-11.746-8.945-20.411-8.945c-8.674,0-18.081,5.025-21.815,2.361
		c0,0,3.805,3.285,11.485,3.285c7.665,0,10.6-3.869,15.921-3.869c5.312,0,10.94,4.314,13.294,7.936L12.481,235.425z"/>
	<path fill="#47B5F1" d="M-14.891,225.85c0,0-2.541-1.514-3.894-4.301c-1.32-2.806-4.809-7.239-8.3-9.965
		c0,0,3.924,12.438,8.004,12.995c0,0,0.633,0.388-0.508,0.196c-1.148-0.196-6.355-2.105-8.189-2.421
		c-1.838-0.315-6.341-1.33-7.553-2.531c-1.01-1.019-1.713-0.878-1.713-0.878s5.01,8.357,14.029,8.357
		C-23.016,227.303-18.589,226.93-14.891,225.85"/>
	<path fill="#47B5F1" d="M-25.561,221.544c0,0-0.943-1.448-1.138-3.943c-0.188-2.47-1.713-8.163-6.025-14.386
		c0,0-0.636,9.831,4.24,15.86c0,0,0.33,0.876-0.306,0.236c-0.633-0.636-3.74-4.356-10.416-8.88c0,0-3.481-2.854-3.657-3.79
		C-42.861,206.642-40.14,220.594-25.561,221.544"/>
	<path fill="#47B5F1" d="M-33.992,212.211c0,0-0.381-1.577-0.381-2.909c0-1.342,0.57-5.903,0.57-7.938
		c0-2.039-0.189-5.824-1.778-8.401c0,0,0,2.271-0.499,3.287c-0.518,1.003-1.087,5.059-1.087,5.558c0,0.504,0.122,3.936,1.017,5.771
		c0,0-0.63-0.369-1.345-1.695c-0.697-1.355-2.404-3.814-4.997-6.412c-2.585-2.598-3.169-5.001-3.169-5.001s-0.627,4.556,2.728,9.354
		c3.362,4.848,4.741,4.001,6.592,5.979C-36.341,209.803-34.245,212.352-33.992,212.211"/>
	<path fill="#47B5F1" d="M-39.259,201.248c0,0,0.13-2.794,0.635-3.68c0.5-0.904,3.552-6.397,2.916-13.436
		c0,0-0.508-0.445-1.458,2.281c-0.958,2.737-2.27,3.547-2.732,6.282c-0.444,2.709-0.444,3.851-0.444,3.851s-0.304,0.382-0.304,0.07
		c0-0.328-0.336-3.993-1.845-7.348c-1.514-3.355-3.558-6.528-3.365-8.76c0,0-0.896,0.071-0.765,3.684
		C-46.497,187.822-45.541,194.099-39.259,201.248"/>
	<path fill="#47B5F1" d="M-40.913,190.146c0,0,1.081-2.516,1.848-3.364c0.767-0.799,6.006-8.485,6.47-11.984
		c0,0-0.463-0.232-0.962,0.644c-0.508,0.903-3.04,3.419-3.487,3.807c-0.451,0.39-3.096,3.243-3.376,6.274
		c0,0-0.226,0.327,0.281-4.753c0.49-5.065-1.647-8.35,0.129-11.921c0,0-2.48,0.384-3.822,10.789c0,0,0.066,3.676,1.972,8.185
		C-41.862,187.822-41.22,190.146-40.913,190.146"/>
	<path fill="#47B5F1" d="M-39.004,178.748c0,0,1.96-2.033,3.553-2.981c1.584-0.965,6.522-5.841,7.427-9.646
		c0,0-0.33-0.426-1.913,1.653c-1.207,1.594-2.479,0.814-6.078,5.392c0,0-0.512,1.019-0.763,0.939
		c-0.267-0.041,0.123-1.067,0.123-1.067s0.703-2.843,0.755-3.878c0.063-1.013,1.527-6.391,2.032-7.09c0,0-4.894,2.78-5.568,10.642
		C-39.436,172.711-39.259,178.418-39.004,178.748"/>
	<path fill="#47B5F1" d="M-34.81,170.365c0,0-0.333-6.855,8.674-10.34c0,0-3.101,6.418-5.446,7.936
		C-33.925,169.491-34.81,170.365-34.81,170.365"/>
</g>
<g>
	<path fill="#47B5F1" d="M-18.201,242.692v6.929c0,0.791-0.177,1.484-0.531,2.08s-0.865,1.053-1.534,1.369
		c-0.669,0.318-1.46,0.477-2.373,0.477c-1.377,0-2.446-0.353-3.208-1.059c-0.762-0.705-1.143-1.671-1.143-2.896v-6.899h2.263v6.556
		c0,0.825,0.166,1.431,0.498,1.816s0.881,0.578,1.648,0.578c0.742,0,1.28-0.194,1.615-0.582c0.334-0.389,0.501-0.997,0.501-1.828
		v-6.54H-18.201z"/>
	<path fill="#47B5F1" d="M-5.994,253.4H-8.88l-4.658-8.101h-0.066c0.093,1.431,0.139,2.451,0.139,3.062v5.039h-2.029v-10.708h2.864
		l4.651,8.021h0.051c-0.073-1.393-0.11-2.376-0.11-2.952v-5.068h2.043V253.4z"/>
	<path fill="#47B5F1" d="M-3.222,253.4v-10.708h2.271V253.4H-3.222z"/>
	<path fill="#47B5F1" d="M6.041,253.4H3.771v-8.818H0.863v-1.89h8.086v1.89H6.041V253.4z"/>
	<path fill="#47B5F1" d="M16.938,253.4h-6.167v-10.708h6.167v1.86h-3.896v2.352h3.625v1.859h-3.625v2.762h3.896V253.4z"/>
	<path fill="#47B5F1" d="M28.236,247.943c0,1.764-0.501,3.113-1.505,4.051c-1.003,0.938-2.452,1.406-4.347,1.406h-3.032v-10.708
		h3.362c1.748,0,3.105,0.462,4.072,1.384C27.752,244.999,28.236,246.288,28.236,247.943z M25.877,248.001
		c0-2.299-1.016-3.449-3.047-3.449h-1.208v6.973h0.974C24.784,251.525,25.877,250.351,25.877,248.001z"/>
	<path fill="#47B5F1" d="M-23.012,270.9h-2.886l-4.658-8.101h-0.066c0.093,1.431,0.139,2.451,0.139,3.062v5.039h-2.029v-10.708
		h2.864l4.651,8.021h0.051c-0.073-1.393-0.11-2.376-0.11-2.952v-5.068h2.043V270.9z"/>
	<path fill="#47B5F1" d="M-13.504,270.9l-0.776-2.549h-3.904l-0.776,2.549h-2.446l3.779-10.752h2.776l3.794,10.752H-13.504z
		 M-14.822,266.447c-0.718-2.31-1.122-3.615-1.212-3.918s-0.155-0.543-0.194-0.719c-0.161,0.626-0.623,2.171-1.384,4.637H-14.822z"
		/>
	<path fill="#47B5F1" d="M-6.255,270.9h-2.271v-8.818h-2.908v-1.89h8.086v1.89h-2.908V270.9z"/>
	<path fill="#47B5F1" d="M-1.586,270.9v-10.708h2.271V270.9H-1.586z"/>
	<path fill="#47B5F1" d="M13.153,265.531c0,1.773-0.439,3.135-1.318,4.088c-0.879,0.951-2.139,1.428-3.779,1.428
		s-2.9-0.477-3.779-1.428c-0.879-0.953-1.318-2.319-1.318-4.102s0.44-3.144,1.322-4.084c0.881-0.939,2.145-1.41,3.791-1.41
		s2.904,0.475,3.776,1.422C12.717,262.392,13.153,263.754,13.153,265.531z M5.338,265.531c0,1.197,0.227,2.098,0.681,2.703
		s1.133,0.908,2.036,0.908c1.812,0,2.717-1.203,2.717-3.611c0-2.411-0.901-3.617-2.703-3.617c-0.903,0-1.584,0.304-2.043,0.911
		C5.568,263.433,5.338,264.335,5.338,265.531z"/>
	<path fill="#47B5F1" d="M24.91,270.9h-2.886l-4.658-8.101H17.3c0.093,1.431,0.139,2.451,0.139,3.062v5.039H15.41v-10.708h2.864
		l4.651,8.021h0.051c-0.073-1.393-0.11-2.376-0.11-2.952v-5.068h2.043V270.9z"/>
	<path fill="#47B5F1" d="M34.109,267.926c0,0.967-0.348,1.729-1.043,2.285c-0.696,0.557-1.664,0.835-2.904,0.835
		c-1.143,0-2.153-0.215-3.032-0.645v-2.109c0.723,0.322,1.334,0.549,1.835,0.682c0.5,0.131,0.958,0.197,1.373,0.197
		c0.498,0,0.88-0.096,1.146-0.285c0.266-0.191,0.399-0.474,0.399-0.85c0-0.21-0.059-0.397-0.176-0.561
		c-0.117-0.164-0.29-0.321-0.516-0.473c-0.228-0.151-0.69-0.393-1.388-0.725c-0.654-0.309-1.145-0.604-1.472-0.887
		s-0.588-0.612-0.784-0.988s-0.293-0.815-0.293-1.318c0-0.947,0.321-1.692,0.963-2.234c0.642-0.542,1.529-0.812,2.662-0.812
		c0.557,0,1.088,0.065,1.593,0.197c0.506,0.132,1.034,0.317,1.586,0.557l-0.732,1.766c-0.571-0.234-1.044-0.398-1.417-0.491
		c-0.374-0.093-0.741-0.14-1.103-0.14c-0.43,0-0.759,0.101-0.989,0.301s-0.344,0.461-0.344,0.783c0,0.201,0.046,0.375,0.139,0.524
		c0.093,0.148,0.24,0.293,0.443,0.432c0.203,0.14,0.683,0.39,1.439,0.751c1.001,0.479,1.687,0.958,2.058,1.439
		C33.923,266.638,34.109,267.228,34.109,267.926z"/>
</g>
</svg>
