<?xml version="1.0" encoding="utf-8"?>
<!DOCTYPE svg PUBLIC "-//W3C//DTD SVG 1.1//EN" "http://www.w3.org/Graphics/SVG/1.1/DTD/svg11.dtd">
<svg version="1.1" id="Layer_1" xmlns="http://www.w3.org/2000/svg" xmlns:xlink="http://www.w3.org/1999/xlink" x="0px" y="0px"
	  viewBox="0 0 400 400" style="enable-background:new 0 0 400 400;" xml:space="preserve">
<style type="text/css">
<![CDATA[
	.st0{fill:#47B5F1;}
	.st1{fill:#4FB648;}
	.st2{fill:#F05A31;}
	.st3{fill:#F5A536;}
	.st5{fill:#9F65AA;}
	.st6{fill:#A5CD38;}
]]>
</style>
<g>
	<path class="st0" d="M145.7,381c-10.5,0-18.9,8.5-18.9,18.9c0,0,0,0,0,0h37.9c0,0,0,0,0,0C164.6,389.5,156.1,381,145.7,381z"/>
	<path class="st0" d="M148.7,350.1V326c-35.8,4-63.1,35.6-63.1,74c0,0,0,0,0,0h21.1c0,0,0,0,0,0
		C106.8,373.8,123.2,352.4,148.7,350.1z"/>
	<g>
		<path class="st5" d="M63.3,289.9c-9.1-5.2-12.2-16.8-6.9-25.9c5.2-9.1,16.8-12.2,25.9-6.9c9.1,5.2,12.2,16.8,6.9,25.9
			C84,292,72.4,295.2,63.3,289.9z"/>
		<path class="st5" d="M42.8,325.5c-33.2-19.2-46.9-58.6-32.5-91.6l20.9,12c-10.8,23.2-0.4,48.2,22.2,61.3
			c22.7,13.1,49.5,9.6,64.2-11.4l20.9,12.1C117,336.8,76,344.7,42.8,325.5z"/>
	</g>
</g>
<g>
	<path class="st0" d="M145.6,18.9c10.5,0,18.9-8.5,18.9-18.9h-37.9C126.7,10.5,135.2,18.9,145.6,18.9z"/>
	<path class="st0" d="M148.7,74V49.9c-25.5-2.2-42-23.7-42-49.9H85.6C85.6,38.4,113,69.9,148.7,74z"/>
	<g>
		<path class="st1" d="M63.3,109.8c-9.1,5.2-12.2,16.8-6.9,25.9c5.2,9.1,16.8,12.2,25.9,6.9c9.1-5.2,12.2-16.8,6.9-25.9
			C83.9,107.7,72.4,104.6,63.3,109.8z"/>
		<path class="st1" d="M41.9,72.8C8.7,91.9-5,131.4,9.4,164.4l20.9-12.1c-10.8-23.2-0.5-48.2,22.2-61.3
			c22.7-13.1,49.5-9.6,64.2,11.4l20.9-12.1C116.1,61.4,75.1,53.6,41.9,72.8z"/>
	</g>
</g>
<g>
	<path class="st3" d="M253.7,381c-10.5,0-18.9,8.5-18.9,18.9c0,0,0,0,0,0h37.9c0,0,0,0,0,0C272.7,389.5,264.2,381,253.7,381z"/>
	<path class="st3" d="M252.4,326v24.1c25.5,2.2,41.9,23.7,42,49.9c0,0,0,0,0,0h21.1c0,0,0,0,0,0C315.4,361.6,288.1,330,252.4,326z"
		/>
	<g>
		<path class="st2" d="M336.3,289.8c-9.1,5.2-20.6,2.1-25.9-6.9c-5.2-9.1-2.1-20.6,6.9-25.9c9.1-5.2,20.7-2.1,25.9,6.9
			C348.4,273,345.3,284.6,336.3,289.8z"/>
		<path class="st2" d="M356.8,325.4c-33.2,19.2-74.2,11.3-95.6-17.6l20.9-12.1c14.7,21,41.5,24.5,64.2,11.4
			c22.7-13.1,33-38,22.2-61.3l20.9-12.1C403.7,266.7,390.1,306.2,356.8,325.4z"/>
	</g>
</g>
<g>
	<path class="st3" d="M253.7,18.9c10.5,0,18.9-8.5,18.9-18.9h-37.9C234.8,10.5,243.3,18.9,253.7,18.9z"/>
	<path class="st3" d="M252.4,49.9V74c35.8-4,63.1-35.6,63.1-74h-21.1C294.3,26.2,277.9,47.6,252.4,49.9z"/>
	<g>
		<path class="st6" d="M336.3,109.9c-9.1-5.2-20.6-2.1-25.9,6.9s-2.1,20.6,6.9,25.9c9.1,5.2,20.7,2.1,25.9-6.9
			C348.4,126.7,345.3,115.2,336.3,109.9z"/>
		<path class="st6" d="M357.7,72.9c-33.2-19.2-74.2-11.3-95.6,17.6l20.9,12.1c14.7-21,41.5-24.5,64.2-11.4
			c22.7,13.1,33.1,38,22.2,61.3l20.9,12.1C404.6,131.5,390.9,92.1,357.7,72.9z"/>
	</g>
</g>
</svg>
