<?xml version="1.0" encoding="utf-8"?>
<!DOCTYPE svg PUBLIC "-//W3C//DTD SVG 1.1//EN" "http://www.w3.org/Graphics/SVG/1.1/DTD/svg11.dtd">
<svg version="1.1" id="Layer_1" xmlns="http://www.w3.org/2000/svg" xmlns:xlink="http://www.w3.org/1999/xlink" x="0px" y="0px"
	 width="400px" height="400px" viewBox="0 0 400 400" style="enable-background:new 0 0 400 400;" xml:space="preserve">
<style type="text/css">
<![CDATA[
	.st0{fill:#00295a;}
	.st1{fill:#00295a;}
	.st2{fill:#00295a;}
	.st3{fill:#00295a;}
	.st4{fill:#00295a;}
	.st5{fill:#00295a;}
]]>
</style>
<g>
	<g>
		<g>
			<g>
				<path class="st3" d="M72.7,200c0-10.5-8.5-18.9-18.9-18.9c-10.5,0-18.9,8.5-18.9,18.9c0,10.5,8.5,18.9,18.9,18.9
					C64.2,218.9,72.7,210.4,72.7,200z"/>
				<path class="st3" d="M115.4,200c0-38.4-27.3-69.9-63.1-74v24.1c25.5,2.2,41.9,23.7,42,49.9c0,26.2-16.4,47.6-42,49.9V274
					C88.1,269.9,115.4,238.4,115.4,200z"/>
			</g>
			<g>
				<path class="st0" d="M326.7,200c0-10.5,8.5-18.9,18.9-18.9c10.5,0,18.9,8.5,18.9,18.9c0,10.5-8.5,18.9-18.9,18.9
					C335.2,218.9,326.7,210.4,326.7,200z"/>
				<path class="st0" d="M285.6,200c0-38.4,27.3-69.9,63.1-74v24.1c-25.6,2.2-42,23.7-42,49.9c0,26.2,16.4,47.6,42,49.9V274
					C313,269.9,285.6,238.4,285.6,200z"/>
			</g>
			<g>
				<path class="st5" d="M136.3,309.9c-9.1-5.2-20.6-2.1-25.9,6.9c-5.2,9.1-2.1,20.6,6.9,25.9c9.1,5.2,20.7,2.1,25.9-6.9
					C148.4,326.7,145.3,315.2,136.3,309.9z"/>
				<path class="st5" d="M157.7,272.9c-33.2-19.2-74.2-11.3-95.6,17.6l20.9,12.1c14.7-21,41.5-24.5,64.2-11.4
					c22.7,13.1,33.1,38,22.2,61.3l20.9,12.1C204.6,331.5,190.9,292.1,157.7,272.9z"/>
			</g>
			<g>
				<path class="st4" d="M263.3,89.9c-9.1-5.2-12.2-16.8-6.9-25.9c5.2-9.1,16.8-12.2,25.9-6.9c9.1,5.2,12.2,16.8,6.9,25.9
					C284,92,272.4,95.2,263.3,89.9z"/>
				<path class="st4" d="M242.8,125.5c-33.2-19.2-46.9-58.6-32.5-91.6l20.9,12.1c-10.8,23.2-0.4,48.2,22.2,61.3
					c22.7,13.1,49.5,9.6,64.2-11.4l20.9,12.1C317,136.8,276,144.7,242.8,125.5z"/>
			</g>
			<g>
				<path class="st1" d="M263.3,309.8c-9.1,5.2-12.2,16.8-6.9,25.9c5.2,9.1,16.8,12.2,25.9,6.9c9.1-5.2,12.2-16.8,6.9-25.9
					C283.9,307.7,272.4,304.6,263.3,309.8z"/>
				<path class="st1" d="M241.9,272.8c-33.2,19.2-46.9,58.6-32.5,91.6l20.9-12.1c-10.8-23.2-0.5-48.2,22.2-61.3
					c22.7-13.1,49.5-9.6,64.2,11.4l20.9-12.1C316.1,261.4,275.1,253.6,241.9,272.8z"/>
			</g>
			<g>
				<path class="st2" d="M136.3,89.8c-9.1,5.2-20.6,2.1-25.9-6.9c-5.2-9.1-2.1-20.6,6.9-25.9c9.1-5.2,20.7-2.1,25.9,6.9
					C148.4,73,145.3,84.6,136.3,89.8z"/>
				<path class="st2" d="M156.8,125.4c-33.2,19.2-74.2,11.3-95.6-17.6l20.9-12.1c14.7,21,41.5,24.5,64.2,11.4
					c22.7-13.1,33-38,22.2-61.3l20.9-12.1C203.7,66.7,190.1,106.2,156.8,125.4z"/>
			</g>
		</g>
	</g>
</g>
</svg>
