<?xml version="1.0" encoding="utf-8"?>
<!DOCTYPE svg PUBLIC "-//W3C//DTD SVG 1.1//EN" "http://www.w3.org/Graphics/SVG/1.1/DTD/svg11.dtd">
<svg version="1.1" id="Layer_1" xmlns="http://www.w3.org/2000/svg" xmlns:xlink="http://www.w3.org/1999/xlink" x="0px" y="0px"
	 width="740px" height="740px" viewBox="-469.5 300.5 740 740" style="enable-background:new -469.5 300.5 740 740;"
	 xml:space="preserve">
<style type="text/css">
	.st0{fill:#47B5F1;}
	.st1{fill:#4FB648;}
	.st2{fill:#F05A31;}
	.st3{fill:#F5A536;}
	.st4{fill:#FFFFFF;}
	.st5{fill:#9F65AA;}
	.st6{fill:#00A6E6;}
	.st7{fill:#00B0EA;}
	.st8{fill:#A5CD38;}
</style>

	<g>


				<path class="st3" d="M-239.8,544.8c0-11.6-9.4-21.1-21.1-21.1s-21.1,9.4-21.1,21.1s9.4,21.1,21.1,21.1
					C-249.3,565.8-239.8,556.4-239.8,544.8z"/>
				<path class="st3" d="M-192.3,544.8c0-42.7-30.3-77.8-70.1-82.2v26.8c28.4,2.5,46.6,26.3,46.6,55.4c0,29.1-18.2,52.9-46.6,55.4
					v26.8C-222.7,622.4-192.3,587.4-192.3,544.8z"/>

				<path class="st0" d="M42.4,544.8c0-11.6,9.4-21.1,21.1-21.1c11.6,0,21.1,9.4,21.1,21.1s-9.4,21.1-21.1,21.1
					C51.8,565.8,42.4,556.4,42.4,544.8z"/>
				<path class="st0" d="M-3.2,544.8c0-42.7,30.3-77.8,70.1-82.2v26.8c-28.4,2.5-46.6,26.3-46.6,55.4c0,29.1,18.2,52.9,46.6,55.4
					v26.8C27.1,622.4-3.2,587.4-3.2,544.8z"/>

				<path class="st8" d="M-169.2,666.9c-10.1-5.8-22.9-2.3-28.8,7.7c-5.8,10.1-2.3,22.9,7.7,28.8c10.1,5.8,22.9,2.3,28.8-7.7
					C-155.7,685.6-159.1,672.7-169.2,666.9z"/>
				<path class="st8" d="M-145.4,625.7c-36.9-21.3-82.5-12.6-106.2,19.6l23.2,13.4c16.3-23.3,46.1-27.2,71.2-12.7
					c25.2,14.5,36.8,42.2,24.7,68.1l23.2,13.4C-93.3,690.9-108.5,647-145.4,625.7z"/>

				<path class="st5" d="M-28.1,422.4c-10.1-5.8-13.5-18.7-7.7-28.8c5.8-10.1,18.7-13.5,28.8-7.7c10.1,5.8,13.5,18.7,7.7,28.7
					C-5.1,424.8-18,428.3-28.1,422.4z"/>
				<path class="st5" d="M-50.8,461.9C-87.8,440.6-103,396.9-87,360.2l23.2,13.4c-12,25.8-0.5,53.5,24.7,68.1
					c25.2,14.5,54.9,10.7,71.3-12.7l23.2,13.4C31.6,474.5-13.9,483.3-50.8,461.9z"/>

				<path class="st1" d="M-28.1,666.8c-10.1,5.8-13.5,18.7-7.7,28.8c5.8,10.1,18.7,13.5,28.8,7.7c10.1-5.8,13.5-18.7,7.7-28.8
					C-5.1,664.4-18,660.9-28.1,666.8z"/>
				<path class="st1" d="M-51.8,625.6c-36.9,21.3-52.1,65.2-36.2,101.8l23.3-13.4c-12-25.8-0.5-53.5,24.7-68.1
					c25.2-14.5,54.9-10.7,71.2,12.7l23.2-13.4C30.7,613-14.9,604.3-51.8,625.6z"/>

				<path class="st2" d="M-169.2,422.3c-10.1,5.8-22.9,2.3-28.8-7.7c-5.8-10.1-2.3-22.9,7.7-28.8c10.1-5.8,22.9-2.3,28.8,7.7
					C-155.7,403.6-159.1,416.5-169.2,422.3z"/>
				<path class="st2" d="M-146.3,461.9c-36.9,21.3-82.5,12.6-106.2-19.6l23.2-13.4c16.3,23.3,46.1,27.2,71.2,12.7
					s36.8-42.3,24.7-68.1l23.3-13.4C-94.2,396.7-109.4,440.5-146.3,461.9z"/>

	</g>
	<g>
		<path class="st7" d="M-166.8,828.6h-8.8l-10-32.8l-9.9,32.8h-8.8l-14.4-54h11l8.3,34l9.8-34h7.9l9.8,34l8.4-34h11L-166.8,828.6z"
			/>
		<path class="st6" d="M-117.4,823.2c-3.7,3.8-8.4,5.9-14.6,5.9s-10.8-2.1-14.7-5.9c-5.5-5.4-5.3-12.2-5.3-21.5
			c0-9.3-0.2-16.1,5.3-21.5c3.8-3.8,8.5-5.9,14.7-5.9s10.8,2.1,14.6,5.9c5.5,5.5,5.4,12.2,5.4,21.5
			C-112.1,811-112,817.8-117.4,823.2z M-125.2,786.5c-1.5-1.8-3.8-2.9-6.8-2.9c-2.9,0-5.3,1.2-6.8,2.9c-2.1,2.3-2.6,4.8-2.6,15.2
			s0.5,12.9,2.6,15.2c1.5,1.8,3.9,2.9,6.8,2.9c2.9,0,5.2-1.2,6.8-2.9c2-2.2,2.7-4.8,2.7-15.2S-123.2,788.8-125.2,786.5z"/>
		<path class="st6" d="M-76.4,828.6L-87,807.1h-7.6v21.5h-10.6v-54H-84c11,0,17.5,7.5,17.5,16.5c0,7.6-4.7,12.2-9.8,14.2l12.1,23.3
			L-76.4,828.6L-76.4,828.6z M-84.7,784.1h-9.9v14.2h9.9c4.7,0,7.7-2.9,7.7-7.2C-77,787-80,784.1-84.7,784.1z"/>
		<path class="st6" d="M-57.8,828.6v-54h10.5v44.6h22.2v9.4H-57.8z"/>
		<path class="st6" d="M14.2,823.5c-3.6,3.6-8.7,5.2-14.3,5.2h-19.5v-54h19.5c5.6,0,10.7,1.6,14.3,5.2c6.1,6.1,5.5,13.5,5.5,21.6
			C19.6,809.5,20.2,817.4,14.2,823.5z M6.8,787.4c-1.8-2.2-4.2-3.3-7.9-3.3h-8v35.2h8c3.7,0,6.1-1.2,7.9-3.3c2-2.4,2.2-6.2,2.2-14.5
			C9.1,793.3,8.8,789.9,6.8,787.4z"/>
	</g>
	<g>
		<path class="st6" d="M-320.7,901.8v-22.6H-339v22.6h-10.5v-54h10.5v22.1h18.2v-22.1h10.5v54H-320.7z"/>
		<path class="st6" d="M-282.3,902.2c-11.1,0-19.8-7.5-19.8-18.9v-35.5h10.5v35.1c0,6.3,3.7,9.9,9.3,9.9c5.7,0,9.4-3.8,9.4-9.9
			v-35.1h10.4v35.5C-262.5,894.7-271.3,902.2-282.3,902.2z"/>
		<path class="st6" d="M-216.2,901.8v-31.4l-10.3,20.5h-7.2l-10.4-20.5v31.4h-10.5v-54h10.4l14.1,29.2l14-29.2h10.4v54H-216.2z"/>
		<path class="st6" d="M-166.2,901.8l-3.2-9.6h-19.2l-3.2,9.6h-11.1l19.7-54h8.2l19.7,54H-166.2z M-178.8,863.7l-6.8,19.7h13.4
			L-178.8,863.7z"/>
		<path class="st6" d="M-120.4,901.8l-21.4-33.2v33.2h-10.5v-54h9.4l21.4,33.1v-33.1h10.5v54H-120.4z"/>
		<path class="st6" d="M-102.2,901.8v-54h10.5v54H-102.2z"/>
		<path class="st6" d="M-62.3,857.2v44.6h-10.5v-44.6H-87v-9.4h38.8v9.4H-62.3z"/>
		<path class="st6" d="M-17.3,901.8l-3.2-9.6h-19.2l-3.2,9.6h-11l19.7-54h8.3l19.7,54H-17.3z M-29.9,863.7l-6.8,19.7h13.4
			L-29.9,863.7z"/>
		<path class="st6" d="M26.7,901.8l-10.5-21.5H8.6v21.5H-2v-54h21.2c11,0,17.5,7.5,17.5,16.5c0,7.6-4.6,12.2-9.8,14.2l12.1,23.2
			L26.7,901.8L26.7,901.8z M18.5,857.2H8.6v14.2h9.9c4.6,0,7.7-3,7.7-7.2C26.2,860.1,23.2,857.2,18.5,857.2z"/>
		<path class="st6" d="M43.8,901.8v-54h10.5v54H43.8z"/>
		<path class="st6" d="M95.3,901.8l-3.2-9.6H73l-3.3,9.6h-11l19.7-54h8.3l19.7,54H95.3z M82.8,863.7l-6.8,19.7h13.4L82.8,863.7z"/>
		<path class="st6" d="M141.1,901.8l-21.4-33.2v33.2h-10.5v-54h9.4l21.4,33.1v-33.1h10.5v54H141.1z"/>
	</g>
	<g>
		<path class="st6" d="M-208.5,975.3c-8.2,0-14.4-1.7-19.7-7.1l6.8-6.8c3.4,3.4,8,4.6,13,4.6c6.2,0,9.6-2.3,9.6-6.7
			c0-1.9-0.5-3.5-1.7-4.6c-1.1-1-2.2-1.5-4.8-1.9l-6.5-0.9c-4.7-0.7-8-2.2-10.5-4.5c-2.6-2.6-3.8-6.1-3.8-10.6
			c0-9.7,7.2-16.3,18.8-16.3c7.4,0,12.8,1.8,17.4,6.2l-6.7,6.6c-3.4-3.3-7.5-3.8-11.1-3.8c-5.6,0-8.3,3.1-8.3,6.8
			c0,1.3,0.4,2.8,1.6,3.8c1.1,1,2.8,1.8,5,2.1l6.3,0.9c4.9,0.7,8,2.1,10.3,4.2c2.9,2.8,4.2,6.7,4.2,11.4
			C-188.5,969.4-197.2,975.3-208.5,975.3z"/>
		<path class="st6" d="M-163.3,975.3c-11.1,0-19.8-7.5-19.8-18.9v-35.5h10.6v35.1c0,6.2,3.7,9.9,9.3,9.9s9.4-3.8,9.4-9.9v-35.1h10.4
			v35.5C-143.5,967.8-152.2,975.3-163.3,975.3z"/>
		<path class="st6" d="M-98.7,974.9v-31.5l-10.3,20.5h-7.1l-10.3-20.5v31.5H-137v-54h10.4l14.1,29.2l14-29.2h10.4v54H-98.7z"/>
		<path class="st6" d="M-42.6,974.9v-31.5l-10.3,20.5h-7.2l-10.3-20.5v31.5h-10.5v-54h10.4l14.1,29.2l14-29.2H-32v54H-42.6z"/>
		<path class="st6" d="M-24.8,974.9v-54h10.5v54H-24.8z"/>
		<path class="st6" d="M15.1,930.3v44.6H4.6v-44.6H-9.5v-9.4h38.8v9.4H15.1z"/>
	</g>

</svg>
